NotoSerifTamilSlanted-SemiBold.ufo
<glyph name="exclam" format="2">
  <advance width="371.48275862068965"/>
  <unicode hex="0021"/>
  <outline>
    <contour>
      <point x="138.75862068965517" y="217.75862068965517" type="line"/>
      <point x="200.20689655172413" y="217.75862068965517" type="line"/>
      <point x="358.2068965517241" y="714.0" type="line"/>
      <point x="206.20689655172413" y="714.0" type="line"/>
    </contour>
    <contour>
      <point x="142.0689655172414" y="-8.0" type="curve" smooth="yes"/>
      <point x="182.17241379310346" y="-8.0"/>
      <point x="223.3793103448276" y="15.758620689655173"/>
      <point x="223.3793103448276" y="79.72413793103448" type="curve" smooth="yes"/>
      <point x="223.3793103448276" y="123.0344827586207"/>
      <point x="192.93103448275863" y="144.51724137931035"/>
      <point x="151.86206896551724" y="144.51724137931035" type="curve" smooth="yes"/>
      <point x="106.44827586206897" y="144.51724137931035"/>
      <point x="70.55172413793103" y="112.6896551724138"/>
      <point x="70.55172413793103" y="57.55172413793103" type="curve" smooth="yes"/>
      <point x="70.55172413793103" y="13.862068965517242"/>
      <point x="99.75862068965517" y="-8.0"/>
    </contour>
  </outline>
</glyph>
<glyph name="quotedbl" format="2">
  <advance width="470.0689655172414"/>
  <unicode hex="0022"/>
  <outline>
    <contour>
      <point x="144.0344827586207" y="454.17241379310343" type="line"/>
      <point x="202.44827586206895" y="454.17241379310343" type="line"/>
      <point x="303.55172413793105" y="714.0" type="line"/>
      <point x="166.51724137931035" y="714.0" type="line"/>
    </contour>
    <contour>
      <point x="350.6551724137931" y="454.17241379310343" type="line"/>
      <point x="409.0689655172414" y="454.17241379310343" type="line"/>
      <point x="510.17241379310343" y="714.0" type="line"/>
      <point x="373.1379310344828" y="714.0" type="line"/>
    </contour>
  </outline>
</glyph>
<glyph name="numbersign" format="2">
  <advance width="559.0"/>
  <unicode hex="0023"/>
  <outline>
    <contour>
      <point x="64.06896551724138" y="0.0" type="line"/>
      <point x="130.89655172413794" y="0.0" type="line"/>
      <point x="189.89655172413794" y="201.13793103448276" type="line"/>
      <point x="307.17241379310343" y="201.13793103448276" type="line"/>
      <point x="248.79310344827587" y="0.0" type="line"/>
      <point x="315.62068965517244" y="0.0" type="line"/>
      <point x="374.0" y="201.13793103448276" type="line"/>
      <point x="497.48275862068965" y="201.13793103448276" type="line"/>
      <point x="504.48275862068965" y="266.3448275862069" type="line"/>
      <point x="394.2413793103448" y="266.3448275862069" type="line"/>
      <point x="448.7586206896552" y="453.0344827586207" type="line"/>
      <point x="555.4827586206897" y="453.0344827586207" type="line"/>
      <point x="562.7241379310345" y="518.8620689655172" type="line"/>
      <point x="468.2413793103448" y="518.8620689655172" type="line"/>
      <point x="525.6206896551724" y="714.0" type="line"/>
      <point x="458.7931034482759" y="714.0" type="line"/>
      <point x="401.41379310344826" y="518.8620689655172" type="line"/>
      <point x="284.13793103448273" y="518.8620689655172" type="line"/>
      <point x="340.8965517241379" y="714.0" type="line"/>
      <point x="273.0689655172414" y="714.0" type="line"/>
      <point x="217.31034482758622" y="518.8620689655172" type="line"/>
      <point x="91.72413793103448" y="518.8620689655172" type="line"/>
      <point x="84.48275862068965" y="453.0344827586207" type="line"/>
      <point x="197.82758620689654" y="453.0344827586207" type="line"/>
      <point x="142.31034482758622" y="266.3448275862069" type="line"/>
      <point x="33.10344827586207" y="266.3448275862069" type="line"/>
      <point x="26.103448275862068" y="201.13793103448276" type="line"/>
      <point x="123.06896551724138" y="201.13793103448276" type="line"/>
    </contour>
    <contour>
      <point x="209.51724137931035" y="266.3448275862069" type="line"/>
      <point x="264.6551724137931" y="453.0344827586207" type="line"/>
      <point x="382.55172413793105" y="453.0344827586207" type="line"/>
      <point x="327.41379310344826" y="266.3448275862069" type="line"/>
    </contour>
  </outline>
</glyph>
<glyph name="percent" format="2">
  <advance width="896.0"/>
  <unicode hex="0025"/>
  <outline>
    <contour>
      <point x="174.44827586206895" y="0.0" type="line"/>
      <point x="250.93103448275863" y="0.0" type="line"/>
      <point x="745.8275862068965" y="714.0" type="line"/>
      <point x="672.7241379310345" y="714.0" type="line"/>
    </contour>
    <contour>
      <point x="206.17241379310346" y="280.37931034482756" type="curve" smooth="yes"/>
      <point x="363.86206896551727" y="280.37931034482756"/>
      <point x="432.58620689655174" y="460.0"/>
      <point x="432.58620689655174" y="570.8275862068965" type="curve" smooth="yes"/>
      <point x="432.58620689655174" y="659.6206896551724"/>
      <point x="390.1034482758621" y="723.6206896551724"/>
      <point x="292.13793103448273" y="723.6206896551724" type="curve" smooth="yes"/>
      <point x="137.44827586206895" y="723.6206896551724"/>
      <point x="69.72413793103448" y="551.0"/>
      <point x="69.72413793103448" y="431.3103448275862" type="curve"/>
      <point x="69.72413793103448" y="331.37931034482756"/>
      <point x="122.82758620689656" y="280.37931034482756"/>
    </contour>
    <contour>
      <point x="214.51724137931035" y="327.58620689655174" type="curve" smooth="yes"/>
      <point x="179.48275862068965" y="327.58620689655174"/>
      <point x="166.72413793103448" y="363.1034482758621"/>
      <point x="166.72413793103448" y="420.6551724137931" type="curve" smooth="yes"/>
      <point x="166.72413793103448" y="503.0689655172414"/>
      <point x="208.48275862068965" y="676.1724137931035"/>
      <point x="288.7586206896552" y="676.1724137931035" type="curve" smooth="yes"/>
      <point x="324.41379310344826" y="676.1724137931035"/>
      <point x="336.55172413793105" y="641.2758620689655"/>
      <point x="336.55172413793105" y="583.7241379310345" type="curve" smooth="yes"/>
      <point x="336.55172413793105" y="500.6896551724138"/>
      <point x="294.7931034482759" y="327.58620689655174"/>
    </contour>
    <contour>
      <point x="631.4137931034483" y="-9.241379310344827" type="curve" smooth="yes"/>
      <point x="789.1034482758621" y="-9.241379310344827"/>
      <point x="857.8275862068965" y="170.3793103448276"/>
      <point x="857.8275862068965" y="281.2068965517241" type="curve" smooth="yes"/>
      <point x="857.8275862068965" y="370.0"/>
      <point x="815.3448275862069" y="434.0"/>
      <point x="717.3793103448276" y="434.0" type="curve" smooth="yes"/>
      <point x="562.6896551724138" y="434.0"/>
      <point x="494.9655172413793" y="261.37931034482756"/>
      <point x="494.9655172413793" y="141.68965517241378" type="curve"/>
      <point x="494.9655172413793" y="41.758620689655174"/>
      <point x="548.0689655172414" y="-9.241379310344827"/>
    </contour>
    <contour>
      <point x="639.7586206896551" y="37.96551724137931" type="curve" smooth="yes"/>
      <point x="604.7241379310345" y="37.96551724137931"/>
      <point x="591.9655172413793" y="73.48275862068965"/>
      <point x="591.9655172413793" y="131.0344827586207" type="curve" smooth="yes"/>
      <point x="591.9655172413793" y="213.44827586206895"/>
      <point x="633.7241379310345" y="386.55172413793105"/>
      <point x="714.0" y="386.55172413793105" type="curve" smooth="yes"/>
      <point x="749.6551724137931" y="386.55172413793105"/>
      <point x="761.7931034482758" y="351.6551724137931"/>
      <point x="761.7931034482758" y="294.1034482758621" type="curve" smooth="yes"/>
      <point x="761.7931034482758" y="211.06896551724137"/>
      <point x="720.0344827586207" y="37.96551724137931"/>
    </contour>
  </outline>
</glyph>
<glyph name="quotesingle" format="2">
  <advance width="263.44827586206895"/>
  <unicode hex="0027"/>
  <outline>
    <contour>
      <point x="142.51724137931035" y="454.17241379310343" type="line"/>
      <point x="200.93103448275863" y="454.17241379310343" type="line"/>
      <point x="295.82758620689657" y="714.0" type="line"/>
      <point x="158.79310344827587" y="714.0" type="line"/>
    </contour>
  </outline>
</glyph>
<glyph name="parenleft" format="2">
  <advance width="379.51724137931035"/>
  <unicode hex="0028"/>
  <outline>
    <contour>
      <point x="250.6551724137931" y="-134.82758620689654" type="curve"/>
      <point x="262.51724137931035" y="-77.65517241379311" type="line"/>
      <point x="195.6206896551724" y="-29.896551724137932"/>
      <point x="173.24137931034483" y="55.86206896551724"/>
      <point x="173.24137931034483" y="139.0" type="curve" smooth="yes"/>
      <point x="173.24137931034483" y="276.37931034482756"/>
      <point x="223.0" y="597.8965517241379"/>
      <point x="430.8965517241379" y="711.2758620689655" type="curve"/>
      <point x="440.8965517241379" y="767.448275862069" type="line"/>
      <point x="171.55172413793105" y="701.8275862068965"/>
      <point x="42.0" y="432.1034482758621"/>
      <point x="42.0" y="186.0" type="curve" smooth="yes"/>
      <point x="42.0" y="43.89655172413793"/>
      <point x="103.3103448275862" y="-79.58620689655173"/>
    </contour>
  </outline>
</glyph>
<glyph name="parenright" format="2">
  <advance width="379.51724137931035"/>
  <unicode hex="0029"/>
  <outline>
    <contour>
      <point x="-45.89655172413793" y="-137.24137931034483" type="line"/>
      <point x="223.44827586206895" y="-71.62068965517241"/>
      <point x="353.0" y="198.10344827586206"/>
      <point x="353.0" y="444.2068965517241" type="curve" smooth="yes"/>
      <point x="353.0" y="586.3103448275862"/>
      <point x="291.6896551724138" y="709.7931034482758"/>
      <point x="144.3448275862069" y="765.0344827586207" type="curve"/>
      <point x="132.48275862068965" y="707.8620689655172" type="line"/>
      <point x="199.3793103448276" y="660.1034482758621"/>
      <point x="221.75862068965517" y="574.3448275862069"/>
      <point x="221.75862068965517" y="491.2068965517241" type="curve" smooth="yes"/>
      <point x="221.75862068965517" y="353.82758620689657"/>
      <point x="172.0" y="32.310344827586206"/>
      <point x="-35.89655172413793" y="-81.06896551724138" type="curve"/>
    </contour>
  </outline>
</glyph>
<glyph name="asterisk" format="2">
  <advance width="573.2413793103449"/>
  <unicode hex="002A"/>
  <outline>
    <contour>
      <point x="362.0344827586207" y="363.6896551724138" type="line"/>
      <point x="363.6896551724138" y="527.4137931034483" type="line"/>
      <point x="491.3448275862069" y="398.2068965517241" type="line"/>
      <point x="550.6551724137931" y="478.0" type="line"/>
      <point x="402.48275862068965" y="554.1724137931035" type="line"/>
      <point x="568.551724137931" y="562.8275862068965" type="line"/>
      <point x="547.448275862069" y="661.1034482758621" type="line"/>
      <point x="378.3103448275862" y="594.2758620689655" type="line"/>
      <point x="443.8965517241379" y="743.8965517241379" type="line"/>
      <point x="343.37931034482756" y="765.0" type="line"/>
      <point x="339.1034482758621" y="600.8965517241379" type="line"/>
      <point x="213.44827586206895" y="734.1034482758621" type="line"/>
      <point x="153.75862068965517" y="651.6896551724138" type="line"/>
      <point x="301.55172413793105" y="575.7586206896551" type="line"/>
      <point x="135.24137931034483" y="565.4827586206897" type="line"/>
      <point x="156.9655172413793" y="467.82758620689657" type="line"/>
      <point x="325.1034482758621" y="536.2758620689655" type="line"/>
      <point x="262.13793103448273" y="384.7931034482759" type="line"/>
    </contour>
  </outline>
</glyph>
<glyph name="plus" format="2">
  <advance width="559.0"/>
  <unicode hex="002B"/>
  <outline>
    <contour>
      <point x="245.27586206896552" y="143.0" type="line"/>
      <point x="312.7241379310345" y="143.0" type="line"/>
      <point x="312.7241379310345" y="324.2758620689655" type="line"/>
      <point x="494.0" y="324.2758620689655" type="line"/>
      <point x="494.0" y="390.7241379310345" type="line"/>
      <point x="312.7241379310345" y="390.7241379310345" type="line"/>
      <point x="312.7241379310345" y="572.0" type="line"/>
      <point x="245.27586206896552" y="572.0" type="line"/>
      <point x="245.27586206896552" y="390.7241379310345" type="line"/>
      <point x="65.0" y="390.7241379310345" type="line"/>
      <point x="65.0" y="324.2758620689655" type="line"/>
      <point x="245.27586206896552" y="324.2758620689655" type="line"/>
    </contour>
  </outline>
</glyph>
<glyph name="comma" format="2">
  <advance width="283.51724137931035"/>
  <unicode hex="002C"/>
  <outline>
    <contour>
      <point x="-20.551724137931032" y="-149.10344827586206" type="line"/>
      <point x="117.10344827586206" y="-122.24137931034483"/>
      <point x="184.6551724137931" y="-41.89655172413793"/>
      <point x="184.6551724137931" y="55.93103448275862" type="curve" smooth="yes"/>
      <point x="184.6551724137931" y="111.65517241379311"/>
      <point x="146.79310344827587" y="143.51724137931035"/>
      <point x="101.06896551724138" y="143.51724137931035" type="curve" smooth="yes"/>
      <point x="63.3448275862069" y="143.51724137931035"/>
      <point x="31.0" y="119.79310344827586"/>
      <point x="31.0" y="78.3103448275862" type="curve" smooth="yes"/>
      <point x="31.0" y="22.20689655172414"/>
      <point x="90.41379310344827" y="22.82758620689655"/>
      <point x="90.41379310344827" y="-16.896551724137932" type="curve" smooth="yes"/>
      <point x="90.41379310344827" y="-56.275862068965516"/>
      <point x="55.41379310344828" y="-84.65517241379311"/>
      <point x="-12.206896551724137" y="-100.27586206896552" type="curve"/>
    </contour>
  </outline>
</glyph>
<glyph name="hyphen" format="2">
  <advance width="310.0"/>
  <unicode hex="002D"/>
  <outline>
    <contour>
      <point x="11.517241379310345" y="225.68965517241378" type="line"/>
      <point x="271.51724137931035" y="225.68965517241378" type="line"/>
      <point x="291.86206896551727" y="319.3103448275862" type="line"/>
      <point x="31.862068965517242" y="319.3103448275862" type="line"/>
    </contour>
  </outline>
</glyph>
<glyph name="period" format="2">
  <advance width="283.51724137931035"/>
  <unicode hex="002E"/>
  <outline>
    <contour>
      <point x="102.48275862068965" y="-8.0" type="curve" smooth="yes"/>
      <point x="142.58620689655172" y="-8.0"/>
      <point x="183.79310344827587" y="15.758620689655173"/>
      <point x="183.79310344827587" y="81.24137931034483" type="curve" smooth="yes"/>
      <point x="183.79310344827587" y="123.0344827586207"/>
      <point x="153.3448275862069" y="144.51724137931035"/>
      <point x="112.27586206896552" y="144.51724137931035" type="curve" smooth="yes"/>
      <point x="66.86206896551724" y="144.51724137931035"/>
      <point x="30.96551724137931" y="112.6896551724138"/>
      <point x="30.96551724137931" y="56.03448275862069" type="curve" smooth="yes"/>
      <point x="30.96551724137931" y="13.862068965517242"/>
      <point x="60.172413793103445" y="-8.0"/>
    </contour>
  </outline>
</glyph>
<glyph name="slash" format="2">
  <advance width="288.0"/>
  <unicode hex="002F"/>
  <outline>
    <contour>
      <point x="-99.20689655172414" y="-121.0" type="line"/>
      <point x="-26.896551724137932" y="-121.0" type="line"/>
      <point x="393.41379310344826" y="760.0" type="line"/>
      <point x="321.1034482758621" y="760.0" type="line"/>
    </contour>
  </outline>
</glyph>
<glyph name="zero" format="2">
  <advance width="559.0"/>
  <unicode hex="0030"/>
  <outline>
    <contour>
      <point x="240.44827586206895" y="-11.0" type="curve" smooth="yes"/>
      <point x="456.7586206896552" y="-11.0"/>
      <point x="551.1034482758621" y="294.0"/>
      <point x="551.1034482758621" y="496.0" type="curve" smooth="yes"/>
      <point x="551.1034482758621" y="655.0"/>
      <point x="463.37931034482756" y="725.0"/>
      <point x="352.41379310344826" y="725.0" type="curve" smooth="yes"/>
      <point x="136.48275862068965" y="725.0"/>
      <point x="38.13793103448276" y="438.0"/>
      <point x="38.13793103448276" y="231.0" type="curve" smooth="yes"/>
      <point x="38.13793103448276" y="73.0"/>
      <point x="119.86206896551724" y="-11.0"/>
    </contour>
    <contour>
      <point x="247.20689655172413" y="52.06896551724138" type="curve" smooth="yes"/>
      <point x="193.75862068965517" y="52.06896551724138"/>
      <point x="159.9655172413793" y="95.96551724137932"/>
      <point x="159.9655172413793" y="193.31034482758622" type="curve" smooth="yes"/>
      <point x="159.9655172413793" y="365.2068965517241"/>
      <point x="222.6551724137931" y="662.9310344827586"/>
      <point x="345.51724137931035" y="662.9310344827586" type="curve" smooth="yes"/>
      <point x="400.9655172413793" y="662.9310344827586"/>
      <point x="432.37931034482756" y="619.0344827586207"/>
      <point x="432.37931034482756" y="523.6896551724138" type="curve" smooth="yes"/>
      <point x="432.37931034482756" y="352.6551724137931"/>
      <point x="372.9310344827586" y="52.06896551724138"/>
    </contour>
  </outline>
</glyph>
<glyph name="one" format="2">
  <advance width="559.0"/>
  <unicode hex="0031"/>
  <outline>
    <contour>
      <point x="39.241379310344826" y="0.0" type="line"/>
      <point x="436.6896551724138" y="0.0" type="line"/>
      <point x="446.9310344827586" y="48.827586206896555" type="line"/>
      <point x="396.0344827586207" y="48.827586206896555" type="line" smooth="yes"/>
      <point x="353.41379310344826" y="48.827586206896555"/>
      <point x="322.17241379310343" y="53.58620689655172"/>
      <point x="322.17241379310343" y="84.48275862068965" type="curve" smooth="yes"/>
      <point x="322.17241379310343" y="91.72413793103448"/>
      <point x="325.41379310344826" y="108.82758620689656"/>
      <point x="327.41379310344826" y="116.82758620689656" type="curve" smooth="yes"/>
      <point x="455.17241379310343" y="718.0" type="line"/>
      <point x="361.37931034482756" y="718.0" type="line"/>
      <point x="280.37931034482756" y="666.0" type="line" smooth="yes"/>
      <point x="204.3793103448276" y="617.0"/>
      <point x="158.6551724137931" y="601.0"/>
      <point x="112.65517241379311" y="589.0" type="curve"/>
      <point x="112.65517241379311" y="548.0689655172414"/>
      <point x="129.6206896551724" y="522.5862068965517"/>
      <point x="157.6206896551724" y="522.5862068965517" type="curve" smooth="yes"/>
      <point x="200.6206896551724" y="522.5862068965517"/>
      <point x="240.3793103448276" y="561.5862068965517"/>
      <point x="304.8965517241379" y="626.5862068965517" type="curve"/>
      <point x="308.8965517241379" y="626.5862068965517" type="line"/>
      <point x="296.51724137931035" y="578.3103448275862"/>
      <point x="284.7586206896552" y="530.2758620689655"/>
      <point x="274.37931034482756" y="482.0" type="curve" smooth="yes"/>
      <point x="197.0" y="116.48275862068965" type="line" smooth="yes"/>
      <point x="185.86206896551724" y="62.793103448275865"/>
      <point x="152.06896551724137" y="48.827586206896555"/>
      <point x="105.82758620689656" y="48.827586206896555" type="curve" smooth="yes"/>
      <point x="49.10344827586207" y="48.827586206896555" type="line"/>
    </contour>
  </outline>
</glyph>
<glyph name="two" format="2">
  <advance width="559.0"/>
  <unicode hex="0032"/>
  <outline>
    <contour>
      <point x="-15.137931034482758" y="0.0" type="line"/>
      <point x="442.6896551724138" y="0.0" type="line"/>
      <point x="488.2758620689655" y="195.20689655172413" type="line"/>
      <point x="435.7241379310345" y="195.20689655172413" type="line"/>
      <point x="428.7241379310345" y="177.9655172413793" type="line" smooth="yes"/>
      <point x="412.3448275862069" y="138.10344827586206"/>
      <point x="389.48275862068965" y="98.62068965517241"/>
      <point x="326.62068965517244" y="98.62068965517241" type="curve" smooth="yes"/>
      <point x="94.0" y="98.62068965517241" type="line"/>
      <point x="328.3103448275862" y="295.0344827586207" type="line" smooth="yes"/>
      <point x="468.2758620689655" y="412.6896551724138"/>
      <point x="541.2758620689655" y="491.82758620689657"/>
      <point x="541.2758620689655" y="582.3448275862069" type="curve" smooth="yes"/>
      <point x="541.2758620689655" y="669.8620689655172"/>
      <point x="470.44827586206895" y="724.0"/>
      <point x="338.0" y="724.0" type="curve" smooth="yes"/>
      <point x="191.55172413793105" y="724.0"/>
      <point x="110.06896551724138" y="657.2413793103449"/>
      <point x="110.06896551724138" y="582.0344827586207" type="curve" smooth="yes"/>
      <point x="110.06896551724138" y="528.3448275862069"/>
      <point x="151.86206896551724" y="504.37931034482756"/>
      <point x="208.3793103448276" y="504.37931034482756" type="curve"/>
      <point x="217.0344827586207" y="593.6896551724138"/>
      <point x="256.3103448275862" y="666.551724137931"/>
      <point x="329.8965517241379" y="666.551724137931" type="curve" smooth="yes"/>
      <point x="380.2068965517241" y="666.551724137931"/>
      <point x="408.2413793103448" y="626.7931034482758"/>
      <point x="408.2413793103448" y="569.8965517241379" type="curve" smooth="yes"/>
      <point x="408.2413793103448" y="485.13793103448273"/>
      <point x="375.2413793103448" y="414.62068965517244"/>
      <point x="239.6206896551724" y="297.3448275862069" type="curve" smooth="yes"/>
      <point x="5.862068965517242" y="94.65517241379311" type="line"/>
    </contour>
  </outline>
</glyph>
<glyph name="three" format="2">
  <advance width="559.0"/>
  <unicode hex="0033"/>
  <outline>
    <contour>
      <point x="202.79310344827587" y="-10.0" type="curve" smooth="yes"/>
      <point x="333.62068965517244" y="-10.0"/>
      <point x="492.6896551724138" y="48.0"/>
      <point x="492.6896551724138" y="225.0" type="curve" smooth="yes"/>
      <point x="492.6896551724138" y="311.0"/>
      <point x="434.6896551724138" y="363.51724137931035"/>
      <point x="342.6896551724138" y="373.51724137931035" type="curve"/>
      <point x="476.6896551724138" y="397.51724137931035"/>
      <point x="543.6896551724138" y="488.0"/>
      <point x="543.6896551724138" y="581.0" type="curve" smooth="yes"/>
      <point x="543.6896551724138" y="672.0"/>
      <point x="464.7241379310345" y="724.0"/>
      <point x="346.6551724137931" y="724.0" type="curve" smooth="yes"/>
      <point x="215.9655172413793" y="724.0"/>
      <point x="111.13793103448276" y="664.1724137931035"/>
      <point x="111.13793103448276" y="582.1724137931035" type="curve" smooth="yes"/>
      <point x="111.13793103448276" y="533.1724137931035"/>
      <point x="153.68965517241378" y="518.1724137931035"/>
      <point x="209.3448275862069" y="518.1724137931035" type="curve"/>
      <point x="224.48275862068965" y="597.1724137931035"/>
      <point x="254.13793103448276" y="667.1724137931035"/>
      <point x="333.9655172413793" y="667.1724137931035" type="curve" smooth="yes"/>
      <point x="386.13793103448273" y="667.1724137931035"/>
      <point x="409.0344827586207" y="630.4137931034483"/>
      <point x="409.0344827586207" y="579.2758620689655" type="curve" smooth="yes"/>
      <point x="409.0344827586207" y="470.62068965517244"/>
      <point x="326.0344827586207" y="398.1034482758621"/>
      <point x="214.0344827586207" y="398.1034482758621" type="curve" smooth="yes"/>
      <point x="182.0344827586207" y="398.1034482758621" type="line"/>
      <point x="172.0344827586207" y="340.2758620689655" type="line"/>
      <point x="215.0344827586207" y="340.2758620689655" type="line" smooth="yes"/>
      <point x="304.0344827586207" y="340.2758620689655"/>
      <point x="356.0344827586207" y="294.7586206896552"/>
      <point x="356.0344827586207" y="216.48275862068965" type="curve" smooth="yes"/>
      <point x="356.0344827586207" y="109.44827586206897"/>
      <point x="288.86206896551727" y="54.93103448275862"/>
      <point x="213.51724137931035" y="54.93103448275862" type="curve" smooth="yes"/>
      <point x="130.9655172413793" y="54.93103448275862"/>
      <point x="95.34482758620689" y="114.20689655172414"/>
      <point x="95.34482758620689" y="185.75862068965517" type="curve"/>
      <point x="36.58620689655172" y="185.75862068965517"/>
      <point x="-1.7586206896551724" y="155.0344827586207"/>
      <point x="-1.7586206896551724" y="104.93103448275862" type="curve" smooth="yes"/>
      <point x="-1.7586206896551724" y="49.310344827586206"/>
      <point x="51.724137931034484" y="-10.0"/>
    </contour>
  </outline>
</glyph>
<glyph name="four" format="2">
  <advance width="559.0"/>
  <unicode hex="0034"/>
  <outline>
    <contour>
      <point x="128.6206896551724" y="0.0" type="line"/>
      <point x="470.51724137931035" y="0.0" type="line"/>
      <point x="480.7586206896552" y="48.827586206896555" type="line"/>
      <point x="460.86206896551727" y="48.827586206896555" type="line" smooth="yes"/>
      <point x="420.1034482758621" y="48.827586206896555"/>
      <point x="392.58620689655174" y="54.827586206896555"/>
      <point x="392.58620689655174" y="88.82758620689656" type="curve" smooth="yes"/>
      <point x="392.58620689655174" y="94.82758620689656"/>
      <point x="394.58620689655174" y="110.6896551724138"/>
      <point x="396.58620689655174" y="118.6896551724138" type="curve" smooth="yes"/>
      <point x="523.3448275862069" y="714.0" type="line"/>
      <point x="400.0344827586207" y="714.0" type="line"/>
      <point x="6.793103448275863" y="243.82758620689654" type="line"/>
      <point x="-5.310344827586206" y="189.79310344827587" type="line"/>
      <point x="522.6896551724138" y="189.79310344827587" type="line"/>
      <point x="535.9310344827586" y="252.0" type="line"/>
      <point x="46.41379310344828" y="252.0" type="line"/>
      <point x="62.03448275862069" y="221.9655172413793" type="line"/>
      <point x="283.0344827586207" y="487.58620689655174" type="line" smooth="yes"/>
      <point x="309.0" y="518.4137931034483"/>
      <point x="357.1034482758621" y="583.4827586206897"/>
      <point x="383.44827586206895" y="624.3103448275862" type="curve"/>
      <point x="364.44827586206895" y="562.3103448275862"/>
      <point x="346.44827586206895" y="486.44827586206895"/>
      <point x="335.0689655172414" y="431.55172413793105" type="curve" smooth="yes"/>
      <point x="269.9310344827586" y="120.82758620689656" type="line" smooth="yes"/>
      <point x="256.3103448275862" y="54.724137931034484"/>
      <point x="213.82758620689654" y="48.827586206896555"/>
      <point x="172.55172413793105" y="48.827586206896555" type="curve" smooth="yes"/>
      <point x="137.86206896551724" y="48.827586206896555" type="line"/>
    </contour>
  </outline>
</glyph>
<glyph name="five" format="2">
  <advance width="559.0"/>
  <unicode hex="0035"/>
  <outline>
    <contour>
      <point x="192.93103448275863" y="-10.0" type="curve" smooth="yes"/>
      <point x="378.62068965517244" y="-10.0"/>
      <point x="490.58620689655174" y="100.24137931034483"/>
      <point x="490.58620689655174" y="245.48275862068965" type="curve" smooth="yes"/>
      <point x="490.58620689655174" y="365.7241379310345"/>
      <point x="404.2413793103448" y="431.3448275862069"/>
      <point x="270.0344827586207" y="431.3448275862069" type="curve" smooth="yes"/>
      <point x="222.55172413793105" y="431.3448275862069"/>
      <point x="192.31034482758622" y="422.3448275862069"/>
      <point x="169.06896551724137" y="415.3448275862069" type="curve"/>
      <point x="229.48275862068965" y="616.0" type="line"/>
      <point x="429.0689655172414" y="616.0" type="line" smooth="yes"/>
      <point x="466.3103448275862" y="616.0"/>
      <point x="476.9310344827586" y="606.0"/>
      <point x="476.9310344827586" y="591.3793103448276" type="curve" smooth="yes"/>
      <point x="476.9310344827586" y="583.3793103448276"/>
      <point x="474.9310344827586" y="560.7586206896551"/>
      <point x="473.9310344827586" y="543.7586206896551" type="curve"/>
      <point x="527.7241379310345" y="543.7586206896551" type="line"/>
      <point x="555.9655172413793" y="714.0" type="line"/>
      <point x="194.6551724137931" y="714.0" type="line"/>
      <point x="90.75862068965517" y="363.2068965517241" type="line"/>
      <point x="129.72413793103448" y="347.51724137931035" type="line"/>
      <point x="156.48275862068965" y="358.51724137931035"/>
      <point x="185.86206896551724" y="369.51724137931035"/>
      <point x="235.0" y="369.51724137931035" type="curve" smooth="yes"/>
      <point x="305.51724137931035" y="369.51724137931035"/>
      <point x="358.6551724137931" y="326.37931034482756"/>
      <point x="358.6551724137931" y="238.48275862068965" type="curve" smooth="yes"/>
      <point x="358.6551724137931" y="115.82758620689656"/>
      <point x="297.1034482758621" y="54.310344827586206"/>
      <point x="204.41379310344828" y="54.310344827586206" type="curve" smooth="yes"/>
      <point x="117.17241379310344" y="54.310344827586206"/>
      <point x="96.41379310344827" y="119.0"/>
      <point x="95.41379310344827" y="173.72413793103448" type="curve"/>
      <point x="35.96551724137931" y="173.72413793103448"/>
      <point x="9.241379310344827" y="141.89655172413794"/>
      <point x="9.241379310344827" y="100.55172413793103" type="curve" smooth="yes"/>
      <point x="9.241379310344827" y="39.96551724137931"/>
      <point x="57.724137931034484" y="-10.0"/>
    </contour>
  </outline>
</glyph>
<glyph name="six" format="2">
  <advance width="559.0"/>
  <unicode hex="0036"/>
  <outline>
    <contour>
      <point x="254.82758620689654" y="-10.0" type="curve" smooth="yes"/>
      <point x="430.37931034482756" y="-10.0"/>
      <point x="514.3448275862069" y="120.62068965517241"/>
      <point x="514.3448275862069" y="260.2413793103448" type="curve" smooth="yes"/>
      <point x="514.3448275862069" y="355.86206896551727"/>
      <point x="461.3448275862069" y="436.48275862068965"/>
      <point x="345.3448275862069" y="436.48275862068965" type="curve" smooth="yes"/>
      <point x="278.86206896551727" y="436.48275862068965"/>
      <point x="228.9655172413793" y="407.9655172413793"/>
      <point x="198.9655172413793" y="385.7241379310345" type="curve"/>
      <point x="242.6206896551724" y="574.3793103448276"/>
      <point x="311.7931034482759" y="669.1724137931035"/>
      <point x="403.1034482758621" y="669.1724137931035" type="curve" smooth="yes"/>
      <point x="459.13793103448273" y="669.1724137931035"/>
      <point x="465.51724137931035" y="607.448275862069"/>
      <point x="465.51724137931035" y="544.7241379310345" type="curve"/>
      <point x="535.4137931034483" y="544.7241379310345"/>
      <point x="576.1034482758621" y="575.2068965517242"/>
      <point x="576.1034482758621" y="625.9310344827586" type="curve" smooth="yes"/>
      <point x="576.1034482758621" y="678.2758620689655"/>
      <point x="521.0" y="724.0"/>
      <point x="415.0344827586207" y="724.0" type="curve" smooth="yes"/>
      <point x="191.24137931034483" y="724.0"/>
      <point x="54.41379310344828" y="481.0"/>
      <point x="54.41379310344828" y="232.0" type="curve" smooth="yes"/>
      <point x="54.41379310344828" y="70.0"/>
      <point x="144.0" y="-10.0"/>
    </contour>
    <contour>
      <point x="265.7931034482759" y="51.206896551724135" type="curve" smooth="yes"/>
      <point x="209.6206896551724" y="51.206896551724135"/>
      <point x="173.9655172413793" y="95.96551724137932"/>
      <point x="173.9655172413793" y="198.10344827586206" type="curve" smooth="yes"/>
      <point x="173.9655172413793" y="234.86206896551724"/>
      <point x="178.3448275862069" y="275.2413793103448"/>
      <point x="186.72413793103448" y="325.0" type="curve"/>
      <point x="216.0" y="351.13793103448273"/>
      <point x="262.7931034482759" y="379.2758620689655"/>
      <point x="309.2068965517241" y="379.2758620689655" type="curve" smooth="yes"/>
      <point x="362.0" y="379.2758620689655"/>
      <point x="389.2758620689655" y="334.51724137931035"/>
      <point x="389.2758620689655" y="253.0" type="curve" smooth="yes"/>
      <point x="389.2758620689655" y="138.72413793103448"/>
      <point x="339.48275862068965" y="51.206896551724135"/>
    </contour>
  </outline>
</glyph>
<glyph name="seven" format="2">
  <advance width="559.0"/>
  <unicode hex="0037"/>
  <outline>
    <contour>
      <point x="105.51724137931035" y="0.0" type="line"/>
      <point x="186.72413793103448" y="0.0" type="line"/>
      <point x="593.2413793103449" y="666.3793103448276" type="line"/>
      <point x="602.3448275862069" y="714.0" type="line"/>
      <point x="136.72413793103448" y="714.0" type="line"/>
      <point x="94.96551724137932" y="515.0" type="line"/>
      <point x="148.75862068965517" y="515.0" type="line"/>
      <point x="162.75862068965517" y="565.0" type="line" smooth="yes"/>
      <point x="171.75862068965517" y="598.0"/>
      <point x="195.75862068965517" y="616.0"/>
      <point x="231.75862068965517" y="616.0" type="curve" smooth="yes"/>
      <point x="491.0344827586207" y="616.0" type="line"/>
    </contour>
  </outline>
</glyph>
<glyph name="eight" format="2">
  <advance width="559.0"/>
  <unicode hex="0038"/>
  <outline>
    <contour>
      <point x="241.31034482758622" y="-10.0" type="curve" smooth="yes"/>
      <point x="393.7241379310345" y="-10.0"/>
      <point x="507.1034482758621" y="56.0"/>
      <point x="507.1034482758621" y="202.0" type="curve" smooth="yes"/>
      <point x="507.1034482758621" y="283.0"/>
      <point x="455.1034482758621" y="338.2413793103448"/>
      <point x="383.82758620689657" y="382.2413793103448" type="curve"/>
      <point x="485.48275862068965" y="426.2413793103448"/>
      <point x="554.1034482758621" y="477.0"/>
      <point x="554.1034482758621" y="578.0" type="curve" smooth="yes"/>
      <point x="554.1034482758621" y="662.0"/>
      <point x="483.13793103448273" y="724.0"/>
      <point x="360.17241379310343" y="724.0" type="curve" smooth="yes"/>
      <point x="182.72413793103448" y="724.0"/>
      <point x="112.48275862068965" y="639.0"/>
      <point x="112.48275862068965" y="535.9655172413793" type="curve" smooth="yes"/>
      <point x="112.48275862068965" y="468.0"/>
      <point x="150.72413793103448" y="406.13793103448273"/>
      <point x="209.24137931034483" y="363.13793103448273" type="curve"/>
      <point x="95.72413793103448" y="320.13793103448273"/>
      <point x="11.862068965517242" y="274.0"/>
      <point x="11.862068965517242" y="162.0" type="curve" smooth="yes"/>
      <point x="11.862068965517242" y="62.0"/>
      <point x="100.93103448275862" y="-10.0"/>
    </contour>
    <contour>
      <point x="247.41379310344828" y="44.58620689655172" type="curve" smooth="yes"/>
      <point x="175.10344827586206" y="44.58620689655172"/>
      <point x="132.0689655172414" y="88.48275862068965"/>
      <point x="132.0689655172414" y="158.75862068965517" type="curve" smooth="yes"/>
      <point x="132.0689655172414" y="244.17241379310346"/>
      <point x="182.24137931034483" y="297.55172413793105"/>
      <point x="263.9310344827586" y="329.6896551724138" type="curve"/>
      <point x="345.0" y="286.17241379310343"/>
      <point x="386.6551724137931" y="243.17241379310346"/>
      <point x="386.6551724137931" y="175.51724137931035" type="curve" smooth="yes"/>
      <point x="386.6551724137931" y="88.10344827586206"/>
      <point x="323.1034482758621" y="44.58620689655172"/>
    </contour>
    <contour>
      <point x="327.13793103448273" y="410.58620689655174" type="curve"/>
      <point x="265.44827586206895" y="446.1034482758621"/>
      <point x="234.55172413793105" y="489.3448275862069"/>
      <point x="234.55172413793105" y="543.2413793103449" type="curve" smooth="yes"/>
      <point x="234.55172413793105" y="620.5172413793103"/>
      <point x="284.82758620689657" y="669.0344827586207"/>
      <point x="354.0344827586207" y="669.0344827586207" type="curve" smooth="yes"/>
      <point x="414.1034482758621" y="669.0344827586207"/>
      <point x="442.13793103448273" y="626.8965517241379"/>
      <point x="442.13793103448273" y="571.0" type="curve" smooth="yes"/>
      <point x="442.13793103448273" y="504.7241379310345"/>
      <point x="412.86206896551727" y="451.7241379310345"/>
    </contour>
  </outline>
</glyph>
<glyph name="nine" format="2">
  <advance width="559.0"/>
  <unicode hex="0039"/>
  <outline>
    <contour>
      <point x="178.10344827586206" y="-10.0" type="curve" smooth="yes"/>
      <point x="445.2758620689655" y="-10.0"/>
      <point x="542.3448275862069" y="336.41379310344826"/>
      <point x="542.3448275862069" y="527.0" type="curve" smooth="yes"/>
      <point x="542.3448275862069" y="653.0"/>
      <point x="468.2413793103448" y="724.0"/>
      <point x="351.2758620689655" y="724.0" type="curve" smooth="yes"/>
      <point x="202.68965517241378" y="724.0"/>
      <point x="76.10344827586206" y="608.0"/>
      <point x="76.10344827586206" y="441.0" type="curve" smooth="yes"/>
      <point x="76.10344827586206" y="344.0"/>
      <point x="136.48275862068965" y="275.0"/>
      <point x="243.86206896551724" y="275.0" type="curve" smooth="yes"/>
      <point x="313.2413793103448" y="275.0"/>
      <point x="361.62068965517244" y="308.0"/>
      <point x="395.62068965517244" y="343.0" type="curve"/>
      <point x="343.86206896551727" y="152.9655172413793"/>
      <point x="287.1034482758621" y="47.689655172413794"/>
      <point x="187.9655172413793" y="47.689655172413794" type="curve" smooth="yes"/>
      <point x="126.82758620689656" y="47.689655172413794"/>
      <point x="102.44827586206897" y="103.79310344827586"/>
      <point x="101.44827586206897" y="152.89655172413794" type="curve"/>
      <point x="57.0" y="152.89655172413794"/>
      <point x="30.655172413793103" y="127.89655172413794"/>
      <point x="30.655172413793103" y="88.06896551724138" type="curve" smooth="yes"/>
      <point x="30.655172413793103" y="36.62068965517241"/>
      <point x="70.72413793103448" y="-10.0"/>
    </contour>
    <contour>
      <point x="285.0" y="340.55172413793105" type="curve" smooth="yes"/>
      <point x="235.44827586206895" y="340.55172413793105"/>
      <point x="203.41379310344828" y="375.6896551724138"/>
      <point x="203.41379310344828" y="442.9655172413793" type="curve" smooth="yes"/>
      <point x="203.41379310344828" y="549.7586206896551"/>
      <point x="262.3448275862069" y="661.551724137931"/>
      <point x="344.55172413793105" y="661.551724137931" type="curve" smooth="yes"/>
      <point x="391.7241379310345" y="661.551724137931"/>
      <point x="425.7586206896552" y="624.4137931034483"/>
      <point x="425.7586206896552" y="533.0" type="curve" smooth="yes"/>
      <point x="425.7586206896552" y="505.2413793103448"/>
      <point x="418.7586206896552" y="454.3448275862069"/>
      <point x="410.37931034482756" y="421.2068965517241" type="curve"/>
      <point x="384.1034482758621" y="382.0689655172414"/>
      <point x="341.9310344827586" y="340.55172413793105"/>
    </contour>
  </outline>
</glyph>
<glyph name="colon" format="2">
  <advance width="330.6896551724138"/>
  <unicode hex="003A"/>
  <outline>
    <contour>
      <point x="199.72413793103448" y="388.1034482758621" type="curve" smooth="yes"/>
      <point x="239.82758620689654" y="388.1034482758621"/>
      <point x="281.0344827586207" y="411.86206896551727"/>
      <point x="281.0344827586207" y="475.82758620689657" type="curve" smooth="yes"/>
      <point x="281.0344827586207" y="519.1379310344828"/>
      <point x="250.58620689655172" y="540.6206896551724"/>
      <point x="209.51724137931035" y="540.6206896551724" type="curve" smooth="yes"/>
      <point x="164.10344827586206" y="540.6206896551724"/>
      <point x="128.20689655172413" y="508.7931034482759"/>
      <point x="128.20689655172413" y="453.6551724137931" type="curve" smooth="yes"/>
      <point x="128.20689655172413" y="409.9655172413793"/>
      <point x="157.41379310344828" y="388.1034482758621"/>
    </contour>
    <contour>
      <point x="110.9655172413793" y="-8.0" type="curve" smooth="yes"/>
      <point x="151.0689655172414" y="-8.0"/>
      <point x="192.27586206896552" y="15.758620689655173"/>
      <point x="192.27586206896552" y="79.72413793103448" type="curve" smooth="yes"/>
      <point x="192.27586206896552" y="123.0344827586207"/>
      <point x="161.82758620689654" y="144.51724137931035"/>
      <point x="120.75862068965517" y="144.51724137931035" type="curve" smooth="yes"/>
      <point x="75.34482758620689" y="144.51724137931035"/>
      <point x="39.44827586206897" y="112.6896551724138"/>
      <point x="39.44827586206897" y="57.55172413793103" type="curve" smooth="yes"/>
      <point x="39.44827586206897" y="13.862068965517242"/>
      <point x="68.65517241379311" y="-8.0"/>
    </contour>
  </outline>
</glyph>
<glyph name="semicolon" format="2">
  <advance width="330.6896551724138"/>
  <unicode hex="003B"/>
  <outline>
    <contour>
      <point x="-9.862068965517242" y="-149.10344827586206" type="line"/>
      <point x="127.79310344827586" y="-122.24137931034483"/>
      <point x="195.3448275862069" y="-41.89655172413793"/>
      <point x="195.3448275862069" y="55.93103448275862" type="curve" smooth="yes"/>
      <point x="195.3448275862069" y="111.65517241379311"/>
      <point x="157.48275862068965" y="143.51724137931035"/>
      <point x="111.75862068965517" y="143.51724137931035" type="curve" smooth="yes"/>
      <point x="74.0344827586207" y="143.51724137931035"/>
      <point x="41.689655172413794" y="119.79310344827586"/>
      <point x="41.689655172413794" y="78.3103448275862" type="curve" smooth="yes"/>
      <point x="41.689655172413794" y="22.20689655172414"/>
      <point x="101.10344827586206" y="22.82758620689655"/>
      <point x="101.10344827586206" y="-16.896551724137932" type="curve" smooth="yes"/>
      <point x="101.10344827586206" y="-56.275862068965516"/>
      <point x="66.10344827586206" y="-84.65517241379311"/>
      <point x="-1.5172413793103448" y="-100.27586206896552" type="curve"/>
    </contour>
    <contour>
      <point x="199.72413793103448" y="388.1034482758621" type="curve" smooth="yes"/>
      <point x="239.82758620689654" y="388.1034482758621"/>
      <point x="281.0344827586207" y="411.86206896551727"/>
      <point x="281.0344827586207" y="475.82758620689657" type="curve" smooth="yes"/>
      <point x="281.0344827586207" y="519.1379310344828"/>
      <point x="250.58620689655172" y="540.6206896551724"/>
      <point x="209.51724137931035" y="540.6206896551724" type="curve" smooth="yes"/>
      <point x="164.10344827586206" y="540.6206896551724"/>
      <point x="128.20689655172413" y="508.7931034482759"/>
      <point x="128.20689655172413" y="453.6551724137931" type="curve" smooth="yes"/>
      <point x="128.20689655172413" y="409.9655172413793"/>
      <point x="157.41379310344828" y="388.1034482758621"/>
    </contour>
  </outline>
</glyph>
<glyph name="equal" format="2">
  <advance width="559.0"/>
  <unicode hex="003D"/>
  <outline>
    <contour>
      <point x="63.758620689655174" y="421.6551724137931" type="line"/>
      <point x="495.2413793103448" y="421.6551724137931" type="line"/>
      <point x="495.2413793103448" y="487.48275862068965" type="line"/>
      <point x="63.758620689655174" y="487.48275862068965" type="line"/>
    </contour>
    <contour>
      <point x="63.758620689655174" y="226.51724137931035" type="line"/>
      <point x="495.2413793103448" y="226.51724137931035" type="line"/>
      <point x="495.2413793103448" y="292.3448275862069" type="line"/>
      <point x="63.758620689655174" y="292.3448275862069" type="line"/>
    </contour>
  </outline>
</glyph>
<glyph name="question" format="2">
  <advance width="521.7241379310345"/>
  <unicode hex="003F"/>
  <outline>
    <contour>
      <point x="196.72413793103448" y="217.75862068965517" type="line"/>
      <point x="258.55172413793105" y="217.75862068965517" type="line"/>
      <point x="290.2758620689655" y="317.0" type="line"/>
      <point x="431.51724137931035" y="368.0"/>
      <point x="538.1379310344828" y="442.0"/>
      <point x="538.1379310344828" y="558.0" type="curve" smooth="yes"/>
      <point x="538.1379310344828" y="673.0"/>
      <point x="458.9310344827586" y="724.0"/>
      <point x="332.37931034482756" y="724.0" type="curve" smooth="yes"/>
      <point x="196.06896551724137" y="724.0"/>
      <point x="112.37931034482759" y="664.4827586206897"/>
      <point x="112.37931034482759" y="593.2413793103449" type="curve" smooth="yes"/>
      <point x="112.37931034482759" y="547.1724137931035"/>
      <point x="147.31034482758622" y="522.6896551724138"/>
      <point x="216.0344827586207" y="522.6896551724138" type="curve"/>
      <point x="226.17241379310346" y="598.6896551724138"/>
      <point x="251.68965517241378" y="667.1724137931035"/>
      <point x="322.6551724137931" y="667.1724137931035" type="curve" smooth="yes"/>
      <point x="369.3448275862069" y="667.1724137931035"/>
      <point x="404.13793103448273" y="629.4137931034483"/>
      <point x="404.13793103448273" y="562.2758620689655" type="curve" smooth="yes"/>
      <point x="404.13793103448273" y="454.41379310344826"/>
      <point x="325.62068965517244" y="394.62068965517244"/>
      <point x="206.10344827586206" y="350.86206896551727" type="curve"/>
    </contour>
    <contour>
      <point x="201.31034482758622" y="-8.0" type="curve" smooth="yes"/>
      <point x="241.41379310344828" y="-8.0"/>
      <point x="282.62068965517244" y="15.758620689655173"/>
      <point x="282.62068965517244" y="79.72413793103448" type="curve" smooth="yes"/>
      <point x="282.62068965517244" y="123.0344827586207"/>
      <point x="252.17241379310346" y="144.51724137931035"/>
      <point x="211.10344827586206" y="144.51724137931035" type="curve" smooth="yes"/>
      <point x="165.68965517241378" y="144.51724137931035"/>
      <point x="129.79310344827587" y="112.6896551724138"/>
      <point x="129.79310344827587" y="57.55172413793103" type="curve" smooth="yes"/>
      <point x="129.79310344827587" y="13.862068965517242"/>
      <point x="159.0" y="-8.0"/>
    </contour>
  </outline>
</glyph>
<glyph name="bracketleft" format="2">
  <advance width="393.51724137931035"/>
  <unicode hex="005B"/>
  <outline>
    <contour>
      <point x="14.931034482758621" y="-128.0" type="line"/>
      <point x="271.44827586206895" y="-128.0" type="line"/>
      <point x="281.6896551724138" y="-79.17241379310344" type="line"/>
      <point x="238.68965517241378" y="-79.17241379310344" type="line" smooth="yes"/>
      <point x="199.17241379310346" y="-79.17241379310344"/>
      <point x="168.55172413793105" y="-73.17241379310344"/>
      <point x="168.55172413793105" y="-34.827586206896555" type="curve" smooth="yes"/>
      <point x="168.55172413793105" y="-28.206896551724135"/>
      <point x="169.9310344827586" y="-17.93103448275862"/>
      <point x="171.9310344827586" y="-8.689655172413794" type="curve"/>
      <point x="309.58620689655174" y="639.1724137931035" type="line"/>
      <point x="322.58620689655174" y="702.1724137931035"/>
      <point x="362.82758620689657" y="711.1724137931035"/>
      <point x="407.2068965517241" y="711.1724137931035" type="curve" smooth="yes"/>
      <point x="450.2068965517241" y="711.1724137931035" type="line"/>
      <point x="460.44827586206895" y="760.0" type="line"/>
      <point x="203.93103448275863" y="760.0" type="line"/>
    </contour>
  </outline>
</glyph>
<glyph name="backslash" format="2">
  <advance width="288.0"/>
  <unicode hex="005C"/>
  <outline>
    <contour>
      <point x="159.3448275862069" y="-121.0" type="line"/>
      <point x="225.17241379310346" y="-121.0" type="line"/>
      <point x="175.3448275862069" y="760.0" type="line"/>
      <point x="109.89655172413794" y="760.0" type="line"/>
    </contour>
  </outline>
</glyph>
<glyph name="bracketright" format="2">
  <advance width="393.51724137931035"/>
  <unicode hex="005D"/>
  <outline>
    <contour>
      <point x="-50.724137931034484" y="-128.0" type="line"/>
      <point x="204.79310344827587" y="-128.0" type="line"/>
      <point x="393.7931034482759" y="760.0" type="line"/>
      <point x="137.27586206896552" y="760.0" type="line"/>
      <point x="127.03448275862068" y="711.1724137931035" type="line"/>
      <point x="170.0344827586207" y="711.1724137931035" type="line" smooth="yes"/>
      <point x="209.55172413793105" y="711.1724137931035"/>
      <point x="240.17241379310346" y="705.1724137931035"/>
      <point x="240.17241379310346" y="666.8275862068965" type="curve" smooth="yes"/>
      <point x="240.17241379310346" y="660.2068965517242"/>
      <point x="238.79310344827587" y="649.9310344827586"/>
      <point x="236.79310344827587" y="640.6896551724138" type="curve" smooth="yes"/>
      <point x="99.13793103448276" y="-7.172413793103448" type="line"/>
      <point x="86.13793103448276" y="-70.17241379310344"/>
      <point x="46.51724137931034" y="-79.17241379310344"/>
      <point x="2.5172413793103448" y="-79.17241379310344" type="curve" smooth="yes"/>
      <point x="-40.48275862068966" y="-79.17241379310344" type="line"/>
    </contour>
  </outline>
</glyph>
<glyph name="braceleft" format="2">
  <advance width="436.6896551724138"/>
  <unicode hex="007B"/>
  <outline>
    <contour>
      <point x="235.72413793103448" y="-126.13793103448276" type="curve" smooth="yes"/>
      <point x="319.7241379310345" y="-126.13793103448276" type="line"/>
      <point x="330.58620689655174" y="-76.93103448275862" type="line"/>
      <point x="295.0" y="-76.93103448275862" type="line" smooth="yes"/>
      <point x="252.48275862068965" y="-76.93103448275862"/>
      <point x="235.58620689655172" y="-56.793103448275865"/>
      <point x="235.58620689655172" y="-20.137931034482758" type="curve" smooth="yes"/>
      <point x="235.58620689655172" y="-7.517241379310345"/>
      <point x="236.9655172413793" y="7.103448275862069"/>
      <point x="240.58620689655172" y="23.724137931034484" type="curve" smooth="yes"/>
      <point x="277.58620689655174" y="195.10344827586206" type="line" smooth="yes"/>
      <point x="279.58620689655174" y="205.48275862068965"/>
      <point x="280.9655172413793" y="214.86206896551724"/>
      <point x="280.9655172413793" y="224.24137931034483" type="curve" smooth="yes"/>
      <point x="280.9655172413793" y="269.7586206896552"/>
      <point x="252.20689655172413" y="300.8965517241379"/>
      <point x="192.58620689655172" y="314.62068965517244" type="curve"/>
      <point x="193.82758620689654" y="321.1034482758621" type="line"/>
      <point x="274.0689655172414" y="337.2068965517241"/>
      <point x="315.58620689655174" y="377.7241379310345"/>
      <point x="328.9655172413793" y="440.0" type="curve" smooth="yes"/>
      <point x="365.9655172413793" y="610.7586206896551" type="line" smooth="yes"/>
      <point x="380.3448275862069" y="675.6551724137931"/>
      <point x="404.51724137931035" y="710.7931034482758"/>
      <point x="462.2758620689655" y="710.7931034482758" type="curve" smooth="yes"/>
      <point x="497.86206896551727" y="710.7931034482758" type="line"/>
      <point x="508.1034482758621" y="760.0" type="line"/>
      <point x="424.1034482758621" y="760.0" type="line" smooth="yes"/>
      <point x="296.48275862068965" y="760.0"/>
      <point x="252.58620689655172" y="710.2068965517242"/>
      <point x="232.3448275862069" y="614.7586206896551" type="curve" smooth="yes"/>
      <point x="195.9655172413793" y="442.37931034482756" type="line" smooth="yes"/>
      <point x="179.20689655172413" y="364.7241379310345"/>
      <point x="124.44827586206897" y="347.2068965517241"/>
      <point x="58.44827586206897" y="344.82758620689657" type="curve"/>
      <point x="46.96551724137931" y="291.0344827586207" type="line"/>
      <point x="102.9655172413793" y="289.0344827586207"/>
      <point x="145.9655172413793" y="275.13793103448273"/>
      <point x="145.9655172413793" y="221.3793103448276" type="curve" smooth="yes"/>
      <point x="145.9655172413793" y="212.6206896551724"/>
      <point x="144.9655172413793" y="203.24137931034483"/>
      <point x="142.58620689655172" y="192.48275862068965" type="curve" smooth="yes"/>
      <point x="109.93103448275862" y="39.20689655172414" type="line" smooth="yes"/>
      <point x="103.20689655172414" y="6.206896551724138"/>
      <point x="101.82758620689656" y="-7.793103448275862"/>
      <point x="101.82758620689656" y="-20.17241379310345" type="curve" smooth="yes"/>
      <point x="101.82758620689656" y="-87.03448275862068"/>
      <point x="147.17241379310346" y="-126.13793103448276"/>
    </contour>
  </outline>
</glyph>
<glyph name="braceright" format="2">
  <advance width="436.6896551724138"/>
  <unicode hex="007D"/>
  <outline>
    <contour>
      <point x="-52.48275862068966" y="-125.51724137931035" type="line"/>
      <point x="31.517241379310345" y="-125.51724137931035" type="line" smooth="yes"/>
      <point x="159.13793103448276" y="-125.51724137931035"/>
      <point x="203.0344827586207" y="-75.72413793103448"/>
      <point x="223.27586206896552" y="19.724137931034484" type="curve" smooth="yes"/>
      <point x="259.6551724137931" y="192.48275862068965" type="line" smooth="yes"/>
      <point x="276.0344827586207" y="270.13793103448273"/>
      <point x="331.17241379310343" y="288.0344827586207"/>
      <point x="397.17241379310343" y="290.41379310344826" type="curve"/>
      <point x="408.6551724137931" y="344.2068965517241" type="line"/>
      <point x="352.6551724137931" y="346.2068965517241"/>
      <point x="309.6551724137931" y="359.7241379310345"/>
      <point x="309.6551724137931" y="413.48275862068965" type="curve" smooth="yes"/>
      <point x="309.6551724137931" y="422.2413793103448"/>
      <point x="310.6551724137931" y="431.62068965517244"/>
      <point x="313.0344827586207" y="442.37931034482756" type="curve" smooth="yes"/>
      <point x="345.6896551724138" y="595.2758620689655" type="line" smooth="yes"/>
      <point x="352.41379310344826" y="628.2758620689655"/>
      <point x="353.7931034482759" y="642.2758620689655"/>
      <point x="353.7931034482759" y="654.6551724137931" type="curve" smooth="yes"/>
      <point x="353.7931034482759" y="721.5172413793103"/>
      <point x="308.44827586206895" y="760.6206896551724"/>
      <point x="219.89655172413794" y="760.6206896551724" type="curve" smooth="yes"/>
      <point x="135.89655172413794" y="760.6206896551724" type="line"/>
      <point x="125.03448275862068" y="711.4137931034483" type="line"/>
      <point x="160.6206896551724" y="711.4137931034483" type="line" smooth="yes"/>
      <point x="203.13793103448276" y="711.4137931034483"/>
      <point x="220.0344827586207" y="691.2758620689655"/>
      <point x="220.0344827586207" y="654.6206896551724" type="curve" smooth="yes"/>
      <point x="220.0344827586207" y="642.0"/>
      <point x="218.6551724137931" y="627.3793103448276"/>
      <point x="215.0344827586207" y="610.7586206896551" type="curve" smooth="yes"/>
      <point x="178.0344827586207" y="439.7586206896552" type="line" smooth="yes"/>
      <point x="176.0344827586207" y="429.37931034482756"/>
      <point x="174.6551724137931" y="420.0"/>
      <point x="174.6551724137931" y="410.62068965517244" type="curve" smooth="yes"/>
      <point x="174.6551724137931" y="365.1034482758621"/>
      <point x="203.41379310344828" y="334.3448275862069"/>
      <point x="263.0344827586207" y="320.62068965517244" type="curve"/>
      <point x="261.7931034482759" y="314.13793103448273" type="line"/>
      <point x="181.55172413793105" y="298.0344827586207"/>
      <point x="140.0344827586207" y="257.13793103448273"/>
      <point x="126.65517241379311" y="194.86206896551724" type="curve" smooth="yes"/>
      <point x="89.65517241379311" y="23.724137931034484" type="line" smooth="yes"/>
      <point x="75.27586206896552" y="-41.172413793103445"/>
      <point x="51.10344827586207" y="-76.3103448275862"/>
      <point x="-6.655172413793103" y="-76.3103448275862" type="curve" smooth="yes"/>
      <point x="-42.241379310344826" y="-76.3103448275862" type="line"/>
    </contour>
  </outline>
</glyph>
<glyph name="asciitilde" format="2">
  <advance width="559.0"/>
  <unicode hex="007E"/>
  <outline>
    <contour>
      <point x="49.03448275862069" y="264.6551724137931" type="curve"/>
      <point x="116.72413793103448" y="264.6551724137931" type="line"/>
      <point x="120.0" y="344.51724137931035"/>
      <point x="138.86206896551724" y="380.6551724137931"/>
      <point x="178.48275862068965" y="380.6551724137931" type="curve" smooth="yes"/>
      <point x="202.6551724137931" y="380.6551724137931"/>
      <point x="217.9655172413793" y="366.3448275862069"/>
      <point x="258.2758620689655" y="328.8965517241379" type="curve" smooth="yes"/>
      <point x="304.58620689655174" y="285.44827586206895"/>
      <point x="338.1034482758621" y="264.6551724137931"/>
      <point x="382.62068965517244" y="264.6551724137931" type="curve" smooth="yes"/>
      <point x="476.62068965517244" y="264.6551724137931"/>
      <point x="503.44827586206895" y="356.37931034482756"/>
      <point x="508.9655172413793" y="448.3448275862069" type="curve"/>
      <point x="440.2758620689655" y="448.3448275862069" type="line"/>
      <point x="435.0" y="371.86206896551727"/>
      <point x="417.51724137931035" y="332.3448275862069"/>
      <point x="381.7586206896552" y="332.3448275862069" type="curve" smooth="yes"/>
      <point x="358.7241379310345" y="332.3448275862069"/>
      <point x="340.17241379310343" y="350.13793103448273"/>
      <point x="304.1034482758621" y="381.7241379310345" type="curve" smooth="yes"/>
      <point x="252.13793103448276" y="427.2068965517241"/>
      <point x="224.48275862068965" y="448.3448275862069"/>
      <point x="177.24137931034483" y="448.3448275862069" type="curve" smooth="yes"/>
      <point x="77.89655172413794" y="448.3448275862069"/>
      <point x="51.689655172413794" y="354.0689655172414"/>
    </contour>
  </outline>
</glyph>
<glyph name="twosuperior" format="2">
  <advance width="400.0"/>
  <unicode hex="00B2"/>
  <outline>
    <contour>
      <point x="58.241379310344826" y="386.0" type="line"/>
      <point x="372.41379310344826" y="386.0" type="line"/>
      <point x="400.41379310344826" y="518.0344827586207" type="line"/>
      <point x="363.3103448275862" y="518.0344827586207" type="line"/>
      <point x="355.3103448275862" y="497.0344827586207" type="line" smooth="yes"/>
      <point x="347.3103448275862" y="475.0344827586207"/>
      <point x="333.3103448275862" y="456.0344827586207"/>
      <point x="302.3103448275862" y="456.0344827586207" type="curve" smooth="yes"/>
      <point x="158.72413793103448" y="456.0344827586207" type="line"/>
      <point x="281.82758620689657" y="547.9310344827586" type="line" smooth="yes"/>
      <point x="392.9310344827586" y="630.8275862068965"/>
      <point x="426.0344827586207" y="674.9655172413793"/>
      <point x="426.0344827586207" y="732.1034482758621" type="curve" smooth="yes"/>
      <point x="426.0344827586207" y="787.2413793103449"/>
      <point x="373.7931034482759" y="824.0"/>
      <point x="291.9310344827586" y="824.0" type="curve" smooth="yes"/>
      <point x="195.68965517241378" y="824.0"/>
      <point x="137.44827586206895" y="785.7586206896551"/>
      <point x="137.44827586206895" y="733.2758620689655" type="curve" smooth="yes"/>
      <point x="137.44827586206895" y="704.0344827586207"/>
      <point x="164.55172413793105" y="683.4137931034483"/>
      <point x="208.89655172413794" y="683.4137931034483" type="curve"/>
      <point x="215.27586206896552" y="734.6551724137931"/>
      <point x="241.17241379310346" y="780.8965517241379"/>
      <point x="281.2068965517241" y="780.8965517241379" type="curve" smooth="yes"/>
      <point x="314.48275862068965" y="780.8965517241379"/>
      <point x="326.2413793103448" y="754.3793103448276"/>
      <point x="326.2413793103448" y="727.2413793103449" type="curve" smooth="yes"/>
      <point x="326.2413793103448" y="667.8275862068965"/>
      <point x="301.2413793103448" y="620.448275862069"/>
      <point x="219.48275862068965" y="557.6551724137931" type="curve" smooth="yes"/>
      <point x="68.82758620689656" y="442.0689655172414" type="line"/>
    </contour>
  </outline>
</glyph>
<glyph name="threesuperior" format="2">
  <advance width="400.0"/>
  <unicode hex="00B3"/>
  <outline>
    <contour>
      <point x="212.48275862068965" y="380.0" type="curve" smooth="yes"/>
      <point x="327.1034482758621" y="380.0"/>
      <point x="410.2068965517241" y="428.0"/>
      <point x="410.2068965517241" y="518.0" type="curve" smooth="yes"/>
      <point x="410.2068965517241" y="573.0"/>
      <point x="370.2068965517241" y="603.0"/>
      <point x="309.2068965517241" y="610.0" type="curve"/>
      <point x="310.2068965517241" y="615.0" type="line"/>
      <point x="383.2068965517241" y="630.0"/>
      <point x="436.9655172413793" y="663.0"/>
      <point x="436.9655172413793" y="733.0" type="curve" smooth="yes"/>
      <point x="436.9655172413793" y="783.0"/>
      <point x="393.3448275862069" y="824.0"/>
      <point x="299.48275862068965" y="824.0" type="curve" smooth="yes"/>
      <point x="202.24137931034483" y="824.0"/>
      <point x="144.0" y="785.3793103448276"/>
      <point x="144.0" y="738.3793103448276" type="curve" smooth="yes"/>
      <point x="144.0" y="706.3793103448276"/>
      <point x="173.72413793103448" y="693.8965517241379"/>
      <point x="219.31034482758622" y="693.8965517241379" type="curve"/>
      <point x="227.06896551724137" y="739.8965517241379"/>
      <point x="248.58620689655172" y="780.8965517241379"/>
      <point x="294.62068965517244" y="780.8965517241379" type="curve" smooth="yes"/>
      <point x="322.8965517241379" y="780.8965517241379"/>
      <point x="335.6551724137931" y="761.5172413793103"/>
      <point x="335.6551724137931" y="735.1379310344828" type="curve" smooth="yes"/>
      <point x="335.6551724137931" y="668.3793103448276"/>
      <point x="284.7586206896552" y="630.0"/>
      <point x="228.3793103448276" y="630.0" type="curve" smooth="yes"/>
      <point x="194.75862068965517" y="630.0" type="line"/>
      <point x="186.75862068965517" y="585.2758620689655" type="line"/>
      <point x="219.75862068965517" y="585.2758620689655" type="line" smooth="yes"/>
      <point x="282.7586206896552" y="585.2758620689655"/>
      <point x="310.7586206896552" y="552.1379310344828"/>
      <point x="310.7586206896552" y="514.0" type="curve" smooth="yes"/>
      <point x="310.7586206896552" y="453.1034482758621"/>
      <point x="271.0" y="429.3448275862069"/>
      <point x="220.72413793103448" y="429.3448275862069" type="curve" smooth="yes"/>
      <point x="161.48275862068965" y="429.3448275862069"/>
      <point x="139.10344827586206" y="476.9655172413793"/>
      <point x="139.10344827586206" y="515.3448275862069" type="curve"/>
      <point x="100.89655172413794" y="515.3448275862069"/>
      <point x="71.55172413793103" y="495.48275862068965"/>
      <point x="71.55172413793103" y="459.48275862068965" type="curve" smooth="yes"/>
      <point x="71.55172413793103" y="410.62068965517244"/>
      <point x="120.41379310344827" y="380.0"/>
    </contour>
  </outline>
</glyph>
<glyph name="multiply" format="2">
  <advance width="559.0"/>
  <unicode hex="00D7"/>
  <outline>
    <contour>
      <point x="124.79310344827586" y="156.20689655172413" type="line"/>
      <point x="279.0" y="311.0344827586207" type="line"/>
      <point x="433.82758620689657" y="156.20689655172413" type="line"/>
      <point x="480.7931034482759" y="203.17241379310346" type="line"/>
      <point x="325.9655172413793" y="358.0" type="line"/>
      <point x="480.7931034482759" y="512.8275862068965" type="line"/>
      <point x="433.2068965517241" y="560.7931034482758" type="line"/>
      <point x="279.0" y="405.58620689655174" type="line"/>
      <point x="124.79310344827586" y="559.7931034482758" type="line"/>
      <point x="77.20689655172414" y="512.8275862068965" type="line"/>
      <point x="231.41379310344828" y="359.0" type="line"/>
      <point x="77.20689655172414" y="204.17241379310346" type="line"/>
    </contour>
  </outline>
</glyph>
<glyph name="divide" format="2">
  <advance width="559.0"/>
  <unicode hex="00F7"/>
  <outline>
    <contour>
      <point x="65.0" y="324.2758620689655" type="line"/>
      <point x="494.0" y="324.2758620689655" type="line"/>
      <point x="494.0" y="390.7241379310345" type="line"/>
      <point x="65.0" y="390.7241379310345" type="line"/>
    </contour>
    <contour>
      <point x="280.0" y="109.27586206896552" type="curve" smooth="yes"/>
      <point x="309.86206896551727" y="109.27586206896552"/>
      <point x="334.1034482758621" y="124.51724137931035"/>
      <point x="334.1034482758621" y="168.0" type="curve" smooth="yes"/>
      <point x="334.1034482758621" y="212.48275862068965"/>
      <point x="309.86206896551727" y="226.72413793103448"/>
      <point x="280.0" y="226.72413793103448" type="curve" smooth="yes"/>
      <point x="249.13793103448276" y="226.72413793103448"/>
      <point x="225.89655172413794" y="212.48275862068965"/>
      <point x="225.89655172413794" y="168.0" type="curve" smooth="yes"/>
      <point x="225.89655172413794" y="124.51724137931035"/>
      <point x="249.13793103448276" y="109.27586206896552"/>
    </contour>
    <contour>
      <point x="280.0" y="488.2758620689655" type="curve" smooth="yes"/>
      <point x="309.86206896551727" y="488.2758620689655"/>
      <point x="334.1034482758621" y="503.51724137931035"/>
      <point x="334.1034482758621" y="547.0" type="curve" smooth="yes"/>
      <point x="334.1034482758621" y="591.4827586206897"/>
      <point x="309.86206896551727" y="605.7241379310345"/>
      <point x="280.0" y="605.7241379310345" type="curve" smooth="yes"/>
      <point x="249.13793103448276" y="605.7241379310345"/>
      <point x="225.89655172413794" y="591.4827586206897"/>
      <point x="225.89655172413794" y="547.0" type="curve" smooth="yes"/>
      <point x="225.89655172413794" y="503.51724137931035"/>
      <point x="249.13793103448276" y="488.2758620689655"/>
    </contour>
  </outline>
</glyph>
<glyph name="udatta-deva" format="2">
  <unicode hex="0951"/>
  <anchor x="60.241379310344826" y="559.5862068965517" name="_vedic"/>
  <outline>
    <contour>
      <point x="103.41379310344827" y="923.1724137931035" type="line"/>
      <point x="171.93103448275863" y="923.1724137931035" type="line"/>
      <point x="214.79310344827587" y="1124.3793103448277" type="line"/>
      <point x="145.6551724137931" y="1124.3793103448277" type="line"/>
    </contour>
  </outline>
</glyph>
<glyph name="anudatta-deva" format="2">
  <unicode hex="0952"/>
  <anchor x="-59.0" y="0.0" name="_bottom"/>
  <outline>
    <contour>
      <point x="-375.3103448275862" y="-578.0344827586207" type="line"/>
      <point x="12.275862068965516" y="-578.0344827586207" type="line"/>
      <point x="29.379310344827587" y="-496.13793103448273" type="line"/>
      <point x="-358.2068965517241" y="-496.13793103448273" type="line"/>
    </contour>
  </outline>
</glyph>
<glyph name="danda-deva" format="2">
  <advance width="326.9310344827586"/>
  <unicode hex="0964"/>
  <outline>
    <contour>
      <point x="35.93103448275862" y="0.0" type="line"/>
      <point x="171.75862068965517" y="0.0" type="line"/>
      <point x="291.0" y="559.5862068965517" type="line"/>
      <point x="155.17241379310346" y="559.5862068965517" type="line"/>
    </contour>
  </outline>
</glyph>
<glyph name="dbldanda-deva" format="2">
  <advance width="593.9655172413793"/>
  <unicode hex="0965"/>
  <outline>
    <contour>
      <point x="303.58620689655174" y="0.0" type="line"/>
      <point x="438.7931034482759" y="0.0" type="line"/>
      <point x="558.0344827586207" y="559.5862068965517" type="line"/>
      <point x="422.2068965517241" y="559.5862068965517" type="line"/>
    </contour>
    <contour>
      <point x="35.93103448275862" y="0.0" type="line"/>
      <point x="171.75862068965517" y="0.0" type="line"/>
      <point x="291.0" y="559.5862068965517" type="line"/>
      <point x="155.17241379310346" y="559.5862068965517" type="line"/>
    </contour>
  </outline>
</glyph>
<glyph name="anusvara-tamil" format="2">
  <unicode hex="0B82"/>
  <note>
uni0B82
</note>
  <anchor x="60.241379310344826" y="559.5862068965517" name="_top"/>
  <outline>
    <contour>
      <point x="102.24137931034483" y="624.9310344827586" type="curve" smooth="yes"/>
      <point x="177.82758620689654" y="624.9310344827586"/>
      <point x="236.89655172413794" y="681.0"/>
      <point x="236.89655172413794" y="758.448275862069" type="curve" smooth="yes"/>
      <point x="236.89655172413794" y="836.2758620689655"/>
      <point x="177.82758620689654" y="892.3448275862069"/>
      <point x="102.24137931034483" y="892.3448275862069" type="curve" smooth="yes"/>
      <point x="26.655172413793103" y="892.3448275862069"/>
      <point x="-32.41379310344828" y="836.2758620689655"/>
      <point x="-32.41379310344828" y="758.448275862069" type="curve" smooth="yes"/>
      <point x="-32.41379310344828" y="681.0"/>
      <point x="26.655172413793103" y="624.9310344827586"/>
    </contour>
    <contour>
      <point x="102.24137931034483" y="693.2068965517242" type="curve" smooth="yes"/>
      <point x="67.10344827586206" y="693.2068965517242"/>
      <point x="39.241379310344826" y="721.0689655172414"/>
      <point x="39.241379310344826" y="758.448275862069" type="curve" smooth="yes"/>
      <point x="39.241379310344826" y="795.5862068965517"/>
      <point x="67.10344827586206" y="823.448275862069"/>
      <point x="102.24137931034483" y="823.448275862069" type="curve" smooth="yes"/>
      <point x="137.3793103448276" y="823.448275862069"/>
      <point x="165.24137931034483" y="795.5862068965517"/>
      <point x="165.24137931034483" y="758.448275862069" type="curve" smooth="yes"/>
      <point x="165.24137931034483" y="721.0689655172414"/>
      <point x="137.3793103448276" y="693.2068965517242"/>
    </contour>
  </outline>
</glyph>
<glyph name="visarga-tamil" format="2">
  <advance width="907.5862068965517"/>
  <unicode hex="0B83"/>
  <note>
uni0B83
</note>
  <outline>
    <contour>
      <point x="179.86206896551724" y="-3.103448275862069" type="curve" smooth="yes"/>
      <point x="297.13793103448273" y="-3.103448275862069"/>
      <point x="388.7931034482759" y="81.24137931034483"/>
      <point x="388.7931034482759" y="212.13793103448276" type="curve" smooth="yes"/>
      <point x="388.7931034482759" y="317.8965517241379"/>
      <point x="322.2758620689655" y="371.48275862068965"/>
      <point x="225.48275862068965" y="371.48275862068965" type="curve" smooth="yes"/>
      <point x="109.86206896551724" y="371.48275862068965"/>
      <point x="28.655172413793103" y="275.41379310344826"/>
      <point x="28.655172413793103" y="156.89655172413794" type="curve" smooth="yes"/>
      <point x="28.655172413793103" y="69.37931034482759"/>
      <point x="77.41379310344827" y="-3.103448275862069"/>
    </contour>
    <contour>
      <point x="168.13793103448276" y="50.86206896551724" type="curve" smooth="yes"/>
      <point x="112.86206896551724" y="50.86206896551724"/>
      <point x="87.82758620689656" y="96.86206896551724"/>
      <point x="87.82758620689656" y="158.89655172413794" type="curve" smooth="yes"/>
      <point x="87.82758620689656" y="241.72413793103448"/>
      <point x="134.82758620689654" y="317.8965517241379"/>
      <point x="208.89655172413794" y="317.8965517241379" type="curve" smooth="yes"/>
      <point x="260.41379310344826" y="317.8965517241379"/>
      <point x="290.58620689655174" y="287.51724137931035"/>
      <point x="290.58620689655174" y="220.3793103448276" type="curve" smooth="yes"/>
      <point x="290.58620689655174" y="120.62068965517241"/>
      <point x="243.41379310344828" y="50.86206896551724"/>
    </contour>
    <contour>
      <point x="632.1034482758621" y="-3.103448275862069" type="curve" smooth="yes"/>
      <point x="749.3793103448276" y="-3.103448275862069"/>
      <point x="841.0344827586207" y="81.24137931034483"/>
      <point x="841.0344827586207" y="212.13793103448276" type="curve" smooth="yes"/>
      <point x="841.0344827586207" y="317.8965517241379"/>
      <point x="774.5172413793103" y="371.48275862068965"/>
      <point x="677.7241379310345" y="371.48275862068965" type="curve" smooth="yes"/>
      <point x="562.1034482758621" y="371.48275862068965"/>
      <point x="480.8965517241379" y="275.41379310344826"/>
      <point x="480.8965517241379" y="156.89655172413794" type="curve" smooth="yes"/>
      <point x="480.8965517241379" y="69.37931034482759"/>
      <point x="529.6551724137931" y="-3.103448275862069"/>
    </contour>
    <contour>
      <point x="620.3793103448276" y="50.86206896551724" type="curve" smooth="yes"/>
      <point x="565.1034482758621" y="50.86206896551724"/>
      <point x="540.0689655172414" y="96.86206896551724"/>
      <point x="540.0689655172414" y="158.89655172413794" type="curve" smooth="yes"/>
      <point x="540.0689655172414" y="241.72413793103448"/>
      <point x="587.0689655172414" y="317.8965517241379"/>
      <point x="661.1379310344828" y="317.8965517241379" type="curve" smooth="yes"/>
      <point x="712.6551724137931" y="317.8965517241379"/>
      <point x="742.8275862068965" y="287.51724137931035"/>
      <point x="742.8275862068965" y="220.3793103448276" type="curve" smooth="yes"/>
      <point x="742.8275862068965" y="120.62068965517241"/>
      <point x="695.6551724137931" y="50.86206896551724"/>
    </contour>
    <contour>
      <point x="490.7931034482759" y="428.13793103448273" type="curve" smooth="yes"/>
      <point x="608.0689655172414" y="428.13793103448273"/>
      <point x="699.7241379310345" y="512.4827586206897"/>
      <point x="699.7241379310345" y="643.3793103448276" type="curve" smooth="yes"/>
      <point x="699.7241379310345" y="749.1379310344828"/>
      <point x="633.2068965517242" y="802.7241379310345"/>
      <point x="536.4137931034483" y="802.7241379310345" type="curve" smooth="yes"/>
      <point x="420.7931034482759" y="802.7241379310345"/>
      <point x="339.58620689655174" y="706.6551724137931"/>
      <point x="339.58620689655174" y="588.1379310344828" type="curve" smooth="yes"/>
      <point x="339.58620689655174" y="500.62068965517244"/>
      <point x="388.3448275862069" y="428.13793103448273"/>
    </contour>
    <contour>
      <point x="479.0689655172414" y="482.1034482758621" type="curve" smooth="yes"/>
      <point x="423.7931034482759" y="482.1034482758621"/>
      <point x="398.7586206896552" y="528.1034482758621"/>
      <point x="398.7586206896552" y="590.1379310344828" type="curve" smooth="yes"/>
      <point x="398.7586206896552" y="672.9655172413793"/>
      <point x="445.7586206896552" y="749.1379310344828"/>
      <point x="519.8275862068965" y="749.1379310344828" type="curve" smooth="yes"/>
      <point x="571.3448275862069" y="749.1379310344828"/>
      <point x="601.5172413793103" y="718.7586206896551"/>
      <point x="601.5172413793103" y="651.6206896551724" type="curve" smooth="yes"/>
      <point x="601.5172413793103" y="551.8620689655172"/>
      <point x="554.3448275862069" y="482.1034482758621"/>
    </contour>
  </outline>
</glyph>
<glyph name="a-tamil" format="2">
  <advance width="1328.2758620689656"/>
  <unicode hex="0B85"/>
  <note>
uni0B85
</note>
  <anchor x="572.3103448275862" y="0.0" name="bottom"/>
  <anchor x="365.9655172413793" y="-140.0" name="nukta"/>
  <anchor x="693.4827586206897" y="559.5862068965517" name="top"/>
  <anchor x="693.4827586206897" y="559.5862068965517" name="vedic"/>
  <outline>
    <contour>
      <point x="998.4137931034483" y="-217.0" type="line"/>
      <point x="1131.1379310344828" y="-217.0" type="line"/>
      <point x="1296.103448275862" y="559.5862068965517" type="line"/>
      <point x="1163.3793103448277" y="559.5862068965517" type="line"/>
      <point x="1080.5172413793102" y="167.27586206896552" type="line"/>
      <point x="95.51724137931035" y="167.27586206896552" type="line" smooth="yes"/>
      <point x="25.93103448275862" y="167.27586206896552"/>
      <point x="-11.310344827586206" y="125.82758620689656"/>
      <point x="-11.310344827586206" y="66.34482758620689" type="curve" smooth="yes"/>
      <point x="-11.310344827586206" y="-31.862068965517242"/>
      <point x="134.75862068965517" y="-140.0"/>
      <point x="383.51724137931035" y="-140.0" type="curve" smooth="yes"/>
      <point x="703.551724137931" y="-140.0"/>
      <point x="961.1379310344828" y="-8.931034482758621"/>
      <point x="961.1379310344828" y="280.9655172413793" type="curve" smooth="yes"/>
      <point x="961.1379310344828" y="470.51724137931035"/>
      <point x="817.9655172413793" y="564.5862068965517"/>
      <point x="646.6551724137931" y="564.5862068965517" type="curve" smooth="yes"/>
      <point x="497.37931034482756" y="564.5862068965517"/>
      <point x="383.0344827586207" y="482.37931034482756"/>
      <point x="383.0344827586207" y="362.9310344827586" type="curve" smooth="yes"/>
      <point x="383.0344827586207" y="291.3448275862069"/>
      <point x="436.0" y="229.6206896551724"/>
      <point x="534.3448275862069" y="229.6206896551724" type="curve" smooth="yes"/>
      <point x="635.6551724137931" y="229.6206896551724"/>
      <point x="705.0" y="286.44827586206895"/>
      <point x="705.0" y="379.3448275862069" type="curve" smooth="yes"/>
      <point x="705.0" y="449.17241379310343"/>
      <point x="657.7586206896551" y="499.0344827586207"/>
      <point x="589.3793103448276" y="517.7586206896551" type="curve"/>
      <point x="531.2758620689655" y="513.5172413793103" type="line"/>
      <point x="572.9310344827586" y="494.37931034482756"/>
      <point x="603.1034482758621" y="450.62068965517244"/>
      <point x="603.1034482758621" y="399.41379310344826" type="curve" smooth="yes"/>
      <point x="603.1034482758621" y="340.62068965517244"/>
      <point x="571.7241379310345" y="303.48275862068965"/>
      <point x="516.7241379310345" y="303.48275862068965" type="curve" smooth="yes"/>
      <point x="480.9310344827586" y="303.48275862068965"/>
      <point x="451.2068965517241" y="325.6551724137931"/>
      <point x="451.2068965517241" y="366.51724137931035" type="curve" smooth="yes"/>
      <point x="451.2068965517241" y="449.8965517241379"/>
      <point x="529.1034482758621" y="505.62068965517244"/>
      <point x="632.9310344827586" y="505.62068965517244" type="curve" smooth="yes"/>
      <point x="740.8620689655172" y="505.62068965517244"/>
      <point x="831.3793103448276" y="432.2068965517241"/>
      <point x="831.3793103448276" y="298.9310344827586" type="curve" smooth="yes"/>
      <point x="831.3793103448276" y="45.55172413793103"/>
      <point x="636.0344827586207" y="-81.0344827586207"/>
      <point x="381.3103448275862" y="-81.0344827586207" type="curve" smooth="yes"/>
      <point x="181.3448275862069" y="-81.0344827586207"/>
      <point x="52.89655172413793" y="-0.862068965517242"/>
      <point x="52.89655172413793" y="68.58620689655173" type="curve" smooth="yes"/>
      <point x="52.89655172413793" y="93.06896551724138"/>
      <point x="61.51724137931034" y="108.93103448275862"/>
      <point x="94.37931034482759" y="108.93103448275862" type="curve" smooth="yes"/>
      <point x="1068.2758620689656" y="108.93103448275862" type="line"/>
    </contour>
  </outline>
</glyph>
<glyph name="aa-tamil" format="2">
  <advance width="1527.5172413793102"/>
  <unicode hex="0B86"/>
  <note>
uni0B86
</note>
  <anchor x="695.5862068965517" y="0.0" name="bottom"/>
  <anchor x="365.9655172413793" y="-140.0" name="nukta"/>
  <anchor x="816.5172413793103" y="559.5862068965517" name="top"/>
  <anchor x="816.7586206896551" y="559.5862068965517" name="vedic"/>
  <outline>
    <contour>
      <point x="911.448275862069" y="-453.55172413793105" type="curve" smooth="yes"/>
      <point x="1180.3103448275863" y="-453.55172413793105"/>
      <point x="1424.4827586206898" y="-303.3448275862069"/>
      <point x="1424.4827586206898" y="-68.6896551724138" type="curve" smooth="yes"/>
      <point x="1424.4827586206898" y="25.758620689655174"/>
      <point x="1370.0" y="69.20689655172414"/>
      <point x="1300.448275862069" y="69.20689655172414" type="curve" smooth="yes"/>
      <point x="1224.2758620689656" y="69.20689655172414"/>
      <point x="1158.3103448275863" y="10.827586206896552"/>
      <point x="1125.3793103448277" y="-102.51724137931035" type="curve"/>
      <point x="1151.103448275862" y="-111.41379310344827" type="line"/>
      <point x="1163.7241379310344" y="-52.310344827586206"/>
      <point x="1203.2068965517242" y="-29.17241379310345"/>
      <point x="1235.9655172413793" y="-29.17241379310345" type="curve" smooth="yes"/>
      <point x="1272.5862068965516" y="-29.17241379310345"/>
      <point x="1296.2068965517242" y="-51.03448275862069"/>
      <point x="1296.2068965517242" y="-96.79310344827586" type="curve" smooth="yes"/>
      <point x="1296.2068965517242" y="-257.6551724137931"/>
      <point x="1108.5172413793102" y="-395.2068965517241"/>
      <point x="909.551724137931" y="-395.2068965517241" type="curve" smooth="yes"/>
      <point x="801.3793103448276" y="-395.2068965517241"/>
      <point x="734.3103448275862" y="-358.9310344827586"/>
      <point x="734.3103448275862" y="-291.1034482758621" type="curve" smooth="yes"/>
      <point x="734.3103448275862" y="-235.3793103448276"/>
      <point x="787.6551724137931" y="-203.13793103448276"/>
      <point x="862.6551724137931" y="-190.51724137931035" type="curve"/>
      <point x="855.4137931034483" y="-133.17241379310346" type="line"/>
      <point x="747.9310344827586" y="-152.41379310344828"/>
      <point x="674.3448275862069" y="-208.3793103448276"/>
      <point x="674.3448275862069" y="-298.9655172413793" type="curve" smooth="yes"/>
      <point x="674.3448275862069" y="-393.0344827586207"/>
      <point x="764.0344827586207" y="-453.55172413793105"/>
    </contour>
    <component base="a-tamil"/>
  </outline>
</glyph>
<glyph name="i-tamil" format="2">
  <advance width="1034.655172413793"/>
  <unicode hex="0B87"/>
  <note>
uni0B87
</note>
  <anchor x="436.9655172413793" y="0.0" name="bottom"/>
  <anchor x="379.8965517241379" y="-271.6551724137931" name="nukta"/>
  <anchor x="580.7586206896551" y="850.1034482758621" name="top"/>
  <anchor x="553.6206896551724" y="559.5862068965517" name="vedic"/>
  <outline>
    <contour>
      <point x="126.27586206896552" y="-314.37931034482756" type="curve" smooth="yes"/>
      <point x="474.6551724137931" y="-314.37931034482756"/>
      <point x="797.6206896551724" y="-13.586206896551726"/>
      <point x="797.6206896551724" y="313.82758620689657" type="curve" smooth="yes"/>
      <point x="797.6206896551724" y="486.44827586206895"/>
      <point x="683.0" y="564.5862068965517"/>
      <point x="526.1724137931035" y="564.5862068965517" type="curve" smooth="yes"/>
      <point x="388.37931034482756" y="564.5862068965517"/>
      <point x="272.3103448275862" y="485.6896551724138"/>
      <point x="272.3103448275862" y="362.7586206896552" type="curve" smooth="yes"/>
      <point x="272.3103448275862" y="291.62068965517244"/>
      <point x="326.82758620689657" y="236.20689655172413"/>
      <point x="410.37931034482756" y="236.20689655172413" type="curve" smooth="yes"/>
      <point x="509.3448275862069" y="236.20689655172413"/>
      <point x="582.3103448275862" y="290.0689655172414"/>
      <point x="582.3103448275862" y="384.9310344827586" type="curve" smooth="yes"/>
      <point x="582.3103448275862" y="447.7241379310345"/>
      <point x="538.7931034482758" y="508.2068965517241"/>
      <point x="454.6551724137931" y="523.2068965517242" type="curve"/>
      <point x="409.1034482758621" y="518.3448275862069" type="line"/>
      <point x="452.62068965517244" y="494.48275862068965"/>
      <point x="480.17241379310343" y="456.37931034482756"/>
      <point x="480.17241379310343" y="404.8965517241379" type="curve" smooth="yes"/>
      <point x="480.17241379310343" y="351.7586206896552"/>
      <point x="451.7931034482759" y="308.82758620689657"/>
      <point x="395.8965517241379" y="308.82758620689657" type="curve" smooth="yes"/>
      <point x="359.2758620689655" y="308.82758620689657"/>
      <point x="335.2758620689655" y="333.2068965517241"/>
      <point x="335.2758620689655" y="371.7241379310345" type="curve" smooth="yes"/>
      <point x="335.2758620689655" y="452.7241379310345"/>
      <point x="413.62068965517244" y="506.2413793103448"/>
      <point x="510.82758620689657" y="506.2413793103448" type="curve" smooth="yes"/>
      <point x="612.0689655172414" y="506.2413793103448"/>
      <point x="665.6551724137931" y="435.0344827586207"/>
      <point x="665.6551724137931" y="321.2068965517241" type="curve" smooth="yes"/>
      <point x="665.6551724137931" y="26.310344827586206"/>
      <point x="430.37931034482756" y="-255.41379310344828"/>
      <point x="140.41379310344828" y="-255.41379310344828" type="curve" smooth="yes"/>
      <point x="69.41379310344827" y="-255.41379310344828"/>
      <point x="19.79310344827586" y="-225.89655172413794"/>
      <point x="19.79310344827586" y="-162.17241379310346" type="curve" smooth="yes"/>
      <point x="19.79310344827586" y="-18.96551724137931"/>
      <point x="247.9655172413793" y="50.172413793103445"/>
      <point x="428.2413793103448" y="50.172413793103445" type="curve" smooth="yes"/>
      <point x="598.6206896551724" y="50.172413793103445"/>
      <point x="789.448275862069" y="-8.655172413793103"/>
      <point x="789.448275862069" y="-135.13793103448276" type="curve" smooth="yes"/>
      <point x="789.448275862069" y="-223.27586206896552"/>
      <point x="722.3103448275862" y="-255.41379310344828"/>
      <point x="625.9310344827586" y="-255.41379310344828" type="curve" smooth="yes"/>
      <point x="382.58620689655174" y="-255.41379310344828"/>
      <point x="139.51724137931035" y="21.0"/>
      <point x="139.51724137931035" y="292.58620689655174" type="curve" smooth="yes"/>
      <point x="139.51724137931035" y="550.1034482758621"/>
      <point x="296.13793103448273" y="740.2413793103449"/>
      <point x="566.1379310344828" y="740.2413793103449" type="curve" smooth="yes"/>
      <point x="822.7241379310345" y="740.2413793103449"/>
      <point x="970.3793103448276" y="569.8620689655172"/>
      <point x="909.2758620689655" y="291.1034482758621" type="curve" smooth="yes"/>
      <point x="866.4827586206897" y="97.17241379310344" type="line"/>
      <point x="930.9310344827586" y="97.17241379310344" type="line"/>
      <point x="974.9655172413793" y="297.3103448275862" type="line" smooth="yes"/>
      <point x="1049.0689655172414" y="634.448275862069"/>
      <point x="892.1724137931035" y="850.1034482758621"/>
      <point x="580.7586206896551" y="850.1034482758621" type="curve" smooth="yes"/>
      <point x="264.2068965517241" y="850.1034482758621"/>
      <point x="76.75862068965517" y="623.7241379310345"/>
      <point x="76.75862068965517" y="309.3103448275862" type="curve" smooth="yes"/>
      <point x="76.75862068965517" y="-13.586206896551724"/>
      <point x="336.51724137931035" y="-313.7586206896552"/>
      <point x="641.6896551724138" y="-313.7586206896552" type="curve" smooth="yes"/>
      <point x="761.551724137931" y="-313.7586206896552"/>
      <point x="856.6896551724138" y="-257.51724137931035"/>
      <point x="856.6896551724138" y="-133.41379310344828" type="curve" smooth="yes"/>
      <point x="856.6896551724138" y="31.689655172413794"/>
      <point x="647.1034482758621" y="108.13793103448276"/>
      <point x="436.7241379310345" y="108.13793103448276" type="curve" smooth="yes"/>
      <point x="203.44827586206895" y="108.13793103448276"/>
      <point x="-50.06896551724138" y="19.0"/>
      <point x="-50.06896551724138" y="-176.79310344827587" type="curve" smooth="yes"/>
      <point x="-50.06896551724138" y="-264.51724137931035"/>
      <point x="20.413793103448278" y="-314.37931034482756"/>
    </contour>
  </outline>
</glyph>
<glyph name="ii-tamil" format="2">
  <advance width="836.6206896551724"/>
  <unicode hex="0B88"/>
  <note>
uni0B88
</note>
  <anchor x="372.0689655172414" y="0.0" name="bottom"/>
  <anchor x="372.0689655172414" y="0.0" name="nukta"/>
  <anchor x="492.6896551724138" y="559.5862068965517" name="top"/>
  <anchor x="493.3103448275862" y="559.5862068965517" name="vedic"/>
  <outline>
    <contour>
      <point x="32.793103448275865" y="0.0" type="line"/>
      <point x="98.37931034482759" y="0.0" type="line"/>
      <point x="205.0" y="501.2413793103448" type="line"/>
      <point x="489.0" y="501.2413793103448" type="line"/>
      <point x="382.0" y="0.0" type="line"/>
      <point x="515.3448275862069" y="0.0" type="line"/>
      <point x="621.9655172413793" y="501.2413793103448" type="line"/>
      <point x="834.1034482758621" y="501.2413793103448" type="line"/>
      <point x="846.1034482758621" y="559.5862068965517" type="line"/>
      <point x="152.0344827586207" y="559.5862068965517" type="line"/>
    </contour>
    <contour>
      <point x="294.9310344827586" y="194.86206896551724" type="curve" smooth="yes"/>
      <point x="334.86206896551727" y="194.86206896551724"/>
      <point x="366.55172413793105" y="227.31034482758622"/>
      <point x="366.55172413793105" y="265.2413793103448" type="curve" smooth="yes"/>
      <point x="366.55172413793105" y="302.55172413793105"/>
      <point x="334.86206896551727" y="334.62068965517244"/>
      <point x="294.9310344827586" y="334.62068965517244" type="curve" smooth="yes"/>
      <point x="255.0" y="334.62068965517244"/>
      <point x="223.31034482758622" y="302.55172413793105"/>
      <point x="223.31034482758622" y="265.2413793103448" type="curve" smooth="yes"/>
      <point x="223.31034482758622" y="227.31034482758622"/>
      <point x="255.0" y="194.86206896551724"/>
    </contour>
    <contour>
      <point x="710.8965517241379" y="194.86206896551724" type="curve" smooth="yes"/>
      <point x="750.8275862068965" y="194.86206896551724"/>
      <point x="782.5172413793103" y="227.31034482758622"/>
      <point x="782.5172413793103" y="265.2413793103448" type="curve" smooth="yes"/>
      <point x="782.5172413793103" y="302.55172413793105"/>
      <point x="750.8275862068965" y="334.62068965517244"/>
      <point x="710.8965517241379" y="334.62068965517244" type="curve" smooth="yes"/>
      <point x="670.9655172413793" y="334.62068965517244"/>
      <point x="639.2758620689655" y="302.55172413793105"/>
      <point x="639.2758620689655" y="265.2413793103448" type="curve" smooth="yes"/>
      <point x="639.2758620689655" y="227.31034482758622"/>
      <point x="670.9655172413793" y="194.86206896551724"/>
    </contour>
  </outline>
</glyph>
<glyph name="u-tamil" format="2">
  <advance width="994.5862068965517"/>
  <unicode hex="0B89"/>
  <note>
uni0B89
</note>
  <anchor x="458.0" y="0.0" name="bottom"/>
  <anchor x="458.0" y="0.0" name="nukta"/>
  <anchor x="579.8620689655172" y="559.5862068965517" name="top"/>
  <anchor x="579.6206896551724" y="559.5862068965517" name="vedic"/>
  <outline>
    <contour>
      <point x="90.55172413793103" y="0.0" type="curve" smooth="yes"/>
      <point x="922.7931034482758" y="0.0" type="line"/>
      <point x="935.4137931034483" y="58.3448275862069" type="line"/>
      <point x="98.51724137931035" y="58.3448275862069" type="line" smooth="yes"/>
      <point x="80.37931034482759" y="58.3448275862069"/>
      <point x="63.13793103448276" y="68.72413793103448"/>
      <point x="63.13793103448276" y="91.62068965517241" type="curve" smooth="yes"/>
      <point x="63.13793103448276" y="115.27586206896552"/>
      <point x="82.79310344827586" y="131.27586206896552"/>
      <point x="108.93103448275862" y="131.27586206896552" type="curve" smooth="yes"/>
      <point x="371.0689655172414" y="131.27586206896552" type="line" smooth="yes"/>
      <point x="552.3448275862069" y="131.27586206896552"/>
      <point x="695.7586206896551" y="202.41379310344828"/>
      <point x="695.7586206896551" y="363.7241379310345" type="curve" smooth="yes"/>
      <point x="695.7586206896551" y="497.48275862068965"/>
      <point x="576.0689655172414" y="564.5862068965517"/>
      <point x="421.9310344827586" y="564.5862068965517" type="curve" smooth="yes"/>
      <point x="262.48275862068965" y="564.5862068965517"/>
      <point x="145.44827586206895" y="480.8965517241379"/>
      <point x="145.44827586206895" y="370.0344827586207" type="curve" smooth="yes"/>
      <point x="145.44827586206895" y="302.9310344827586"/>
      <point x="193.0344827586207" y="240.17241379310346"/>
      <point x="289.9310344827586" y="240.17241379310346" type="curve" smooth="yes"/>
      <point x="400.6896551724138" y="240.17241379310346"/>
      <point x="461.86206896551727" y="303.3448275862069"/>
      <point x="461.86206896551727" y="382.51724137931035" type="curve" smooth="yes"/>
      <point x="461.86206896551727" y="444.8965517241379"/>
      <point x="415.37931034482756" y="501.7241379310345"/>
      <point x="350.62068965517244" y="517.7586206896551" type="curve"/>
      <point x="298.86206896551727" y="513.5172413793103" type="line"/>
      <point x="338.9655172413793" y="487.48275862068965"/>
      <point x="364.3103448275862" y="448.86206896551727"/>
      <point x="364.3103448275862" y="402.0" type="curve" smooth="yes"/>
      <point x="364.3103448275862" y="343.3448275862069"/>
      <point x="330.2068965517241" y="307.82758620689657"/>
      <point x="278.6551724137931" y="307.82758620689657" type="curve" smooth="yes"/>
      <point x="236.10344827586206" y="307.82758620689657"/>
      <point x="213.6206896551724" y="342.3448275862069"/>
      <point x="213.6206896551724" y="379.48275862068965" type="curve" smooth="yes"/>
      <point x="213.6206896551724" y="439.58620689655174"/>
      <point x="274.9655172413793" y="505.62068965517244"/>
      <point x="405.44827586206895" y="505.62068965517244" type="curve" smooth="yes"/>
      <point x="497.86206896551727" y="505.62068965517244"/>
      <point x="563.6551724137931" y="460.86206896551727"/>
      <point x="563.6551724137931" y="367.9310344827586" type="curve" smooth="yes"/>
      <point x="563.6551724137931" y="254.44827586206895"/>
      <point x="484.0" y="188.0"/>
      <point x="361.0" y="188.0" type="curve" smooth="yes"/>
      <point x="120.65517241379311" y="188.0" type="line" smooth="yes"/>
      <point x="46.793103448275865" y="188.0"/>
      <point x="0.7931034482758621" y="146.86206896551724"/>
      <point x="0.7931034482758621" y="85.48275862068965" type="curve" smooth="yes"/>
      <point x="0.7931034482758621" y="36.48275862068966"/>
      <point x="36.06896551724138" y="0.0"/>
    </contour>
  </outline>
</glyph>
<glyph name="uu-tamil" format="2">
  <advance width="1737.0344827586207"/>
  <unicode hex="0B8A"/>
  <note>
uni0B8A
</note>
  <anchor x="841.4137931034483" y="0.0" name="bottom"/>
  <anchor x="841.7931034482758" y="0.0" name="nukta"/>
  <anchor x="963.4137931034483" y="559.5862068965517" name="top"/>
  <anchor x="963.0344827586207" y="559.5862068965517" name="vedic"/>
  <outline>
    <contour>
      <point x="90.55172413793103" y="0.0" type="curve" smooth="yes"/>
      <point x="1632.9310344827586" y="0.0" type="line"/>
      <point x="1645.551724137931" y="58.3448275862069" type="line"/>
      <point x="98.51724137931035" y="58.3448275862069" type="line" smooth="yes"/>
      <point x="80.37931034482759" y="58.3448275862069"/>
      <point x="63.13793103448276" y="68.72413793103448"/>
      <point x="63.13793103448276" y="91.62068965517241" type="curve" smooth="yes"/>
      <point x="63.13793103448276" y="115.27586206896552"/>
      <point x="82.79310344827586" y="131.27586206896552"/>
      <point x="108.93103448275862" y="131.27586206896552" type="curve" smooth="yes"/>
      <point x="371.0689655172414" y="131.27586206896552" type="line" smooth="yes"/>
      <point x="552.3448275862069" y="131.27586206896552"/>
      <point x="695.7586206896551" y="202.41379310344828"/>
      <point x="695.7586206896551" y="363.7241379310345" type="curve" smooth="yes"/>
      <point x="695.7586206896551" y="497.48275862068965"/>
      <point x="576.0689655172414" y="564.5862068965517"/>
      <point x="421.9310344827586" y="564.5862068965517" type="curve" smooth="yes"/>
      <point x="262.48275862068965" y="564.5862068965517"/>
      <point x="145.44827586206895" y="480.8965517241379"/>
      <point x="145.44827586206895" y="370.0344827586207" type="curve" smooth="yes"/>
      <point x="145.44827586206895" y="302.9310344827586"/>
      <point x="193.0344827586207" y="240.17241379310346"/>
      <point x="289.9310344827586" y="240.17241379310346" type="curve" smooth="yes"/>
      <point x="400.6896551724138" y="240.17241379310346"/>
      <point x="461.86206896551727" y="303.3448275862069"/>
      <point x="461.86206896551727" y="382.51724137931035" type="curve" smooth="yes"/>
      <point x="461.86206896551727" y="444.8965517241379"/>
      <point x="415.37931034482756" y="501.7241379310345"/>
      <point x="350.62068965517244" y="517.7586206896551" type="curve"/>
      <point x="298.86206896551727" y="513.5172413793103" type="line"/>
      <point x="338.9655172413793" y="487.48275862068965"/>
      <point x="364.3103448275862" y="448.86206896551727"/>
      <point x="364.3103448275862" y="402.0" type="curve" smooth="yes"/>
      <point x="364.3103448275862" y="343.3448275862069"/>
      <point x="330.2068965517241" y="307.82758620689657"/>
      <point x="278.6551724137931" y="307.82758620689657" type="curve" smooth="yes"/>
      <point x="236.10344827586206" y="307.82758620689657"/>
      <point x="213.6206896551724" y="342.3448275862069"/>
      <point x="213.6206896551724" y="379.48275862068965" type="curve" smooth="yes"/>
      <point x="213.6206896551724" y="439.58620689655174"/>
      <point x="274.9655172413793" y="505.62068965517244"/>
      <point x="405.44827586206895" y="505.62068965517244" type="curve" smooth="yes"/>
      <point x="497.86206896551727" y="505.62068965517244"/>
      <point x="563.6551724137931" y="460.86206896551727"/>
      <point x="563.6551724137931" y="367.9310344827586" type="curve" smooth="yes"/>
      <point x="563.6551724137931" y="254.44827586206895"/>
      <point x="484.0" y="188.0"/>
      <point x="361.0" y="188.0" type="curve" smooth="yes"/>
      <point x="120.65517241379311" y="188.0" type="line" smooth="yes"/>
      <point x="46.793103448275865" y="188.0"/>
      <point x="0.7931034482758621" y="146.86206896551724"/>
      <point x="0.7931034482758621" y="85.48275862068965" type="curve" smooth="yes"/>
      <point x="0.7931034482758621" y="36.48275862068966"/>
      <point x="36.06896551724138" y="0.0"/>
    </contour>
    <contour>
      <point x="949.3448275862069" y="116.0344827586207" type="curve" smooth="yes"/>
      <point x="1053.0689655172414" y="116.0344827586207"/>
      <point x="1125.344827586207" y="171.0344827586207"/>
      <point x="1125.344827586207" y="268.3448275862069" type="curve" smooth="yes"/>
      <point x="1125.344827586207" y="346.1034482758621"/>
      <point x="1069.2413793103449" y="390.62068965517244"/>
      <point x="994.4827586206897" y="390.62068965517244" type="curve" smooth="yes"/>
      <point x="900.3103448275862" y="390.62068965517244"/>
      <point x="841.3103448275862" y="323.37931034482756"/>
      <point x="810.551724137931" y="229.58620689655172" type="curve"/>
      <point x="836.7241379310345" y="206.13793103448276" type="line"/>
      <point x="861.8620689655172" y="270.37931034482756"/>
      <point x="895.8965517241379" y="328.86206896551727"/>
      <point x="955.7586206896551" y="328.86206896551727" type="curve" smooth="yes"/>
      <point x="996.1724137931035" y="328.86206896551727"/>
      <point x="1022.551724137931" y="302.82758620689657"/>
      <point x="1022.551724137931" y="260.0689655172414" type="curve" smooth="yes"/>
      <point x="1022.551724137931" y="208.79310344827587"/>
      <point x="986.551724137931" y="175.24137931034483"/>
      <point x="931.2758620689655" y="175.24137931034483" type="curve" smooth="yes"/>
      <point x="872.1379310344828" y="175.24137931034483"/>
      <point x="829.0344827586207" y="223.51724137931035"/>
      <point x="829.0344827586207" y="294.7586206896552" type="curve" smooth="yes"/>
      <point x="829.0344827586207" y="423.0689655172414"/>
      <point x="917.1379310344828" y="506.2413793103448"/>
      <point x="1042.655172413793" y="506.2413793103448" type="curve" smooth="yes"/>
      <point x="1155.5862068965516" y="506.2413793103448"/>
      <point x="1235.0689655172414" y="433.6551724137931"/>
      <point x="1210.7931034482758" y="310.2413793103448" type="curve"/>
      <point x="1267.9310344827586" y="310.2413793103448" type="line"/>
      <point x="1295.5862068965516" y="471.17241379310343"/>
      <point x="1195.4827586206898" y="564.5862068965517"/>
      <point x="1044.2068965517242" y="564.5862068965517" type="curve" smooth="yes"/>
      <point x="886.3448275862069" y="564.5862068965517"/>
      <point x="765.8275862068965" y="454.6551724137931"/>
      <point x="765.8275862068965" y="295.37931034482756" type="curve" smooth="yes"/>
      <point x="765.8275862068965" y="194.41379310344828"/>
      <point x="840.4137931034483" y="116.0344827586207"/>
    </contour>
    <contour>
      <point x="1169.9310344827586" y="118.17241379310344" type="line"/>
      <point x="1286.5172413793102" y="118.17241379310344" type="line"/>
      <point x="1368.655172413793" y="502.0" type="line"/>
      <point x="1528.2413793103449" y="502.0" type="line"/>
      <point x="1446.7241379310344" y="118.17241379310344" type="line"/>
      <point x="1563.9310344827586" y="118.17241379310344" type="line"/>
      <point x="1645.448275862069" y="502.0" type="line"/>
      <point x="1739.9310344827586" y="502.0" type="line"/>
      <point x="1752.1724137931035" y="559.5862068965517" type="line"/>
      <point x="1285.6896551724137" y="559.5862068965517" type="line"/>
      <point x="1245.5862068965516" y="370.9310344827586" type="line"/>
      <point x="1223.2068965517242" y="369.41379310344826" type="line"/>
    </contour>
  </outline>
</glyph>
<glyph name="e-tamil" format="2">
  <advance width="948.3793103448276"/>
  <unicode hex="0B8E"/>
  <note>
uni0B8E
</note>
  <anchor x="452.7586206896552" y="0.0" name="bottom"/>
  <anchor x="453.7586206896552" y="0.0" name="nukta"/>
  <anchor x="573.0" y="559.5862068965517" name="top"/>
  <anchor x="574.3793103448276" y="559.5862068965517" name="vedic"/>
  <outline>
    <contour>
      <point x="264.6551724137931" y="-5.0" type="curve" smooth="yes"/>
      <point x="371.86206896551727" y="-5.0"/>
      <point x="461.9310344827586" y="58.10344827586207"/>
      <point x="461.9310344827586" y="175.93103448275863" type="curve" smooth="yes"/>
      <point x="461.9310344827586" y="258.86206896551727"/>
      <point x="400.2413793103448" y="315.41379310344826"/>
      <point x="313.2068965517241" y="315.41379310344826" type="curve" smooth="yes"/>
      <point x="212.6206896551724" y="315.41379310344826"/>
      <point x="138.13793103448276" y="243.89655172413794"/>
      <point x="102.34482758620689" y="112.44827586206897" type="curve"/>
      <point x="135.79310344827587" y="90.41379310344827" type="line"/>
      <point x="159.51724137931035" y="190.20689655172413"/>
      <point x="213.13793103448276" y="240.9655172413793"/>
      <point x="269.55172413793105" y="240.9655172413793" type="curve" smooth="yes"/>
      <point x="323.55172413793105" y="240.9655172413793"/>
      <point x="345.58620689655174" y="201.48275862068965"/>
      <point x="345.58620689655174" y="161.44827586206895" type="curve" smooth="yes"/>
      <point x="345.58620689655174" y="105.65517241379311"/>
      <point x="314.17241379310343" y="56.44827586206897"/>
      <point x="244.3448275862069" y="56.44827586206897" type="curve" smooth="yes"/>
      <point x="167.6206896551724" y="56.44827586206897"/>
      <point x="113.58620689655173" y="129.48275862068965"/>
      <point x="113.58620689655173" y="223.58620689655172" type="curve" smooth="yes"/>
      <point x="113.58620689655173" y="398.2068965517241"/>
      <point x="237.0" y="501.2413793103448"/>
      <point x="441.86206896551727" y="501.2413793103448" type="curve" smooth="yes"/>
      <point x="690.0689655172414" y="501.2413793103448" type="line"/>
      <point x="583.448275862069" y="0.0" type="line"/>
      <point x="716.7931034482758" y="0.0" type="line"/>
      <point x="822.7931034482758" y="501.2413793103448" type="line"/>
      <point x="978.6206896551724" y="501.2413793103448" type="line"/>
      <point x="990.8620689655172" y="559.5862068965517" type="line"/>
      <point x="443.58620689655174" y="559.5862068965517" type="line" smooth="yes"/>
      <point x="203.3448275862069" y="559.5862068965517"/>
      <point x="53.10344827586207" y="426.3103448275862"/>
      <point x="53.10344827586207" y="219.20689655172413" type="curve" smooth="yes"/>
      <point x="53.10344827586207" y="94.65517241379311"/>
      <point x="134.27586206896552" y="-5.0"/>
    </contour>
  </outline>
</glyph>
<glyph name="ee-tamil" format="2">
  <advance width="948.0"/>
  <unicode hex="0B8F"/>
  <note>
uni0B8F
</note>
  <anchor x="452.37931034482756" y="0.0" name="bottom"/>
  <anchor x="408.6551724137931" y="-210.51724137931035" name="nukta"/>
  <anchor x="574.0" y="559.5862068965517" name="top"/>
  <anchor x="574.0" y="559.5862068965517" name="vedic"/>
  <outline>
    <contour>
      <point x="353.9655172413793" y="-264.82758620689657" type="line"/>
      <point x="721.8965517241379" y="24.551724137931036" type="line"/>
      <point x="823.4137931034483" y="501.2413793103448" type="line"/>
      <point x="978.2413793103449" y="501.2413793103448" type="line"/>
      <point x="990.8620689655172" y="559.5862068965517" type="line"/>
      <point x="443.58620689655174" y="559.5862068965517" type="line" smooth="yes"/>
      <point x="203.3448275862069" y="559.5862068965517"/>
      <point x="53.10344827586207" y="426.3103448275862"/>
      <point x="53.10344827586207" y="219.20689655172413" type="curve" smooth="yes"/>
      <point x="53.10344827586207" y="94.65517241379311"/>
      <point x="134.27586206896552" y="-5.0"/>
      <point x="264.6551724137931" y="-5.0" type="curve" smooth="yes"/>
      <point x="371.86206896551727" y="-5.0"/>
      <point x="461.9310344827586" y="58.10344827586207"/>
      <point x="461.9310344827586" y="175.93103448275863" type="curve" smooth="yes"/>
      <point x="461.9310344827586" y="258.86206896551727"/>
      <point x="400.2413793103448" y="315.41379310344826"/>
      <point x="313.2068965517241" y="315.41379310344826" type="curve" smooth="yes"/>
      <point x="212.6206896551724" y="315.41379310344826"/>
      <point x="138.13793103448276" y="243.89655172413794"/>
      <point x="102.34482758620689" y="112.44827586206897" type="curve"/>
      <point x="135.79310344827587" y="90.41379310344827" type="line"/>
      <point x="159.51724137931035" y="190.20689655172413"/>
      <point x="213.13793103448276" y="240.9655172413793"/>
      <point x="269.55172413793105" y="240.9655172413793" type="curve" smooth="yes"/>
      <point x="323.55172413793105" y="240.9655172413793"/>
      <point x="345.58620689655174" y="201.48275862068965"/>
      <point x="345.58620689655174" y="161.44827586206895" type="curve" smooth="yes"/>
      <point x="345.58620689655174" y="105.65517241379311"/>
      <point x="314.17241379310343" y="56.44827586206897"/>
      <point x="244.3448275862069" y="56.44827586206897" type="curve" smooth="yes"/>
      <point x="167.6206896551724" y="56.44827586206897"/>
      <point x="113.58620689655173" y="129.48275862068965"/>
      <point x="113.58620689655173" y="223.58620689655172" type="curve" smooth="yes"/>
      <point x="113.58620689655173" y="398.2068965517241"/>
      <point x="237.0" y="501.2413793103448"/>
      <point x="441.86206896551727" y="501.2413793103448" type="curve" smooth="yes"/>
      <point x="690.0689655172414" y="501.2413793103448" type="line"/>
      <point x="583.5862068965517" y="-3.793103448275863" type="line"/>
      <point x="316.9655172413793" y="-215.24137931034483" type="line"/>
    </contour>
  </outline>
</glyph>
<glyph name="ai-tamil" format="2">
  <advance width="1039.0"/>
  <unicode hex="0B90"/>
  <note>
uni0B90
</note>
  <anchor x="462.0" y="0.0" name="bottom"/>
  <anchor x="391.86206896551727" y="-313.37931034482756" name="nukta"/>
  <anchor x="593.2068965517242" y="559.5862068965517" name="top"/>
  <anchor x="593.448275862069" y="559.5862068965517" name="vedic"/>
  <outline>
    <contour>
      <point x="200.6206896551724" y="-313.37931034482756" type="curve" smooth="yes"/>
      <point x="307.55172413793105" y="-313.37931034482756"/>
      <point x="406.44827586206895" y="-272.37931034482756"/>
      <point x="447.9655172413793" y="-167.48275862068965" type="curve"/>
      <point x="449.7931034482759" y="-235.10344827586206"/>
      <point x="509.0" y="-313.37931034482756"/>
      <point x="653.9655172413793" y="-313.37931034482756" type="curve" smooth="yes"/>
      <point x="803.1724137931035" y="-313.37931034482756"/>
      <point x="908.6206896551724" y="-226.06896551724137"/>
      <point x="908.6206896551724" y="-78.44827586206897" type="curve" smooth="yes"/>
      <point x="908.6206896551724" y="-24.20689655172414"/>
      <point x="895.7241379310345" y="19.586206896551722"/>
      <point x="873.2068965517242" y="66.06896551724138" type="curve"/>
      <point x="820.2413793103449" y="38.310344827586206" type="line"/>
      <point x="838.1379310344828" y="0.8275862068965516"/>
      <point x="847.8965517241379" y="-36.10344827586207"/>
      <point x="847.8965517241379" y="-75.72413793103448" type="curve" smooth="yes"/>
      <point x="847.8965517241379" y="-190.44827586206895"/>
      <point x="762.3103448275862" y="-252.3793103448276"/>
      <point x="652.3448275862069" y="-252.3793103448276" type="curve" smooth="yes"/>
      <point x="554.6206896551724" y="-252.3793103448276"/>
      <point x="517.9655172413793" y="-180.0"/>
      <point x="538.2068965517242" y="-75.79310344827586" type="curve" smooth="yes"/>
      <point x="546.2068965517242" y="-34.172413793103445" type="line"/>
      <point x="411.37931034482756" y="-34.172413793103445" type="line"/>
      <point x="399.2758620689655" y="-90.55172413793103" type="line" smooth="yes"/>
      <point x="374.41379310344826" y="-206.44827586206895"/>
      <point x="303.37931034482756" y="-254.6551724137931"/>
      <point x="221.41379310344828" y="-254.6551724137931" type="curve" smooth="yes"/>
      <point x="151.3793103448276" y="-254.6551724137931"/>
      <point x="108.34482758620689" y="-213.0344827586207"/>
      <point x="108.34482758620689" y="-136.75862068965517" type="curve" smooth="yes"/>
      <point x="108.34482758620689" y="37.172413793103445"/>
      <point x="286.6551724137931" y="55.758620689655174"/>
      <point x="523.0344827586207" y="78.62068965517241" type="curve" smooth="yes"/>
      <point x="788.1379310344828" y="104.20689655172414"/>
      <point x="1000.551724137931" y="162.9655172413793"/>
      <point x="1000.551724137931" y="388.3448275862069" type="curve" smooth="yes"/>
      <point x="1000.551724137931" y="507.86206896551727"/>
      <point x="911.1724137931035" y="565.2068965517242"/>
      <point x="795.6896551724138" y="565.2068965517242" type="curve" smooth="yes"/>
      <point x="693.3103448275862" y="565.2068965517242"/>
      <point x="617.5862068965517" y="518.4827586206897"/>
      <point x="573.5862068965517" y="431.41379310344826" type="curve"/>
      <point x="549.9655172413793" y="520.0"/>
      <point x="465.0" y="565.2068965517242"/>
      <point x="350.2758620689655" y="565.2068965517242" type="curve" smooth="yes"/>
      <point x="197.89655172413794" y="565.2068965517242"/>
      <point x="71.72413793103448" y="472.2758620689655"/>
      <point x="71.72413793103448" y="320.9310344827586" type="curve" smooth="yes"/>
      <point x="71.72413793103448" y="228.24137931034483"/>
      <point x="134.93103448275863" y="157.86206896551724"/>
      <point x="231.6206896551724" y="157.86206896551724" type="curve" smooth="yes"/>
      <point x="318.3448275862069" y="157.86206896551724"/>
      <point x="402.17241379310343" y="203.3793103448276"/>
      <point x="402.17241379310343" y="298.0" type="curve" smooth="yes"/>
      <point x="402.17241379310343" y="368.2413793103448"/>
      <point x="351.55172413793105" y="410.7586206896552"/>
      <point x="280.58620689655174" y="410.7586206896552" type="curve" smooth="yes"/>
      <point x="208.6551724137931" y="410.7586206896552"/>
      <point x="139.31034482758622" y="373.0344827586207"/>
      <point x="102.44827586206897" y="248.3448275862069" type="curve"/>
      <point x="131.6206896551724" y="223.3793103448276" type="line"/>
      <point x="157.27586206896552" y="315.17241379310343"/>
      <point x="201.3793103448276" y="351.37931034482756"/>
      <point x="242.72413793103448" y="351.37931034482756" type="curve" smooth="yes"/>
      <point x="281.58620689655174" y="351.37931034482756"/>
      <point x="302.7241379310345" y="327.37931034482756"/>
      <point x="302.7241379310345" y="292.2413793103448" type="curve" smooth="yes"/>
      <point x="302.7241379310345" y="244.6206896551724"/>
      <point x="269.13793103448273" y="216.82758620689654"/>
      <point x="221.3793103448276" y="216.82758620689654" type="curve" smooth="yes"/>
      <point x="173.17241379310346" y="216.82758620689654"/>
      <point x="132.06896551724137" y="256.17241379310343"/>
      <point x="132.06896551724137" y="323.51724137931035" type="curve" smooth="yes"/>
      <point x="132.06896551724137" y="436.8965517241379"/>
      <point x="224.79310344827587" y="506.2413793103448"/>
      <point x="341.7931034482759" y="506.2413793103448" type="curve" smooth="yes"/>
      <point x="452.0344827586207" y="506.2413793103448"/>
      <point x="507.7241379310345" y="442.6896551724138"/>
      <point x="485.9655172413793" y="341.37931034482756" type="curve" smooth="yes"/>
      <point x="459.2413793103448" y="216.24137931034483" type="line"/>
      <point x="594.0689655172414" y="216.24137931034483" type="line"/>
      <point x="627.7931034482758" y="376.41379310344826" type="line" smooth="yes"/>
      <point x="644.6551724137931" y="457.37931034482756"/>
      <point x="693.0689655172414" y="506.2413793103448"/>
      <point x="764.4137931034483" y="506.2413793103448" type="curve" smooth="yes"/>
      <point x="831.7586206896551" y="506.2413793103448"/>
      <point x="866.9655172413793" y="464.6551724137931"/>
      <point x="866.9655172413793" y="396.7931034482759" type="curve" smooth="yes"/>
      <point x="866.9655172413793" y="189.06896551724137"/>
      <point x="711.448275862069" y="150.17241379310346"/>
      <point x="435.51724137931035" y="122.48275862068965" type="curve" smooth="yes"/>
      <point x="184.75862068965517" y="97.75862068965517"/>
      <point x="-24.862068965517242" y="63.06896551724138"/>
      <point x="-24.862068965517242" y="-129.93103448275863" type="curve" smooth="yes"/>
      <point x="-24.862068965517242" y="-242.31034482758622"/>
      <point x="68.82758620689656" y="-313.37931034482756"/>
    </contour>
  </outline>
</glyph>
<glyph name="o-tamil" format="2">
  <advance width="1039.7931034482758"/>
  <unicode hex="0B92"/>
  <note>
uni0B92
</note>
  <anchor x="470.7241379310345" y="0.0" name="bottom"/>
  <anchor x="397.7241379310345" y="-335.0" name="nukta"/>
  <anchor x="556.7586206896551" y="559.5862068965517" name="top"/>
  <anchor x="559.0344827586207" y="559.5862068965517" name="vedic"/>
  <outline>
    <contour>
      <point x="256.3103448275862" y="-364.0689655172414" type="curve" smooth="yes"/>
      <point x="488.51724137931035" y="-364.0689655172414"/>
      <point x="546.5862068965517" y="-155.93103448275863"/>
      <point x="724.7931034482758" y="-155.93103448275863" type="curve" smooth="yes"/>
      <point x="776.0344827586207" y="-155.93103448275863" type="line"/>
      <point x="788.8965517241379" y="-94.86206896551724" type="line"/>
      <point x="719.6551724137931" y="-94.86206896551724" type="line" smooth="yes"/>
      <point x="539.3793103448276" y="-94.86206896551724"/>
      <point x="484.13793103448273" y="95.0344827586207"/>
      <point x="620.5862068965517" y="221.0344827586207" type="curve"/>
      <point x="625.2068965517242" y="217.6551724137931" type="line"/>
      <point x="555.8620689655172" y="105.51724137931035"/>
      <point x="595.2068965517242" y="-5.0"/>
      <point x="731.3448275862069" y="-5.0" type="curve" smooth="yes"/>
      <point x="872.7931034482758" y="-5.0"/>
      <point x="976.8965517241379" y="90.96551724137932"/>
      <point x="976.8965517241379" y="241.20689655172413" type="curve" smooth="yes"/>
      <point x="976.8965517241379" y="458.2068965517241"/>
      <point x="765.7241379310345" y="564.5862068965517"/>
      <point x="530.2068965517242" y="564.5862068965517" type="curve" smooth="yes"/>
      <point x="259.7241379310345" y="564.5862068965517"/>
      <point x="49.241379310344826" y="415.62068965517244"/>
      <point x="49.241379310344826" y="213.0" type="curve" smooth="yes"/>
      <point x="49.241379310344826" y="88.44827586206897"/>
      <point x="124.20689655172414" y="-5.0"/>
      <point x="254.58620689655172" y="-5.0" type="curve" smooth="yes"/>
      <point x="361.7931034482759" y="-5.0"/>
      <point x="453.1034482758621" y="58.10344827586207"/>
      <point x="453.1034482758621" y="175.93103448275863" type="curve" smooth="yes"/>
      <point x="453.1034482758621" y="258.86206896551727"/>
      <point x="392.6551724137931" y="315.41379310344826"/>
      <point x="305.62068965517244" y="315.41379310344826" type="curve" smooth="yes"/>
      <point x="205.0344827586207" y="315.41379310344826"/>
      <point x="128.68965517241378" y="243.89655172413794"/>
      <point x="92.89655172413794" y="112.44827586206897" type="curve"/>
      <point x="126.34482758620689" y="90.41379310344827" type="line"/>
      <point x="150.06896551724137" y="190.20689655172413"/>
      <point x="205.55172413793105" y="240.9655172413793"/>
      <point x="261.9655172413793" y="240.9655172413793" type="curve" smooth="yes"/>
      <point x="315.9655172413793" y="240.9655172413793"/>
      <point x="336.7586206896552" y="201.48275862068965"/>
      <point x="336.7586206896552" y="161.44827586206895" type="curve" smooth="yes"/>
      <point x="336.7586206896552" y="105.65517241379311"/>
      <point x="304.1034482758621" y="56.44827586206897"/>
      <point x="234.27586206896552" y="56.44827586206897" type="curve" smooth="yes"/>
      <point x="157.55172413793105" y="56.44827586206897"/>
      <point x="109.72413793103448" y="123.27586206896552"/>
      <point x="109.72413793103448" y="217.3793103448276" type="curve" smooth="yes"/>
      <point x="109.72413793103448" y="386.62068965517244"/>
      <point x="295.6551724137931" y="506.2413793103448"/>
      <point x="519.1034482758621" y="506.2413793103448" type="curve" smooth="yes"/>
      <point x="706.7241379310345" y="506.2413793103448"/>
      <point x="852.3793103448276" y="410.9310344827586"/>
      <point x="852.3793103448276" y="254.31034482758622" type="curve" smooth="yes"/>
      <point x="852.3793103448276" y="144.58620689655172"/>
      <point x="802.1034482758621" y="56.44827586206897"/>
      <point x="712.9655172413793" y="56.44827586206897" type="curve" smooth="yes"/>
      <point x="620.551724137931" y="56.44827586206897"/>
      <point x="635.7931034482758" y="183.93103448275863"/>
      <point x="712.3448275862069" y="269.9310344827586" type="curve"/>
      <point x="663.6206896551724" y="315.17241379310343" type="line"/>
      <point x="486.3103448275862" y="208.6206896551724"/>
      <point x="429.13793103448273" y="-18.482758620689655"/>
      <point x="582.6206896551724" y="-114.24137931034483" type="curve"/>
      <point x="581.6206896551724" y="-119.24137931034483" type="line"/>
      <point x="441.7586206896552" y="-135.48275862068965"/>
      <point x="366.6896551724138" y="-296.82758620689657"/>
      <point x="231.6551724137931" y="-296.82758620689657" type="curve" smooth="yes"/>
      <point x="177.58620689655172" y="-296.82758620689657"/>
      <point x="150.20689655172413" y="-262.1034482758621"/>
      <point x="150.20689655172413" y="-221.48275862068965" type="curve" smooth="yes"/>
      <point x="150.20689655172413" y="-172.10344827586206"/>
      <point x="177.44827586206895" y="-147.0"/>
      <point x="229.0344827586207" y="-113.24137931034483" type="curve"/>
      <point x="201.13793103448276" y="-71.13793103448276" type="line"/>
      <point x="135.17241379310346" y="-114.65517241379311"/>
      <point x="93.6896551724138" y="-156.0"/>
      <point x="93.6896551724138" y="-229.0" type="curve" smooth="yes"/>
      <point x="93.6896551724138" y="-301.62068965517244"/>
      <point x="152.0344827586207" y="-364.0689655172414"/>
    </contour>
  </outline>
</glyph>
<glyph name="oo-tamil" format="2">
  <advance width="1039.7931034482758"/>
  <unicode hex="0B93"/>
  <note>
uni0B93
</note>
  <anchor x="450.58620689655174" y="0.0" name="bottom"/>
  <anchor x="376.0" y="-342.3103448275862" name="nukta"/>
  <anchor x="556.7586206896551" y="559.5862068965517" name="top"/>
  <anchor x="559.0344827586207" y="559.5862068965517" name="vedic"/>
  <outline>
    <contour>
      <point x="222.82758620689654" y="-386.48275862068965" type="curve" smooth="yes"/>
      <point x="463.41379310344826" y="-386.48275862068965"/>
      <point x="546.2068965517242" y="-155.93103448275863"/>
      <point x="724.4137931034483" y="-155.93103448275863" type="curve" smooth="yes"/>
      <point x="760.8965517241379" y="-155.93103448275863" type="line"/>
      <point x="773.7586206896551" y="-94.86206896551724" type="line"/>
      <point x="719.2758620689655" y="-94.86206896551724" type="line" smooth="yes"/>
      <point x="539.0" y="-94.86206896551724"/>
      <point x="483.37931034482756" y="95.0344827586207"/>
      <point x="620.2068965517242" y="220.6551724137931" type="curve"/>
      <point x="625.2068965517242" y="217.6551724137931" type="line"/>
      <point x="555.8620689655172" y="105.51724137931035"/>
      <point x="595.2068965517242" y="-5.0"/>
      <point x="731.3448275862069" y="-5.0" type="curve" smooth="yes"/>
      <point x="872.7931034482758" y="-5.0"/>
      <point x="976.8965517241379" y="90.96551724137932"/>
      <point x="976.8965517241379" y="241.20689655172413" type="curve" smooth="yes"/>
      <point x="976.8965517241379" y="458.2068965517241"/>
      <point x="765.7241379310345" y="564.5862068965517"/>
      <point x="530.2068965517242" y="564.5862068965517" type="curve" smooth="yes"/>
      <point x="259.7241379310345" y="564.5862068965517"/>
      <point x="49.241379310344826" y="415.62068965517244"/>
      <point x="49.241379310344826" y="213.0" type="curve" smooth="yes"/>
      <point x="49.241379310344826" y="88.44827586206897"/>
      <point x="124.20689655172414" y="-5.0"/>
      <point x="254.58620689655172" y="-5.0" type="curve" smooth="yes"/>
      <point x="361.7931034482759" y="-5.0"/>
      <point x="453.1034482758621" y="58.10344827586207"/>
      <point x="453.1034482758621" y="175.93103448275863" type="curve" smooth="yes"/>
      <point x="453.1034482758621" y="258.86206896551727"/>
      <point x="392.6551724137931" y="315.41379310344826"/>
      <point x="305.62068965517244" y="315.41379310344826" type="curve" smooth="yes"/>
      <point x="205.0344827586207" y="315.41379310344826"/>
      <point x="128.68965517241378" y="243.89655172413794"/>
      <point x="92.89655172413794" y="112.44827586206897" type="curve"/>
      <point x="126.34482758620689" y="90.41379310344827" type="line"/>
      <point x="150.06896551724137" y="190.20689655172413"/>
      <point x="205.55172413793105" y="240.9655172413793"/>
      <point x="261.9655172413793" y="240.9655172413793" type="curve" smooth="yes"/>
      <point x="315.9655172413793" y="240.9655172413793"/>
      <point x="336.7586206896552" y="201.48275862068965"/>
      <point x="336.7586206896552" y="161.44827586206895" type="curve" smooth="yes"/>
      <point x="336.7586206896552" y="105.65517241379311"/>
      <point x="304.1034482758621" y="56.44827586206897"/>
      <point x="234.27586206896552" y="56.44827586206897" type="curve" smooth="yes"/>
      <point x="157.55172413793105" y="56.44827586206897"/>
      <point x="109.72413793103448" y="123.27586206896552"/>
      <point x="109.72413793103448" y="217.3793103448276" type="curve" smooth="yes"/>
      <point x="109.72413793103448" y="386.62068965517244"/>
      <point x="295.6551724137931" y="506.2413793103448"/>
      <point x="519.1034482758621" y="506.2413793103448" type="curve" smooth="yes"/>
      <point x="706.7241379310345" y="506.2413793103448"/>
      <point x="852.3793103448276" y="410.9310344827586"/>
      <point x="852.3793103448276" y="254.31034482758622" type="curve" smooth="yes"/>
      <point x="852.3793103448276" y="144.58620689655172"/>
      <point x="802.1034482758621" y="56.44827586206897"/>
      <point x="712.9655172413793" y="56.44827586206897" type="curve" smooth="yes"/>
      <point x="620.551724137931" y="56.44827586206897"/>
      <point x="635.7931034482758" y="183.93103448275863"/>
      <point x="712.3448275862069" y="269.9310344827586" type="curve"/>
      <point x="663.6206896551724" y="315.17241379310343" type="line"/>
      <point x="485.17241379310343" y="208.6206896551724"/>
      <point x="428.7586206896552" y="-18.482758620689655"/>
      <point x="582.2413793103449" y="-114.24137931034483" type="curve"/>
      <point x="581.2413793103449" y="-119.24137931034483" type="line"/>
      <point x="441.37931034482756" y="-135.48275862068965"/>
      <point x="333.0689655172414" y="-321.1034482758621"/>
      <point x="198.0344827586207" y="-321.1034482758621" type="curve" smooth="yes"/>
      <point x="133.3793103448276" y="-321.1034482758621"/>
      <point x="106.51724137931035" y="-283.41379310344826"/>
      <point x="106.51724137931035" y="-237.58620689655172" type="curve" smooth="yes"/>
      <point x="106.51724137931035" y="-186.10344827586206"/>
      <point x="142.89655172413794" y="-150.79310344827587"/>
      <point x="188.48275862068965" y="-150.79310344827587" type="curve" smooth="yes"/>
      <point x="231.68965517241378" y="-150.79310344827587"/>
      <point x="267.7586206896552" y="-173.75862068965517"/>
      <point x="277.8965517241379" y="-224.75862068965517" type="curve"/>
      <point x="324.7586206896552" y="-206.31034482758622"/>
      <point x="359.13793103448273" y="-175.86206896551724"/>
      <point x="359.13793103448273" y="-131.41379310344828" type="curve" smooth="yes"/>
      <point x="359.13793103448273" y="-83.82758620689656"/>
      <point x="311.17241379310343" y="-60.724137931034484"/>
      <point x="251.86206896551724" y="-60.724137931034484" type="curve" smooth="yes"/>
      <point x="136.58620689655172" y="-60.724137931034484"/>
      <point x="48.137931034482754" y="-138.6551724137931"/>
      <point x="48.137931034482754" y="-244.3448275862069" type="curve" smooth="yes"/>
      <point x="48.137931034482754" y="-328.0344827586207"/>
      <point x="116.0" y="-386.48275862068965"/>
    </contour>
  </outline>
</glyph>
<glyph name="nga-tamil" format="2">
  <advance width="1045.8275862068965"/>
  <unicode hex="0B99"/>
  <note>
uni0B99
</note>
  <anchor x="462.48275862068965" y="0.0" name="bottom"/>
  <anchor x="620.8275862068965" y="559.5862068965517" name="imatra"/>
  <anchor x="463.1034482758621" y="0.0" name="nukta"/>
  <anchor x="579.8620689655172" y="559.5862068965517" name="top"/>
  <anchor x="582.3448275862069" y="559.5862068965517" name="vedic"/>
  <outline>
    <contour>
      <point x="32.793103448275865" y="0.0" type="line"/>
      <point x="94.03448275862068" y="0.0" type="line"/>
      <point x="200.6551724137931" y="501.2413793103448" type="line"/>
      <point x="354.8965517241379" y="501.2413793103448" type="line"/>
      <point x="286.7931034482759" y="182.9655172413793" type="line"/>
      <point x="412.0689655172414" y="182.9655172413793" type="line"/>
      <point x="419.3103448275862" y="216.17241379310346" type="line" smooth="yes"/>
      <point x="428.6896551724138" y="260.6896551724138"/>
      <point x="459.37931034482756" y="294.2758620689655"/>
      <point x="501.3103448275862" y="294.2758620689655" type="curve" smooth="yes"/>
      <point x="538.1034482758621" y="294.2758620689655"/>
      <point x="566.1379310344828" y="271.0"/>
      <point x="566.1379310344828" y="224.68965517241378" type="curve" smooth="yes"/>
      <point x="566.1379310344828" y="127.0"/>
      <point x="485.7931034482759" y="58.3448275862069"/>
      <point x="387.17241379310343" y="58.3448275862069" type="curve" smooth="yes"/>
      <point x="260.51724137931035" y="58.3448275862069" type="line"/>
      <point x="247.89655172413794" y="0.0" type="line"/>
      <point x="894.4137931034483" y="0.0" type="line"/>
      <point x="1013.2758620689655" y="559.5862068965517" type="line"/>
      <point x="877.448275862069" y="559.5862068965517" type="line"/>
      <point x="770.8275862068965" y="58.3448275862069" type="line"/>
      <point x="534.0" y="58.3448275862069" type="line"/>
      <point x="621.7241379310345" y="84.86206896551724"/>
      <point x="698.3793103448276" y="150.10344827586206"/>
      <point x="698.3793103448276" y="252.24137931034483" type="curve" smooth="yes"/>
      <point x="698.3793103448276" y="337.0"/>
      <point x="640.8620689655172" y="381.48275862068965"/>
      <point x="567.2758620689655" y="381.48275862068965" type="curve" smooth="yes"/>
      <point x="508.0" y="381.48275862068965"/>
      <point x="467.51724137931035" y="349.7241379310345"/>
      <point x="444.51724137931035" y="319.44827586206895" type="curve"/>
      <point x="483.8965517241379" y="501.2413793103448" type="line"/>
      <point x="634.3448275862069" y="501.2413793103448" type="line"/>
      <point x="646.9655172413793" y="559.5862068965517" type="line"/>
      <point x="152.0344827586207" y="559.5862068965517" type="line"/>
    </contour>
  </outline>
</glyph>
<glyph name="ja-tamil" format="2">
  <advance width="1042.0689655172414"/>
  <unicode hex="0B9C"/>
  <note>
uni0B9C
</note>
  <anchor x="463.37931034482756" y="0.0" name="bottom"/>
  <anchor x="393.2413793103448" y="-313.37931034482756" name="nukta"/>
  <anchor x="579.8965517241379" y="559.5862068965517" name="top"/>
  <anchor x="576.4137931034483" y="559.5862068965517" name="vedic"/>
  <outline>
    <contour>
      <point x="177.48275862068965" y="-313.37931034482756" type="curve" smooth="yes"/>
      <point x="410.3448275862069" y="-313.37931034482756"/>
      <point x="478.41379310344826" y="-19.482758620689655"/>
      <point x="670.4827586206897" y="-19.482758620689655" type="curve" smooth="yes"/>
      <point x="736.4827586206897" y="-19.482758620689655"/>
      <point x="771.7241379310345" y="-60.48275862068966"/>
      <point x="771.7241379310345" y="-118.82758620689656" type="curve" smooth="yes"/>
      <point x="771.7241379310345" y="-196.82758620689654"/>
      <point x="721.0" y="-253.82758620689654"/>
      <point x="638.0" y="-253.82758620689654" type="curve" smooth="yes"/>
      <point x="607.5172413793103" y="-253.82758620689654"/>
      <point x="572.4137931034483" y="-244.58620689655172"/>
      <point x="536.3103448275862" y="-220.24137931034483" type="curve"/>
      <point x="507.82758620689657" y="-259.86206896551727" type="line"/>
      <point x="559.2413793103449" y="-299.51724137931035"/>
      <point x="611.0689655172414" y="-313.37931034482756"/>
      <point x="673.1034482758621" y="-313.37931034482756" type="curve" smooth="yes"/>
      <point x="794.8965517241379" y="-313.37931034482756"/>
      <point x="905.0689655172414" y="-246.41379310344828"/>
      <point x="905.0689655172414" y="-118.82758620689656" type="curve" smooth="yes"/>
      <point x="905.0689655172414" y="-10.206896551724139"/>
      <point x="820.5862068965517" y="40.724137931034484"/>
      <point x="706.1034482758621" y="40.724137931034484" type="curve" smooth="yes"/>
      <point x="447.3448275862069" y="40.724137931034484"/>
      <point x="373.2413793103448" y="-255.41379310344828"/>
      <point x="208.6206896551724" y="-255.41379310344828" type="curve" smooth="yes"/>
      <point x="143.0689655172414" y="-255.41379310344828"/>
      <point x="111.44827586206897" y="-210.51724137931035"/>
      <point x="111.44827586206897" y="-131.13793103448276" type="curve" smooth="yes"/>
      <point x="111.44827586206897" y="37.48275862068966"/>
      <point x="268.2413793103448" y="57.37931034482759"/>
      <point x="520.1379310344828" y="83.10344827586206" type="curve" smooth="yes"/>
      <point x="790.1724137931035" y="110.6896551724138"/>
      <point x="1000.6896551724138" y="163.72413793103448"/>
      <point x="1000.6896551724138" y="388.3448275862069" type="curve" smooth="yes"/>
      <point x="1000.6896551724138" y="507.86206896551727"/>
      <point x="911.3103448275862" y="565.2068965517242"/>
      <point x="795.8275862068965" y="565.2068965517242" type="curve" smooth="yes"/>
      <point x="693.448275862069" y="565.2068965517242"/>
      <point x="617.7241379310345" y="518.4827586206897"/>
      <point x="573.7241379310345" y="431.41379310344826" type="curve"/>
      <point x="550.1034482758621" y="520.0"/>
      <point x="465.1379310344828" y="565.2068965517242"/>
      <point x="350.41379310344826" y="565.2068965517242" type="curve" smooth="yes"/>
      <point x="198.0344827586207" y="565.2068965517242"/>
      <point x="71.86206896551724" y="472.2758620689655"/>
      <point x="71.86206896551724" y="320.9310344827586" type="curve" smooth="yes"/>
      <point x="71.86206896551724" y="228.24137931034483"/>
      <point x="135.06896551724137" y="157.86206896551724"/>
      <point x="231.75862068965517" y="157.86206896551724" type="curve" smooth="yes"/>
      <point x="318.48275862068965" y="157.86206896551724"/>
      <point x="402.3103448275862" y="203.3793103448276"/>
      <point x="402.3103448275862" y="298.0" type="curve" smooth="yes"/>
      <point x="402.3103448275862" y="368.2413793103448"/>
      <point x="351.6896551724138" y="410.7586206896552"/>
      <point x="280.7241379310345" y="410.7586206896552" type="curve" smooth="yes"/>
      <point x="208.79310344827587" y="410.7586206896552"/>
      <point x="139.44827586206895" y="373.0344827586207"/>
      <point x="102.58620689655173" y="248.3448275862069" type="curve"/>
      <point x="131.75862068965517" y="223.3793103448276" type="line"/>
      <point x="157.41379310344828" y="315.17241379310343"/>
      <point x="201.51724137931035" y="351.37931034482756"/>
      <point x="242.86206896551724" y="351.37931034482756" type="curve" smooth="yes"/>
      <point x="281.7241379310345" y="351.37931034482756"/>
      <point x="302.86206896551727" y="327.37931034482756"/>
      <point x="302.86206896551727" y="292.2413793103448" type="curve" smooth="yes"/>
      <point x="302.86206896551727" y="244.6206896551724"/>
      <point x="269.2758620689655" y="216.82758620689654"/>
      <point x="221.51724137931035" y="216.82758620689654" type="curve" smooth="yes"/>
      <point x="173.31034482758622" y="216.82758620689654"/>
      <point x="132.20689655172413" y="256.17241379310343"/>
      <point x="132.20689655172413" y="323.51724137931035" type="curve" smooth="yes"/>
      <point x="132.20689655172413" y="436.8965517241379"/>
      <point x="224.93103448275863" y="506.2413793103448"/>
      <point x="341.9310344827586" y="506.2413793103448" type="curve" smooth="yes"/>
      <point x="452.17241379310343" y="506.2413793103448"/>
      <point x="507.86206896551727" y="442.6896551724138"/>
      <point x="486.1034482758621" y="341.37931034482756" type="curve" smooth="yes"/>
      <point x="459.37931034482756" y="216.24137931034483" type="line"/>
      <point x="594.2068965517242" y="216.24137931034483" type="line"/>
      <point x="627.9310344827586" y="376.41379310344826" type="line" smooth="yes"/>
      <point x="644.7931034482758" y="457.37931034482756"/>
      <point x="693.8275862068965" y="506.2413793103448"/>
      <point x="765.1724137931035" y="506.2413793103448" type="curve" smooth="yes"/>
      <point x="832.5172413793103" y="506.2413793103448"/>
      <point x="867.1034482758621" y="464.6551724137931"/>
      <point x="867.1034482758621" y="396.7931034482759" type="curve" smooth="yes"/>
      <point x="867.1034482758621" y="189.82758620689654"/>
      <point x="713.4827586206897" y="149.20689655172413"/>
      <point x="432.62068965517244" y="120.75862068965517" type="curve" smooth="yes"/>
      <point x="181.86206896551724" y="95.65517241379311"/>
      <point x="-21.75862068965517" y="63.37931034482759"/>
      <point x="-21.75862068965517" y="-124.3103448275862" type="curve" smooth="yes"/>
      <point x="-21.75862068965517" y="-239.79310344827587"/>
      <point x="48.689655172413794" y="-313.37931034482756"/>
    </contour>
  </outline>
</glyph>
<glyph name="nya-tamil" format="2">
  <advance width="1352.8620689655172"/>
  <unicode hex="0B9E"/>
  <note>
uni0B9E
</note>
  <anchor x="652.4827586206897" y="0.0" name="bottom"/>
  <anchor x="1121.0344827586207" y="559.5862068965517" name="imatra"/>
  <anchor x="578.0689655172414" y="-368.48275862068965" name="nukta"/>
  <anchor x="778.8620689655172" y="559.5862068965517" name="top"/>
  <anchor x="740.3448275862069" y="559.5862068965517" name="vedic"/>
  <outline>
    <contour>
      <point x="578.0689655172414" y="-368.48275862068965" type="curve" smooth="yes"/>
      <point x="976.7241379310345" y="-368.48275862068965"/>
      <point x="1269.8620689655172" y="-137.75862068965517"/>
      <point x="1269.8620689655172" y="162.93103448275863" type="curve" smooth="yes"/>
      <point x="1269.8620689655172" y="277.51724137931035"/>
      <point x="1215.0" y="342.51724137931035"/>
      <point x="1116.4137931034484" y="342.51724137931035" type="curve" smooth="yes"/>
      <point x="1022.7931034482758" y="342.51724137931035"/>
      <point x="961.2413793103449" y="271.3103448275862"/>
      <point x="942.4827586206897" y="186.24137931034483" type="curve" smooth="yes"/>
      <point x="933.7241379310345" y="146.68965517241378" type="line"/>
      <point x="961.9655172413793" y="146.68965517241378" type="line"/>
      <point x="970.1034482758621" y="188.0" type="line" smooth="yes"/>
      <point x="978.6206896551724" y="231.06896551724137"/>
      <point x="1006.4827586206897" y="264.8965517241379"/>
      <point x="1054.344827586207" y="264.8965517241379" type="curve" smooth="yes"/>
      <point x="1102.1379310344828" y="264.8965517241379"/>
      <point x="1131.0344827586207" y="229.75862068965517"/>
      <point x="1131.0344827586207" y="156.48275862068965" type="curve" smooth="yes"/>
      <point x="1131.0344827586207" y="-93.17241379310344"/>
      <point x="917.6896551724138" y="-310.13793103448273"/>
      <point x="581.448275862069" y="-310.13793103448273" type="curve" smooth="yes"/>
      <point x="290.7931034482759" y="-310.13793103448273"/>
      <point x="96.24137931034483" y="-127.79310344827586"/>
      <point x="96.24137931034483" y="140.82758620689654" type="curve" smooth="yes"/>
      <point x="96.24137931034483" y="345.7241379310345"/>
      <point x="193.6206896551724" y="497.13793103448273"/>
      <point x="370.7931034482759" y="635.6896551724138" type="curve"/>
      <point x="333.9655172413793" y="680.6896551724138" type="line"/>
      <point x="144.6551724137931" y="533.2413793103449"/>
      <point x="33.6551724137931" y="358.51724137931035"/>
      <point x="33.6551724137931" y="134.20689655172413" type="curve" smooth="yes"/>
      <point x="33.6551724137931" y="-160.0344827586207"/>
      <point x="257.0689655172414" y="-368.48275862068965"/>
    </contour>
    <component base="e-tamil" xOffset="216.58620689655172"/>
  </outline>
</glyph>
<glyph name="tta-tamil" format="2">
  <advance width="918.4137931034483"/>
  <unicode hex="0B9F"/>
  <note>
uni0B9F
</note>
  <anchor x="416.44827586206895" y="0.0" name="bottom"/>
  <anchor x="416.44827586206895" y="0.0" name="nukta"/>
  <anchor x="558.6551724137931" y="559.5862068965517" name="top"/>
  <anchor x="559.8965517241379" y="559.5862068965517" name="vedic"/>
  <outline>
    <contour>
      <point x="32.793103448275865" y="0.0" type="line"/>
      <point x="847.8965517241379" y="0.0" type="line"/>
      <point x="860.5172413793103" y="58.3448275862069" type="line"/>
      <point x="180.86206896551724" y="58.3448275862069" type="line"/>
      <point x="287.48275862068965" y="559.5862068965517" type="line"/>
      <point x="152.0344827586207" y="559.5862068965517" type="line"/>
    </contour>
  </outline>
</glyph>
<glyph name="na-tamil" format="2">
  <advance width="816.4137931034483"/>
  <unicode hex="0BA8"/>
  <note>
uni0BA8
</note>
  <anchor x="327.2758620689655" y="0.0" name="bottom"/>
  <anchor x="575.3793103448276" y="559.5862068965517" name="imatra"/>
  <anchor x="285.2413793103448" y="-210.17241379310346" name="nukta"/>
  <anchor x="453.1034482758621" y="559.5862068965517" name="top"/>
  <anchor x="478.0" y="559.5862068965517" name="vedic"/>
  <outline>
    <contour>
      <point x="77.9655172413793" y="-263.8965517241379" type="curve"/>
      <point x="94.82758620689656" y="-184.3448275862069"/>
      <point x="127.79310344827587" y="-135.0344827586207"/>
      <point x="232.82758620689657" y="-135.0344827586207" type="curve" smooth="yes"/>
      <point x="318.1034482758621" y="-135.0344827586207" type="line" smooth="yes"/>
      <point x="536.6896551724138" y="-135.0344827586207"/>
      <point x="739.0344827586207" y="-41.93103448275862"/>
      <point x="739.0344827586207" y="175.6551724137931" type="curve" smooth="yes"/>
      <point x="739.0344827586207" y="281.37931034482756"/>
      <point x="679.8275862068965" y="342.51724137931035"/>
      <point x="589.6896551724138" y="342.51724137931035" type="curve" smooth="yes"/>
      <point x="524.448275862069" y="342.51724137931035"/>
      <point x="484.9310344827586" y="308.86206896551727"/>
      <point x="459.9655172413793" y="278.2413793103448" type="curve"/>
      <point x="506.9655172413793" y="501.2413793103448" type="line"/>
      <point x="643.9310344827586" y="501.2413793103448" type="line"/>
      <point x="656.551724137931" y="559.5862068965517" type="line"/>
      <point x="151.6551724137931" y="559.5862068965517" type="line"/>
      <point x="32.793103448275865" y="0.0" type="line"/>
      <point x="98.37931034482759" y="0.0" type="line"/>
      <point x="204.3793103448276" y="501.2413793103448" type="line"/>
      <point x="372.13793103448273" y="501.2413793103448" type="line"/>
      <point x="266.13793103448273" y="0.0" type="line"/>
      <point x="400.3448275862069" y="0.0" type="line"/>
      <point x="440.3448275862069" y="188.0" type="line" smooth="yes"/>
      <point x="449.48275862068965" y="231.06896551724137"/>
      <point x="480.9310344827586" y="264.8965517241379"/>
      <point x="525.3793103448276" y="264.8965517241379" type="curve" smooth="yes"/>
      <point x="573.1724137931035" y="264.8965517241379"/>
      <point x="600.2068965517242" y="233.0"/>
      <point x="600.2068965517242" y="169.20689655172413" type="curve" smooth="yes"/>
      <point x="600.2068965517242" y="4.931034482758621"/>
      <point x="484.3103448275862" y="-83.55172413793103"/>
      <point x="320.1034482758621" y="-83.55172413793103" type="curve" smooth="yes"/>
      <point x="191.44827586206895" y="-83.55172413793103" type="line" smooth="yes"/>
      <point x="68.0344827586207" y="-83.55172413793103"/>
      <point x="-20.24137931034483" y="-111.03448275862068"/>
      <point x="-20.24137931034483" y="-189.86206896551724" type="curve" smooth="yes"/>
      <point x="-20.24137931034483" y="-240.17241379310346"/>
      <point x="17.551724137931036" y="-263.8965517241379"/>
    </contour>
  </outline>
</glyph>
<glyph name="nnna-tamil" format="2">
  <advance width="1375.6206896551723"/>
  <unicode hex="0BA9"/>
  <note>
uni0BA9
</note>
  <anchor x="619.8275862068965" y="0.0" name="bottom"/>
  <anchor x="1271.9310344827586" y="559.5862068965517" name="imatra"/>
  <anchor x="619.8275862068965" y="0.0" name="nukta"/>
  <anchor x="772.3793103448276" y="559.5862068965517" name="top"/>
  <anchor x="769.8620689655172" y="559.5862068965517" name="vedic"/>
  <outline>
    <contour>
      <point x="262.0344827586207" y="-5.0" type="curve" smooth="yes"/>
      <point x="369.2413793103448" y="-5.0"/>
      <point x="459.3103448275862" y="58.10344827586207"/>
      <point x="459.3103448275862" y="175.93103448275863" type="curve" smooth="yes"/>
      <point x="459.3103448275862" y="258.86206896551727"/>
      <point x="397.62068965517244" y="315.41379310344826"/>
      <point x="310.58620689655174" y="315.41379310344826" type="curve" smooth="yes"/>
      <point x="210.0" y="315.41379310344826"/>
      <point x="135.51724137931035" y="243.89655172413794"/>
      <point x="99.72413793103448" y="112.44827586206897" type="curve"/>
      <point x="133.17241379310346" y="90.41379310344827" type="line"/>
      <point x="156.89655172413794" y="190.20689655172413"/>
      <point x="210.51724137931035" y="240.9655172413793"/>
      <point x="266.9310344827586" y="240.9655172413793" type="curve" smooth="yes"/>
      <point x="320.9310344827586" y="240.9655172413793"/>
      <point x="342.9655172413793" y="201.48275862068965"/>
      <point x="342.9655172413793" y="161.44827586206895" type="curve" smooth="yes"/>
      <point x="342.9655172413793" y="105.65517241379311"/>
      <point x="311.55172413793105" y="56.44827586206897"/>
      <point x="241.72413793103448" y="56.44827586206897" type="curve" smooth="yes"/>
      <point x="165.0" y="56.44827586206897"/>
      <point x="110.96551724137932" y="129.48275862068965"/>
      <point x="110.96551724137932" y="223.58620689655172" type="curve" smooth="yes"/>
      <point x="110.96551724137932" y="392.82758620689657"/>
      <point x="282.2413793103448" y="506.2413793103448"/>
      <point x="467.37931034482756" y="506.2413793103448" type="curve" smooth="yes"/>
      <point x="656.1379310344828" y="506.2413793103448"/>
      <point x="792.8620689655172" y="395.2068965517241"/>
      <point x="792.8620689655172" y="231.20689655172413" type="curve" smooth="yes"/>
      <point x="792.8620689655172" y="124.06896551724138"/>
      <point x="748.6896551724138" y="60.06896551724138"/>
      <point x="676.0344827586207" y="60.06896551724138" type="curve" smooth="yes"/>
      <point x="629.0" y="60.06896551724138"/>
      <point x="601.4827586206897" y="103.3103448275862"/>
      <point x="601.4827586206897" y="177.3448275862069" type="curve" smooth="yes"/>
      <point x="601.4827586206897" y="377.2758620689655"/>
      <point x="811.0689655172414" y="501.2413793103448"/>
      <point x="1023.0689655172414" y="501.2413793103448" type="curve" smooth="yes"/>
      <point x="1405.8620689655172" y="501.2413793103448" type="line"/>
      <point x="1418.4827586206898" y="559.5862068965517" type="line"/>
      <point x="1031.2068965517242" y="559.5862068965517" type="line" smooth="yes"/>
      <point x="775.2758620689655" y="559.5862068965517"/>
      <point x="541.1379310344828" y="411.7586206896552"/>
      <point x="541.1379310344828" y="178.68965517241378" type="curve" smooth="yes"/>
      <point x="541.1379310344828" y="81.58620689655173"/>
      <point x="585.8965517241379" y="-5.0"/>
      <point x="704.0689655172414" y="-5.0" type="curve" smooth="yes"/>
      <point x="816.6551724137931" y="-5.0"/>
      <point x="918.5172413793103" y="75.34482758620689"/>
      <point x="918.5172413793103" y="220.3448275862069" type="curve" smooth="yes"/>
      <point x="918.5172413793103" y="446.48275862068965"/>
      <point x="713.1379310344828" y="564.5862068965517"/>
      <point x="478.48275862068965" y="564.5862068965517" type="curve" smooth="yes"/>
      <point x="245.06896551724137" y="564.5862068965517"/>
      <point x="50.48275862068966" y="423.0689655172414"/>
      <point x="50.48275862068966" y="219.20689655172413" type="curve" smooth="yes"/>
      <point x="50.48275862068966" y="94.65517241379311"/>
      <point x="131.6551724137931" y="-5.0"/>
    </contour>
    <contour>
      <point x="1010.6896551724138" y="0.0" type="line"/>
      <point x="1144.0344827586207" y="0.0" type="line"/>
      <point x="1256.4137931034484" y="529.6206896551724" type="line"/>
      <point x="1123.6896551724137" y="529.6206896551724" type="line"/>
    </contour>
  </outline>
</glyph>
<glyph name="pa-tamil" format="2">
  <advance width="923.4827586206897"/>
  <unicode hex="0BAA"/>
  <note>
uni0BAA
</note>
  <anchor x="402.86206896551727" y="0.0" name="bottom"/>
  <anchor x="881.9310344827586" y="559.5862068965517" name="imatra"/>
  <anchor x="402.86206896551727" y="0.0" name="nukta"/>
  <anchor x="519.0" y="559.5862068965517" name="top"/>
  <anchor x="521.4827586206897" y="559.5862068965517" name="vedic"/>
  <outline>
    <contour>
      <point x="32.793103448275865" y="0.0" type="line"/>
      <point x="772.0689655172414" y="0.0" type="line"/>
      <point x="890.6896551724138" y="559.5862068965517" type="line"/>
      <point x="755.4827586206897" y="559.5862068965517" type="line"/>
      <point x="648.8620689655172" y="58.3448275862069" type="line"/>
      <point x="178.3793103448276" y="58.3448275862069" type="line"/>
      <point x="285.0" y="559.5862068965517" type="line"/>
      <point x="152.0344827586207" y="559.5862068965517" type="line"/>
    </contour>
  </outline>
</glyph>
<glyph name="ma-tamil" format="2">
  <advance width="937.7931034482758"/>
  <unicode hex="0BAE"/>
  <note>
uni0BAE
</note>
  <anchor x="409.2758620689655" y="0.0" name="bottom"/>
  <anchor x="906.1379310344828" y="559.5862068965517" name="imatra"/>
  <anchor x="409.6551724137931" y="0.0" name="nukta"/>
  <anchor x="560.2068965517242" y="559.5862068965517" name="top"/>
  <anchor x="544.8965517241379" y="559.5862068965517" name="vedic"/>
  <outline>
    <contour>
      <point x="32.793103448275865" y="0.0" type="line"/>
      <point x="651.4827586206897" y="0.0" type="line" smooth="yes"/>
      <point x="807.6206896551724" y="0.0"/>
      <point x="872.2758620689655" y="136.17241379310346"/>
      <point x="872.2758620689655" y="319.7241379310345" type="curve" smooth="yes"/>
      <point x="872.2758620689655" y="470.0689655172414"/>
      <point x="804.8965517241379" y="565.2068965517242"/>
      <point x="673.9655172413793" y="565.2068965517242" type="curve" smooth="yes"/>
      <point x="564.6551724137931" y="565.2068965517242"/>
      <point x="489.3448275862069" y="502.86206896551727"/>
      <point x="465.7241379310345" y="389.51724137931035" type="curve" smooth="yes"/>
      <point x="395.9655172413793" y="58.3448275862069" type="line"/>
      <point x="180.86206896551724" y="58.3448275862069" type="line"/>
      <point x="287.48275862068965" y="559.5862068965517" type="line"/>
      <point x="152.0344827586207" y="559.5862068965517" type="line"/>
    </contour>
    <contour>
      <point x="530.551724137931" y="58.3448275862069" type="line"/>
      <point x="601.551724137931" y="396.7241379310345" type="line" smooth="yes"/>
      <point x="616.9310344827586" y="469.62068965517244"/>
      <point x="648.5862068965517" y="499.37931034482756"/>
      <point x="700.0" y="499.37931034482756" type="curve" smooth="yes"/>
      <point x="765.3793103448276" y="499.37931034482756"/>
      <point x="806.9310344827586" y="437.41379310344826"/>
      <point x="806.9310344827586" y="310.7241379310345" type="curve" smooth="yes"/>
      <point x="806.9310344827586" y="176.51724137931035"/>
      <point x="765.4137931034483" y="58.3448275862069"/>
      <point x="657.5862068965517" y="58.3448275862069" type="curve" smooth="yes"/>
    </contour>
  </outline>
</glyph>
<glyph name="ya-tamil" format="2">
  <advance width="1012.7586206896551"/>
  <unicode hex="0BAF"/>
  <note>
uni0BAF
</note>
  <anchor x="503.0344827586207" y="0.0" name="bottom"/>
  <anchor x="970.5862068965517" y="559.5862068965517" name="imatra"/>
  <anchor x="503.0344827586207" y="0.0" name="nukta"/>
  <anchor x="568.9310344827586" y="559.5862068965517" name="top"/>
  <anchor x="565.448275862069" y="559.5862068965517" name="vedic"/>
  <outline>
    <contour>
      <point x="201.89655172413794" y="-8.10344827586207" type="curve" smooth="yes"/>
      <point x="286.9310344827586" y="-8.10344827586207"/>
      <point x="329.0689655172414" y="39.275862068965516"/>
      <point x="346.7931034482759" y="63.13793103448276" type="curve"/>
      <point x="333.41379310344826" y="0.0" type="line"/>
      <point x="861.3448275862069" y="0.0" type="line"/>
      <point x="979.5862068965517" y="559.5862068965517" type="line"/>
      <point x="845.0" y="559.5862068965517" type="line"/>
      <point x="738.3793103448276" y="58.3448275862069" type="line"/>
      <point x="469.51724137931035" y="58.3448275862069" type="line"/>
      <point x="575.5172413793103" y="559.5862068965517" type="line"/>
      <point x="442.9310344827586" y="559.5862068965517" type="line"/>
      <point x="355.82758620689657" y="150.68965517241378" type="line" smooth="yes"/>
      <point x="344.6896551724138" y="98.13793103448276"/>
      <point x="309.6896551724138" y="59.724137931034484"/>
      <point x="258.1379310344828" y="59.724137931034484" type="curve" smooth="yes"/>
      <point x="211.48275862068965" y="59.724137931034484"/>
      <point x="184.3448275862069" y="98.48275862068965"/>
      <point x="197.9655172413793" y="161.3448275862069" type="curve" smooth="yes"/>
      <point x="282.58620689655174" y="559.5862068965517" type="line"/>
      <point x="148.13793103448276" y="559.5862068965517" type="line"/>
      <point x="67.75862068965517" y="178.9655172413793" type="line" smooth="yes"/>
      <point x="45.37931034482759" y="72.96551724137932"/>
      <point x="100.58620689655173" y="-8.10344827586207"/>
    </contour>
  </outline>
</glyph>
<glyph name="ra-tamil" format="2">
  <advance width="659.6206896551724"/>
  <unicode hex="0BB0"/>
  <note>
uni0BB0
</note>
  <anchor x="274.0689655172414" y="0.0" name="bottom"/>
  <anchor x="617.4137931034483" y="559.5862068965517" name="imatra"/>
  <anchor x="227.9655172413793" y="-217.0" name="nukta"/>
  <anchor x="411.8965517241379" y="559.5862068965517" name="top"/>
  <anchor x="430.0689655172414" y="559.5862068965517" name="vedic"/>
  <outline>
    <contour>
      <point x="66.9655172413793" y="-264.44827586206895" type="line"/>
      <point x="434.8965517241379" y="24.93103448275862" type="line"/>
      <point x="535.2758620689655" y="501.2413793103448" type="line"/>
      <point x="689.8620689655172" y="501.2413793103448" type="line"/>
      <point x="702.1034482758621" y="559.5862068965517" type="line"/>
      <point x="152.0344827586207" y="559.5862068965517" type="line"/>
      <point x="32.793103448275865" y="0.0" type="line"/>
      <point x="98.37931034482759" y="0.0" type="line"/>
      <point x="205.0" y="501.2413793103448" type="line"/>
      <point x="398.58620689655174" y="501.2413793103448" type="line"/>
      <point x="289.86206896551727" y="-7.137931034482758" type="line"/>
      <point x="29.96551724137931" y="-214.86206896551724" type="line"/>
    </contour>
  </outline>
</glyph>
<glyph name="rra-tamil" format="2">
  <advance width="883.8620689655172"/>
  <unicode hex="0BB1"/>
  <note>
uni0BB1
</note>
  <anchor x="375.9655172413793" y="0.0" name="bottom"/>
  <anchor x="331.86206896551727" y="-203.9655172413793" name="nukta"/>
  <anchor x="480.55172413793105" y="559.5862068965517" name="top"/>
  <anchor x="513.6896551724138" y="559.5862068965517" name="vedic"/>
  <outline>
    <contour>
      <point x="76.13793103448276" y="-260.7931034482759" type="curve"/>
      <point x="93.0" y="-181.24137931034483"/>
      <point x="125.9655172413793" y="-132.68965517241378"/>
      <point x="231.0" y="-132.68965517241378" type="curve" smooth="yes"/>
      <point x="355.41379310344826" y="-132.68965517241378" type="line" smooth="yes"/>
      <point x="666.6896551724138" y="-132.68965517241378"/>
      <point x="834.1379310344828" y="21.655172413793103"/>
      <point x="834.1379310344828" y="323.41379310344826" type="curve" smooth="yes"/>
      <point x="834.1379310344828" y="477.44827586206895"/>
      <point x="752.6206896551724" y="564.5862068965517"/>
      <point x="621.8965517241379" y="564.5862068965517" type="curve" smooth="yes"/>
      <point x="518.1379310344828" y="564.5862068965517"/>
      <point x="456.51724137931035" y="502.62068965517244"/>
      <point x="429.17241379310343" y="454.2068965517241" type="curve"/>
      <point x="419.17241379310343" y="507.2068965517241"/>
      <point x="378.0689655172414" y="563.5862068965517"/>
      <point x="291.1034482758621" y="563.5862068965517" type="curve" smooth="yes"/>
      <point x="197.17241379310346" y="563.5862068965517"/>
      <point x="134.68965517241378" y="499.48275862068965"/>
      <point x="112.58620689655173" y="393.9655172413793" type="curve" smooth="yes"/>
      <point x="28.689655172413794" y="0.0" type="line"/>
      <point x="94.27586206896552" y="0.0" type="line"/>
      <point x="176.55172413793105" y="388.37931034482756" type="line" smooth="yes"/>
      <point x="192.0344827586207" y="461.3103448275862"/>
      <point x="224.93103448275863" y="502.13793103448273"/>
      <point x="278.6551724137931" y="502.13793103448273" type="curve" smooth="yes"/>
      <point x="341.55172413793105" y="502.13793103448273"/>
      <point x="362.41379310344826" y="450.48275862068965"/>
      <point x="347.55172413793105" y="379.41379310344826" type="curve" smooth="yes"/>
      <point x="266.7931034482759" y="0.0" type="line"/>
      <point x="401.37931034482756" y="0.0" type="line"/>
      <point x="480.8965517241379" y="375.9310344827586" type="line" smooth="yes"/>
      <point x="498.7586206896552" y="460.7241379310345"/>
      <point x="547.1724137931035" y="503.13793103448273"/>
      <point x="602.3448275862069" y="503.13793103448273" type="curve" smooth="yes"/>
      <point x="670.0" y="503.13793103448273"/>
      <point x="700.7931034482758" y="447.0344827586207"/>
      <point x="700.7931034482758" y="345.7241379310345" type="curve" smooth="yes"/>
      <point x="700.7931034482758" y="92.27586206896552"/>
      <point x="596.2068965517242" y="-79.3103448275862"/>
      <point x="355.3103448275862" y="-79.3103448275862" type="curve" smooth="yes"/>
      <point x="190.24137931034483" y="-79.3103448275862" type="line" smooth="yes"/>
      <point x="66.20689655172414" y="-79.3103448275862"/>
      <point x="-22.06896551724138" y="-107.93103448275862"/>
      <point x="-22.06896551724138" y="-186.75862068965517" type="curve" smooth="yes"/>
      <point x="-22.06896551724138" y="-237.06896551724137"/>
      <point x="15.724137931034484" y="-260.7931034482759"/>
    </contour>
  </outline>
</glyph>
<glyph name="la-tamil" format="2">
  <advance width="1101.3103448275863"/>
  <unicode hex="0BB2"/>
  <note>
uni0BB2
</note>
  <anchor x="496.51724137931035" y="0.0" name="bottom"/>
  <anchor x="496.51724137931035" y="0.0" name="nukta"/>
  <anchor x="626.5862068965517" y="559.5862068965517" name="top"/>
  <anchor x="611.7586206896551" y="559.5862068965517" name="vedic"/>
  <outline>
    <contour>
      <point x="264.0344827586207" y="-5.0" type="curve" smooth="yes"/>
      <point x="371.2413793103448" y="-5.0"/>
      <point x="461.3103448275862" y="58.10344827586207"/>
      <point x="461.3103448275862" y="175.93103448275863" type="curve" smooth="yes"/>
      <point x="461.3103448275862" y="258.86206896551727"/>
      <point x="399.62068965517244" y="315.41379310344826"/>
      <point x="312.58620689655174" y="315.41379310344826" type="curve" smooth="yes"/>
      <point x="212.0" y="315.41379310344826"/>
      <point x="137.51724137931035" y="243.89655172413794"/>
      <point x="101.72413793103448" y="112.44827586206897" type="curve"/>
      <point x="135.17241379310346" y="90.41379310344827" type="line"/>
      <point x="158.89655172413794" y="190.20689655172413"/>
      <point x="212.51724137931035" y="240.9655172413793"/>
      <point x="268.9310344827586" y="240.9655172413793" type="curve" smooth="yes"/>
      <point x="322.9310344827586" y="240.9655172413793"/>
      <point x="344.9655172413793" y="201.48275862068965"/>
      <point x="344.9655172413793" y="161.44827586206895" type="curve" smooth="yes"/>
      <point x="344.9655172413793" y="105.65517241379311"/>
      <point x="313.55172413793105" y="56.44827586206897"/>
      <point x="243.72413793103448" y="56.44827586206897" type="curve" smooth="yes"/>
      <point x="167.0" y="56.44827586206897"/>
      <point x="112.96551724137932" y="129.48275862068965"/>
      <point x="112.96551724137932" y="223.58620689655172" type="curve" smooth="yes"/>
      <point x="112.96551724137932" y="395.9310344827586"/>
      <point x="240.51724137931035" y="506.2413793103448"/>
      <point x="419.37931034482756" y="506.2413793103448" type="curve" smooth="yes"/>
      <point x="557.3103448275862" y="506.2413793103448"/>
      <point x="624.4827586206897" y="422.7586206896552"/>
      <point x="595.0" y="281.13793103448273" type="curve" smooth="yes"/>
      <point x="577.2068965517242" y="196.9655172413793" type="line" smooth="yes"/>
      <point x="552.5862068965517" y="80.03448275862068"/>
      <point x="616.1379310344828" y="-3.103448275862069"/>
      <point x="750.0344827586207" y="-3.103448275862069" type="curve" smooth="yes"/>
      <point x="933.4137931034483" y="-3.103448275862069"/>
      <point x="1054.655172413793" y="161.10344827586206"/>
      <point x="1054.655172413793" y="352.0689655172414" type="curve" smooth="yes"/>
      <point x="1054.655172413793" y="437.82758620689657"/>
      <point x="1028.1379310344828" y="504.86206896551727"/>
      <point x="989.2413793103449" y="564.9655172413793" type="curve"/>
      <point x="938.4137931034483" y="532.5862068965517" type="line"/>
      <point x="970.6551724137931" y="479.6551724137931"/>
      <point x="995.2068965517242" y="419.3448275862069"/>
      <point x="995.2068965517242" y="344.86206896551727" type="curve" smooth="yes"/>
      <point x="995.2068965517242" y="195.13793103448276"/>
      <point x="898.2413793103449" y="57.13793103448276"/>
      <point x="776.2068965517242" y="57.13793103448276" type="curve" smooth="yes"/>
      <point x="705.2068965517242" y="57.13793103448276"/>
      <point x="692.0689655172414" y="116.13793103448276"/>
      <point x="708.0689655172414" y="187.27586206896552" type="curve" smooth="yes"/>
      <point x="729.8275862068965" y="286.58620689655174" type="line" smooth="yes"/>
      <point x="769.1724137931035" y="466.7241379310345"/>
      <point x="638.9655172413793" y="564.5862068965517"/>
      <point x="442.8965517241379" y="564.5862068965517" type="curve" smooth="yes"/>
      <point x="213.89655172413794" y="564.5862068965517"/>
      <point x="52.48275862068966" y="426.17241379310343"/>
      <point x="52.48275862068966" y="219.20689655172413" type="curve" smooth="yes"/>
      <point x="52.48275862068966" y="94.65517241379311"/>
      <point x="133.6551724137931" y="-5.0"/>
    </contour>
  </outline>
</glyph>
<glyph name="llla-tamil" format="2">
  <advance width="937.7931034482758"/>
  <unicode hex="0BB4"/>
  <note>
uni0BB4
</note>
  <anchor x="408.8965517241379" y="0.0" name="bottom"/>
  <anchor x="332.3103448275862" y="-362.9310344827586" name="nukta"/>
  <anchor x="560.2068965517242" y="559.5862068965517" name="top"/>
  <anchor x="544.8965517241379" y="559.5862068965517" name="vedic"/>
  <anchor x="906.1379310344828" y="559.5862068965517" name="imatra"/>
  <outline>
    <contour>
      <point x="214.0" y="-394.0344827586207" type="curve" smooth="yes"/>
      <point x="450.2758620689655" y="-394.0344827586207"/>
      <point x="487.48275862068965" y="-189.6206896551724"/>
      <point x="653.0" y="-189.6206896551724" type="curve" smooth="yes"/>
      <point x="723.9655172413793" y="-189.6206896551724" type="line"/>
      <point x="737.8275862068965" y="-128.17241379310346" type="line"/>
      <point x="648.1379310344828" y="-128.17241379310346" type="line" smooth="yes"/>
      <point x="557.9310344827586" y="-128.17241379310346"/>
      <point x="501.0689655172414" y="-81.06896551724138"/>
      <point x="518.448275862069" y="1.4482758620689644" type="curve" smooth="yes"/>
      <point x="542.0344827586207" y="112.13793103448276" type="line"/>
      <point x="407.44827586206895" y="112.13793103448276" type="line"/>
      <point x="385.1034482758621" y="4.551724137931034" type="line" smooth="yes"/>
      <point x="369.1034482758621" y="-71.44827586206897"/>
      <point x="432.7241379310345" y="-138.3448275862069"/>
      <point x="516.3448275862069" y="-149.55172413793105" type="curve"/>
      <point x="515.3448275862069" y="-154.55172413793105" type="line"/>
      <point x="372.0344827586207" y="-165.55172413793105"/>
      <point x="331.6551724137931" y="-330.82758620689657"/>
      <point x="193.44827586206895" y="-330.82758620689657" type="curve" smooth="yes"/>
      <point x="133.82758620689654" y="-330.82758620689657"/>
      <point x="91.72413793103448" y="-290.58620689655174"/>
      <point x="91.72413793103448" y="-239.20689655172413" type="curve" smooth="yes"/>
      <point x="91.72413793103448" y="-179.86206896551724"/>
      <point x="132.06896551724137" y="-144.10344827586206"/>
      <point x="188.9655172413793" y="-144.10344827586206" type="curve" smooth="yes"/>
      <point x="220.72413793103448" y="-144.10344827586206"/>
      <point x="255.10344827586206" y="-157.48275862068965"/>
      <point x="279.48275862068965" y="-184.48275862068965" type="curve"/>
      <point x="321.82758620689657" y="-143.0" type="line"/>
      <point x="286.44827586206895" y="-103.62068965517241"/>
      <point x="242.06896551724137" y="-85.75862068965517"/>
      <point x="188.82758620689654" y="-85.75862068965517" type="curve" smooth="yes"/>
      <point x="95.86206896551724" y="-85.75862068965517"/>
      <point x="30.620689655172413" y="-154.0"/>
      <point x="30.620689655172413" y="-243.48275862068965" type="curve" smooth="yes"/>
      <point x="30.620689655172413" y="-331.17241379310343"/>
      <point x="105.82758620689656" y="-394.0344827586207"/>
    </contour>
    <component base="ma-tamil"/>
  </outline>
</glyph>
<glyph name="va-tamil" format="2">
  <advance width="1176.7241379310344"/>
  <unicode hex="0BB5"/>
  <note>
uni0BB5
</note>
  <anchor x="562.7586206896551" y="0.0" name="bottom"/>
  <anchor x="1030.896551724138" y="559.5862068965517" name="imatra"/>
  <anchor x="562.7586206896551" y="0.0" name="nukta"/>
  <anchor x="645.448275862069" y="559.5862068965517" name="top"/>
  <anchor x="631.3448275862069" y="559.5862068965517" name="vedic"/>
  <outline>
    <contour>
      <point x="262.6551724137931" y="-5.0" type="curve" smooth="yes"/>
      <point x="369.86206896551727" y="-5.0"/>
      <point x="459.9310344827586" y="58.10344827586207"/>
      <point x="459.9310344827586" y="175.93103448275863" type="curve" smooth="yes"/>
      <point x="459.9310344827586" y="258.86206896551727"/>
      <point x="398.2413793103448" y="315.41379310344826"/>
      <point x="311.2068965517241" y="315.41379310344826" type="curve" smooth="yes"/>
      <point x="210.6206896551724" y="315.41379310344826"/>
      <point x="136.13793103448276" y="243.89655172413794"/>
      <point x="100.34482758620689" y="112.44827586206897" type="curve"/>
      <point x="133.79310344827587" y="90.41379310344827" type="line"/>
      <point x="157.51724137931035" y="190.20689655172413"/>
      <point x="211.13793103448276" y="240.9655172413793"/>
      <point x="267.55172413793105" y="240.9655172413793" type="curve" smooth="yes"/>
      <point x="321.55172413793105" y="240.9655172413793"/>
      <point x="343.58620689655174" y="201.48275862068965"/>
      <point x="343.58620689655174" y="161.44827586206895" type="curve" smooth="yes"/>
      <point x="343.58620689655174" y="105.65517241379311"/>
      <point x="312.17241379310343" y="56.44827586206897"/>
      <point x="242.3448275862069" y="56.44827586206897" type="curve" smooth="yes"/>
      <point x="165.6206896551724" y="56.44827586206897"/>
      <point x="111.58620689655173" y="129.48275862068965"/>
      <point x="111.58620689655173" y="223.58620689655172" type="curve" smooth="yes"/>
      <point x="111.58620689655173" y="388.41379310344826"/>
      <point x="265.7931034482759" y="506.2413793103448"/>
      <point x="429.2068965517241" y="506.2413793103448" type="curve" smooth="yes"/>
      <point x="560.6551724137931" y="506.2413793103448"/>
      <point x="651.7931034482758" y="432.86206896551727"/>
      <point x="651.7931034482758" y="299.48275862068965" type="curve" smooth="yes"/>
      <point x="651.7931034482758" y="195.0"/>
      <point x="598.448275862069" y="117.03448275862068"/>
      <point x="525.7931034482758" y="43.62068965517241" type="curve"/>
      <point x="535.6551724137931" y="0.0" type="line"/>
      <point x="1025.3103448275863" y="0.0" type="line"/>
      <point x="1143.9310344827586" y="559.5862068965517" type="line"/>
      <point x="1009.3448275862069" y="559.5862068965517" type="line"/>
      <point x="902.3448275862069" y="58.3448275862069" type="line"/>
      <point x="641.1034482758621" y="58.3448275862069" type="line"/>
      <point x="717.551724137931" y="119.44827586206897"/>
      <point x="781.9310344827586" y="199.68965517241378"/>
      <point x="781.9310344827586" y="313.7241379310345" type="curve" smooth="yes"/>
      <point x="781.9310344827586" y="479.86206896551727"/>
      <point x="633.2068965517242" y="564.5862068965517"/>
      <point x="447.41379310344826" y="564.5862068965517" type="curve" smooth="yes"/>
      <point x="231.44827586206895" y="564.5862068965517"/>
      <point x="51.10344827586207" y="416.7586206896552"/>
      <point x="51.10344827586207" y="219.20689655172413" type="curve" smooth="yes"/>
      <point x="51.10344827586207" y="94.65517241379311"/>
      <point x="132.27586206896552" y="-5.0"/>
    </contour>
  </outline>
</glyph>
<glyph name="sha-tamil" format="2">
  <advance width="1160.896551724138"/>
  <unicode hex="0BB6"/>
  <note>
uni0BB6
</note>
  <anchor x="528.6896551724138" y="0.0" name="bottom"/>
  <anchor x="961.5172413793103" y="559.5862068965517" name="imatra"/>
  <anchor x="528.6896551724138" y="0.0" name="nukta"/>
  <anchor x="648.0689655172414" y="559.5862068965517" name="top"/>
  <anchor x="652.0689655172414" y="559.5862068965517" name="vedic"/>
  <outline>
    <contour>
      <point x="264.55172413793105" y="-5.0" type="curve" smooth="yes"/>
      <point x="383.9655172413793" y="-5.0"/>
      <point x="469.44827586206895" y="50.241379310344826"/>
      <point x="500.44827586206895" y="196.6206896551724" type="curve" smooth="yes"/>
      <point x="564.448275862069" y="501.2413793103448" type="line"/>
      <point x="704.551724137931" y="501.2413793103448" type="line"/>
      <point x="636.0344827586207" y="180.3793103448276" type="line" smooth="yes"/>
      <point x="611.9310344827586" y="64.82758620689656"/>
      <point x="679.7241379310345" y="-5.0"/>
      <point x="792.4137931034483" y="-5.0" type="curve" smooth="yes"/>
      <point x="992.7241379310345" y="-5.0"/>
      <point x="1119.3793103448277" y="212.75862068965517"/>
      <point x="1119.3793103448277" y="419.82758620689657" type="curve" smooth="yes"/>
      <point x="1119.3793103448277" y="510.9655172413793"/>
      <point x="1073.0" y="559.5862068965517"/>
      <point x="980.4827586206897" y="559.5862068965517" type="curve" smooth="yes"/>
      <point x="514.7241379310345" y="559.5862068965517" type="line"/>
      <point x="440.1034482758621" y="204.72413793103448" type="line" smooth="yes"/>
      <point x="416.3448275862069" y="91.55172413793103"/>
      <point x="360.55172413793105" y="58.3448275862069"/>
      <point x="298.55172413793105" y="58.3448275862069" type="curve" smooth="yes"/>
      <point x="221.75862068965517" y="58.3448275862069"/>
      <point x="191.10344827586206" y="116.24137931034483"/>
      <point x="207.48275862068965" y="196.68965517241378" type="curve" smooth="yes"/>
      <point x="283.9655172413793" y="559.5862068965517" type="line"/>
      <point x="148.13793103448276" y="559.5862068965517" type="line"/>
      <point x="74.65517241379311" y="208.0344827586207" type="line" smooth="yes"/>
      <point x="47.275862068965516" y="81.41379310344827"/>
      <point x="134.20689655172413" y="-5.0"/>
    </contour>
    <contour>
      <point x="830.1724137931035" y="58.3448275862069" type="curve" smooth="yes"/>
      <point x="769.6551724137931" y="58.3448275862069"/>
      <point x="752.2758620689656" y="100.48275862068965"/>
      <point x="765.6551724137931" y="160.75862068965517" type="curve" smooth="yes"/>
      <point x="838.8965517241379" y="501.2413793103448" type="line"/>
      <point x="967.9655172413793" y="501.2413793103448" type="line" smooth="yes"/>
      <point x="1031.2758620689656" y="501.2413793103448"/>
      <point x="1055.0344827586207" y="468.0"/>
      <point x="1055.0344827586207" y="408.0" type="curve" smooth="yes"/>
      <point x="1055.0344827586207" y="253.89655172413794"/>
      <point x="954.0" y="58.3448275862069"/>
    </contour>
  </outline>
</glyph>
<glyph name="ssa-tamil" format="2">
  <advance width="1496.7586206896551"/>
  <unicode hex="0BB7"/>
  <note>
uni0BB7
</note>
  <anchor x="694.6206896551724" y="0.0" name="bottom"/>
  <anchor x="615.4137931034483" y="0.0" name="nukta"/>
  <anchor x="837.8275862068965" y="559.5862068965517" name="top"/>
  <anchor x="806.3103448275862" y="559.5862068965517" name="vedic"/>
  <outline>
    <contour>
      <point x="262.6551724137931" y="-5.0" type="curve" smooth="yes"/>
      <point x="369.86206896551727" y="-5.0"/>
      <point x="459.9310344827586" y="58.10344827586207"/>
      <point x="459.9310344827586" y="175.93103448275863" type="curve" smooth="yes"/>
      <point x="459.9310344827586" y="258.86206896551727"/>
      <point x="398.2413793103448" y="315.41379310344826"/>
      <point x="311.2068965517241" y="315.41379310344826" type="curve" smooth="yes"/>
      <point x="210.6206896551724" y="315.41379310344826"/>
      <point x="136.13793103448276" y="243.89655172413794"/>
      <point x="100.34482758620689" y="112.44827586206897" type="curve"/>
      <point x="133.79310344827587" y="90.41379310344827" type="line"/>
      <point x="157.51724137931035" y="190.20689655172413"/>
      <point x="211.13793103448276" y="240.9655172413793"/>
      <point x="267.55172413793105" y="240.9655172413793" type="curve" smooth="yes"/>
      <point x="321.55172413793105" y="240.9655172413793"/>
      <point x="343.58620689655174" y="201.48275862068965"/>
      <point x="343.58620689655174" y="161.44827586206895" type="curve" smooth="yes"/>
      <point x="343.58620689655174" y="105.65517241379311"/>
      <point x="312.17241379310343" y="56.44827586206897"/>
      <point x="242.3448275862069" y="56.44827586206897" type="curve" smooth="yes"/>
      <point x="165.6206896551724" y="56.44827586206897"/>
      <point x="111.58620689655173" y="129.48275862068965"/>
      <point x="111.58620689655173" y="223.58620689655172" type="curve" smooth="yes"/>
      <point x="111.58620689655173" y="388.41379310344826"/>
      <point x="265.7931034482759" y="506.2413793103448"/>
      <point x="429.2068965517241" y="506.2413793103448" type="curve" smooth="yes"/>
      <point x="556.8620689655172" y="506.2413793103448"/>
      <point x="651.7931034482758" y="431.3448275862069"/>
      <point x="651.7931034482758" y="297.9655172413793" type="curve" smooth="yes"/>
      <point x="651.7931034482758" y="193.48275862068965"/>
      <point x="598.448275862069" y="117.03448275862068"/>
      <point x="525.7931034482758" y="43.62068965517241" type="curve"/>
      <point x="535.6551724137931" y="0.0" type="line"/>
      <point x="1379.2413793103449" y="0.0" type="line"/>
      <point x="1451.0" y="338.7931034482759" type="line"/>
      <point x="1309.3793103448277" y="280.9655172413793" type="line"/>
      <point x="1262.103448275862" y="58.3448275862069" type="line"/>
      <point x="641.1034482758621" y="58.3448275862069" type="line"/>
      <point x="717.551724137931" y="119.44827586206897"/>
      <point x="781.9310344827586" y="198.17241379310346"/>
      <point x="781.9310344827586" y="312.2068965517241" type="curve" smooth="yes"/>
      <point x="781.9310344827586" y="478.3448275862069"/>
      <point x="635.8620689655172" y="564.5862068965517"/>
      <point x="445.8965517241379" y="564.5862068965517" type="curve" smooth="yes"/>
      <point x="229.93103448275863" y="564.5862068965517"/>
      <point x="51.10344827586207" y="417.8965517241379"/>
      <point x="51.10344827586207" y="219.20689655172413" type="curve" smooth="yes"/>
      <point x="51.10344827586207" y="94.65517241379311"/>
      <point x="132.27586206896552" y="-5.0"/>
    </contour>
    <contour>
      <point x="921.448275862069" y="-313.37931034482756" type="line"/>
      <point x="1050.448275862069" y="-313.37931034482756" type="line"/>
      <point x="1204.0689655172414" y="408.48275862068965" type="line" smooth="yes"/>
      <point x="1225.4137931034484" y="508.1034482758621"/>
      <point x="1168.6206896551723" y="565.2068965517242"/>
      <point x="1067.6896551724137" y="565.2068965517242" type="curve" smooth="yes"/>
      <point x="953.448275862069" y="565.2068965517242"/>
      <point x="877.9655172413793" y="481.6896551724138"/>
      <point x="877.9655172413793" y="377.58620689655174" type="curve" smooth="yes"/>
      <point x="877.9655172413793" y="279.17241379310343"/>
      <point x="954.8620689655172" y="204.9655172413793"/>
      <point x="1095.8275862068965" y="204.9655172413793" type="curve" smooth="yes"/>
      <point x="1209.9310344827586" y="204.9655172413793"/>
      <point x="1310.8620689655172" y="234.55172413793105"/>
      <point x="1449.3793103448277" y="330.6896551724138" type="curve"/>
      <point x="1452.0" y="343.55172413793105" type="line"/>
      <point x="1422.8620689655172" y="372.7931034482759" type="line"/>
      <point x="1311.2413793103449" y="299.6896551724138"/>
      <point x="1215.5862068965516" y="257.3448275862069"/>
      <point x="1103.551724137931" y="257.3448275862069" type="curve" smooth="yes"/>
      <point x="987.9655172413793" y="257.3448275862069"/>
      <point x="935.6896551724138" y="303.44827586206895"/>
      <point x="935.6896551724138" y="382.2068965517241" type="curve" smooth="yes"/>
      <point x="935.6896551724138" y="441.82758620689657"/>
      <point x="968.8275862068965" y="488.2413793103448"/>
      <point x="1024.344827586207" y="488.2413793103448" type="curve" smooth="yes"/>
      <point x="1064.2068965517242" y="488.2413793103448"/>
      <point x="1085.8275862068965" y="461.37931034482756"/>
      <point x="1077.448275862069" y="420.86206896551727" type="curve" smooth="yes"/>
    </contour>
  </outline>
</glyph>
<glyph name="aaMatra-tamil" format="2">
  <advance width="669.5862068965517"/>
  <unicode hex="0BBE"/>
  <note>
uni0BBE
</note>
  <anchor x="304.6551724137931" y="0.0" name="bottom"/>
  <anchor x="303.6551724137931" y="0.0" name="nukta"/>
  <anchor x="416.8965517241379" y="559.5862068965517" name="top"/>
  <anchor x="416.8965517241379" y="559.5862068965517" name="vedic"/>
  <outline>
    <contour>
      <point x="32.793103448275865" y="0.0" type="line"/>
      <point x="98.37931034482759" y="0.0" type="line"/>
      <point x="205.0" y="501.2413793103448" type="line"/>
      <point x="406.0344827586207" y="501.2413793103448" type="line"/>
      <point x="299.0344827586207" y="0.0" type="line"/>
      <point x="432.37931034482756" y="0.0" type="line"/>
      <point x="539.0" y="501.2413793103448" type="line"/>
      <point x="699.8275862068965" y="501.2413793103448" type="line"/>
      <point x="711.8275862068965" y="559.5862068965517" type="line"/>
      <point x="152.0344827586207" y="559.5862068965517" type="line"/>
    </contour>
  </outline>
</glyph>
<glyph name="iMatra-tamil" format="2">
  <advance width="235.68965517241378"/>
  <unicode hex="0BBF"/>
  <note>
uni0BBF
</note>
  <anchor x="-56.55172413793103" y="855.1034482758621" name="top"/>
  <outline>
    <contour>
      <point x="20.448275862068968" y="0.0" type="line"/>
      <point x="85.41379310344827" y="0.0" type="line"/>
      <point x="200.17241379310346" y="539.0344827586207" type="line" smooth="yes"/>
      <point x="238.6551724137931" y="721.448275862069"/>
      <point x="140.0344827586207" y="855.1034482758621"/>
      <point x="-56.55172413793103" y="855.1034482758621" type="curve" smooth="yes"/>
      <point x="-200.9655172413793" y="855.1034482758621"/>
      <point x="-305.6551724137931" y="762.8965517241379"/>
      <point x="-305.6551724137931" y="647.9310344827586" type="curve" smooth="yes"/>
      <point x="-305.6551724137931" y="562.448275862069"/>
      <point x="-254.0344827586207" y="510.55172413793105"/>
      <point x="-174.24137931034483" y="510.55172413793105" type="curve" smooth="yes"/>
      <point x="-171.10344827586206" y="510.55172413793105" type="line"/>
      <point x="-160.72413793103448" y="559.5862068965517" type="line"/>
      <point x="-163.86206896551724" y="559.5862068965517" type="line" smooth="yes"/>
      <point x="-207.72413793103448" y="559.5862068965517"/>
      <point x="-237.0689655172414" y="582.7586206896551"/>
      <point x="-237.0689655172414" y="629.2413793103449" type="curve" smooth="yes"/>
      <point x="-237.0689655172414" y="701.2413793103449"/>
      <point x="-158.48275862068965" y="742.8965517241379"/>
      <point x="-65.0344827586207" y="742.8965517241379" type="curve" smooth="yes"/>
      <point x="72.72413793103448" y="742.8965517241379"/>
      <point x="160.9655172413793" y="659.8275862068965"/>
      <point x="130.9655172413793" y="518.8275862068965" type="curve" smooth="yes"/>
    </contour>
  </outline>
</glyph>
<glyph name="iiMatra-tamil" format="2">
  <unicode hex="0BC0"/>
  <note>
uni0BC0
</note>
  <anchor x="60.241379310344826" y="559.5862068965517" name="_imatra"/>
  <anchor x="124.96551724137932" y="895.6551724137931" name="top"/>
  <outline>
    <contour>
      <point x="29.275862068965516" y="503.13793103448273" type="curve" smooth="yes"/>
      <point x="48.37931034482759" y="503.13793103448273" type="line"/>
      <point x="60.241379310344826" y="559.5862068965517" type="line"/>
      <point x="39.275862068965516" y="559.5862068965517" type="line" smooth="yes"/>
      <point x="-23.96551724137931" y="559.5862068965517"/>
      <point x="-69.75862068965517" y="605.0344827586207"/>
      <point x="-69.75862068965517" y="670.2413793103449" type="curve" smooth="yes"/>
      <point x="-69.75862068965517" y="767.8275862068965"/>
      <point x="7.9655172413793105" y="837.9310344827586"/>
      <point x="116.96551724137932" y="837.9310344827586" type="curve" smooth="yes"/>
      <point x="177.0" y="837.9310344827586"/>
      <point x="220.13793103448276" y="807.0689655172414"/>
      <point x="220.13793103448276" y="754.8965517241379" type="curve" smooth="yes"/>
      <point x="220.13793103448276" y="703.7586206896551"/>
      <point x="186.86206896551724" y="672.1379310344828"/>
      <point x="138.9655172413793" y="672.1379310344828" type="curve" smooth="yes"/>
      <point x="53.827586206896555" y="672.1379310344828"/>
      <point x="54.93103448275862" y="774.7931034482758"/>
      <point x="117.20689655172414" y="861.551724137931" type="curve"/>
      <point x="68.75862068965517" y="865.551724137931" type="line"/>
      <point x="-31.103448275862068" y="739.9310344827586"/>
      <point x="1.1379310344827585" y="603.2413793103449"/>
      <point x="147.58620689655172" y="603.2413793103449" type="curve" smooth="yes"/>
      <point x="240.58620689655172" y="603.2413793103449"/>
      <point x="315.7931034482759" y="660.3448275862069"/>
      <point x="315.7931034482759" y="752.3103448275862" type="curve" smooth="yes"/>
      <point x="315.7931034482759" y="844.4137931034483"/>
      <point x="234.55172413793105" y="895.6551724137931"/>
      <point x="124.96551724137932" y="895.6551724137931" type="curve" smooth="yes"/>
      <point x="-17.413793103448278" y="895.6551724137931"/>
      <point x="-132.72413793103448" y="796.7931034482758"/>
      <point x="-132.72413793103448" y="663.0" type="curve" smooth="yes"/>
      <point x="-132.72413793103448" y="565.2068965517242"/>
      <point x="-64.06896551724138" y="503.13793103448273"/>
    </contour>
  </outline>
</glyph>
<glyph name="uMatra-tamil" format="2">
  <advance width="567.8275862068965"/>
  <unicode hex="0BC1"/>
  <note>
uni0BC1
</note>
  <anchor x="300.44827586206895" y="559.5862068965517" name="top"/>
  <outline>
    <contour>
      <point x="354.0" y="220.20689655172413" type="curve" smooth="yes"/>
      <point x="449.0344827586207" y="220.20689655172413"/>
      <point x="541.448275862069" y="263.6551724137931"/>
      <point x="567.9310344827586" y="382.6896551724138" type="curve" smooth="yes"/>
      <point x="606.6896551724138" y="559.5862068965517" type="line"/>
      <point x="-220.48275862068965" y="559.5862068965517" type="line"/>
      <point x="-182.24137931034483" y="501.2413793103448" type="line"/>
      <point x="461.7241379310345" y="501.2413793103448" type="line"/>
      <point x="434.82758620689657" y="378.7931034482759" type="line" smooth="yes"/>
      <point x="420.82758620689657" y="316.55172413793105"/>
      <point x="381.55172413793105" y="286.62068965517244"/>
      <point x="330.2413793103448" y="286.62068965517244" type="curve" smooth="yes"/>
      <point x="270.9310344827586" y="286.62068965517244"/>
      <point x="242.93103448275863" y="331.3103448275862"/>
      <point x="260.9310344827586" y="414.17241379310343" type="curve" smooth="yes"/>
      <point x="285.6896551724138" y="529.8275862068965" type="line"/>
      <point x="221.9655172413793" y="529.8275862068965" type="line"/>
      <point x="198.82758620689654" y="421.0344827586207" type="line" smooth="yes"/>
      <point x="172.3448275862069" y="296.51724137931035"/>
      <point x="232.51724137931035" y="220.20689655172413"/>
    </contour>
  </outline>
</glyph>
<glyph name="uuMatra-tamil" format="2">
  <advance width="927.6551724137931"/>
  <unicode hex="0BC2"/>
  <note>
uni0BC2
</note>
  <anchor x="566.8275862068965" y="781.6206896551724" name="top"/>
  <outline>
    <contour>
      <point x="399.7931034482759" y="6.206896551724138" type="curve" smooth="yes"/>
      <point x="672.9310344827586" y="6.206896551724138"/>
      <point x="904.0689655172414" y="177.93103448275863"/>
      <point x="904.0689655172414" y="454.7586206896552" type="curve" smooth="yes"/>
      <point x="904.0689655172414" y="670.8275862068965"/>
      <point x="763.8965517241379" y="781.2413793103449"/>
      <point x="566.5862068965517" y="781.2413793103449" type="curve" smooth="yes"/>
      <point x="377.6896551724138" y="781.2413793103449"/>
      <point x="261.3448275862069" y="662.3103448275862"/>
      <point x="233.3448275862069" y="532.9310344827586" type="curve" smooth="yes"/>
      <point x="208.9655172413793" y="421.0344827586207" type="line" smooth="yes"/>
      <point x="181.86206896551724" y="296.51724137931035"/>
      <point x="242.6551724137931" y="220.20689655172413"/>
      <point x="364.13793103448273" y="220.20689655172413" type="curve" smooth="yes"/>
      <point x="459.17241379310343" y="220.20689655172413"/>
      <point x="551.5862068965517" y="263.6551724137931"/>
      <point x="578.0689655172414" y="382.6896551724138" type="curve" smooth="yes"/>
      <point x="616.8275862068965" y="559.5862068965517" type="line"/>
      <point x="-219.24137931034483" y="559.5862068965517" type="line"/>
      <point x="-188.75862068965517" y="501.2413793103448" type="line"/>
      <point x="471.86206896551727" y="501.2413793103448" type="line"/>
      <point x="444.9655172413793" y="378.7931034482759" type="line" smooth="yes"/>
      <point x="430.9655172413793" y="316.55172413793105"/>
      <point x="391.6896551724138" y="286.62068965517244"/>
      <point x="340.37931034482756" y="286.62068965517244" type="curve" smooth="yes"/>
      <point x="281.0689655172414" y="286.62068965517244"/>
      <point x="253.06896551724137" y="331.3103448275862"/>
      <point x="271.0689655172414" y="414.17241379310343" type="curve" smooth="yes"/>
      <point x="295.82758620689657" y="529.8275862068965" type="line" smooth="yes"/>
      <point x="317.58620689655174" y="630.6206896551724"/>
      <point x="408.3103448275862" y="715.2068965517242"/>
      <point x="540.9310344827586" y="715.2068965517242" type="curve" smooth="yes"/>
      <point x="694.2413793103449" y="715.2068965517242"/>
      <point x="772.8620689655172" y="619.2068965517242"/>
      <point x="772.8620689655172" y="474.7241379310345" type="curve" smooth="yes"/>
      <point x="772.8620689655172" y="238.44827586206895"/>
      <point x="618.8965517241379" y="69.51724137931035"/>
      <point x="395.9655172413793" y="69.51724137931035" type="curve" smooth="yes"/>
      <point x="265.55172413793105" y="69.51724137931035"/>
      <point x="164.31034482758622" y="113.13793103448276"/>
      <point x="94.79310344827586" y="219.89655172413794" type="curve"/>
      <point x="42.96551724137931" y="184.55172413793105" type="line"/>
      <point x="119.10344827586206" y="67.93103448275862"/>
      <point x="234.17241379310346" y="6.206896551724138"/>
    </contour>
  </outline>
</glyph>
<glyph name="eMatra-tamil" format="2">
  <advance width="876.7586206896551"/>
  <unicode hex="0BC6"/>
  <note>
uni0BC6
</note>
  <outline>
    <contour>
      <point x="310.2413793103448" y="-5.0" type="curve" smooth="yes"/>
      <point x="417.44827586206895" y="-5.0"/>
      <point x="511.37931034482756" y="58.241379310344826"/>
      <point x="511.37931034482756" y="178.55172413793105" type="curve" smooth="yes"/>
      <point x="511.37931034482756" y="265.48275862068965"/>
      <point x="447.2068965517241" y="321.0344827586207"/>
      <point x="359.55172413793105" y="321.0344827586207" type="curve" smooth="yes"/>
      <point x="258.9655172413793" y="321.0344827586207"/>
      <point x="183.86206896551724" y="249.51724137931035"/>
      <point x="148.06896551724137" y="118.06896551724138" type="curve"/>
      <point x="180.75862068965517" y="96.03448275862068" type="line"/>
      <point x="204.48275862068965" y="195.82758620689654"/>
      <point x="259.48275862068965" y="246.58620689655172"/>
      <point x="315.8965517241379" y="246.58620689655172" type="curve" smooth="yes"/>
      <point x="369.8965517241379" y="246.58620689655172"/>
      <point x="395.0344827586207" y="207.20689655172413"/>
      <point x="395.0344827586207" y="164.06896551724137" type="curve" smooth="yes"/>
      <point x="395.0344827586207" y="103.93103448275862"/>
      <point x="359.7586206896552" y="56.44827586206897"/>
      <point x="289.9310344827586" y="56.44827586206897" type="curve" smooth="yes"/>
      <point x="213.20689655172413" y="56.44827586206897"/>
      <point x="146.27586206896552" y="135.9655172413793"/>
      <point x="146.27586206896552" y="292.6551724137931" type="curve" smooth="yes"/>
      <point x="146.27586206896552" y="548.3448275862069"/>
      <point x="313.7931034482759" y="740.2413793103449"/>
      <point x="533.8275862068965" y="740.2413793103449" type="curve" smooth="yes"/>
      <point x="703.2413793103449" y="740.2413793103449"/>
      <point x="796.4137931034483" y="635.551724137931"/>
      <point x="753.9310344827586" y="436.7586206896552" type="curve" smooth="yes"/>
      <point x="660.8965517241379" y="0.0" type="line"/>
      <point x="726.4827586206897" y="0.0" type="line"/>
      <point x="824.7241379310345" y="460.9655172413793" type="line" smooth="yes"/>
      <point x="874.9655172413793" y="696.3103448275862"/>
      <point x="769.0689655172414" y="850.1034482758621"/>
      <point x="548.551724137931" y="850.1034482758621" type="curve" smooth="yes"/>
      <point x="257.9655172413793" y="850.1034482758621"/>
      <point x="85.79310344827586" y="588.0"/>
      <point x="85.79310344827586" y="288.2758620689655" type="curve" smooth="yes"/>
      <point x="85.79310344827586" y="102.65517241379311"/>
      <point x="179.86206896551724" y="-5.0"/>
    </contour>
  </outline>
</glyph>
<glyph name="eeMatra-tamil" format="2">
  <advance width="666.7586206896551"/>
  <unicode hex="0BC7"/>
  <note>
uni0BC7
</note>
  <outline>
    <contour>
      <point x="374.48275862068965" y="-5.0" type="curve" smooth="yes"/>
      <point x="497.37931034482756" y="-5.0"/>
      <point x="594.1034482758621" y="59.310344827586206"/>
      <point x="594.1034482758621" y="181.06896551724137" type="curve" smooth="yes"/>
      <point x="594.1034482758621" y="267.55172413793105"/>
      <point x="530.3448275862069" y="322.7931034482759"/>
      <point x="445.1379310344828" y="322.7931034482759" type="curve" smooth="yes"/>
      <point x="337.17241379310343" y="322.7931034482759"/>
      <point x="252.72413793103448" y="241.0344827586207"/>
      <point x="214.75862068965517" y="91.03448275862068" type="curve"/>
      <point x="248.9655172413793" y="70.51724137931035" type="line"/>
      <point x="281.9655172413793" y="191.20689655172413"/>
      <point x="331.44827586206895" y="247.9655172413793"/>
      <point x="395.58620689655174" y="247.9655172413793" type="curve" smooth="yes"/>
      <point x="444.62068965517244" y="247.9655172413793"/>
      <point x="478.37931034482756" y="216.72413793103448"/>
      <point x="478.37931034482756" y="165.68965517241378" type="curve" smooth="yes"/>
      <point x="478.37931034482756" y="93.72413793103448"/>
      <point x="427.13793103448273" y="56.44827586206897"/>
      <point x="361.8965517241379" y="56.44827586206897" type="curve" smooth="yes"/>
      <point x="254.27586206896552" y="56.44827586206897"/>
      <point x="140.48275862068965" y="176.3448275862069"/>
      <point x="140.48275862068965" y="356.2068965517241" type="curve" smooth="yes"/>
      <point x="140.48275862068965" y="548.7586206896551"/>
      <point x="293.2413793103448" y="788.0344827586207"/>
      <point x="488.62068965517244" y="788.0344827586207" type="curve" smooth="yes"/>
      <point x="556.7586206896551" y="788.0344827586207"/>
      <point x="592.6206896551724" y="748.6551724137931"/>
      <point x="592.6206896551724" y="697.0344827586207" type="curve" smooth="yes"/>
      <point x="592.6206896551724" y="637.3793103448276"/>
      <point x="556.3448275862069" y="596.5172413793103"/>
      <point x="495.9655172413793" y="596.5172413793103" type="curve" smooth="yes"/>
      <point x="415.86206896551727" y="596.5172413793103"/>
      <point x="390.7241379310345" y="681.4827586206897"/>
      <point x="399.7931034482759" y="785.8965517241379" type="curve"/>
      <point x="359.2068965517241" y="765.7586206896551" type="line"/>
      <point x="344.37931034482756" y="628.9655172413793"/>
      <point x="390.62068965517244" y="522.0689655172414"/>
      <point x="521.3103448275862" y="522.0689655172414" type="curve" smooth="yes"/>
      <point x="623.8620689655172" y="522.0689655172414"/>
      <point x="706.3448275862069" y="585.3103448275862"/>
      <point x="706.3448275862069" y="692.1379310344828" type="curve" smooth="yes"/>
      <point x="706.3448275862069" y="799.7241379310345"/>
      <point x="620.6896551724138" y="849.4827586206897"/>
      <point x="517.5172413793103" y="849.4827586206897" type="curve" smooth="yes"/>
      <point x="266.2413793103448" y="849.4827586206897"/>
      <point x="79.37931034482759" y="590.1034482758621"/>
      <point x="79.37931034482759" y="348.1034482758621" type="curve" smooth="yes"/>
      <point x="79.37931034482759" y="135.89655172413794"/>
      <point x="222.3793103448276" y="-5.0"/>
    </contour>
  </outline>
</glyph>
